  0
SECTION
  2
HEADER
  9
$ACADVER
  1
AC1024
  9
$ACADMAINTVER
 70
6
  9
$DWGCODEPAGE
  3
ANSI_1252
  9
$LASTSAVEDBY
  1
ezdxf
  9
$INSBASE
 10
0.0
 20
0.0
 30
0.0
  9
$EXTMIN
 10
1e+20
 20
1e+20
 30
1e+20
  9
$EXTMAX
 10
-1e+20
 20
-1e+20
 30
-1e+20
  9
$LIMMIN
 10
0.0
 20
0.0
  9
$LIMMAX
 10
420.0
 20
297.0
  9
$ORTHOMODE
 70
0
  9
$REGENMODE
 70
1
  9
$FILLMODE
 70
1
  9
$QTEXTMODE
 70
0
  9
$MIRRTEXT
 70
1
  9
$LTSCALE
 40
1.0
  9
$ATTMODE
 70
1
  9
$TEXTSIZE
 40
2.5
  9
$TRACEWID
 40
1.0
  9
$TEXTSTYLE
  7
Standard
  9
$CLAYER
  8
0
  9
$CELTYPE
  6
ByLayer
  9
$CECOLOR
 62
256
  9
$CELTSCALE
 40
1.0
  9
$DISPSILH
 70
0
  9
$DIMSCALE
 40
1.0
  9
$DIMASZ
 40
2.5
  9
$DIMEXO
 40
0.625
  9
$DIMDLI
 40
3.75
  9
$DIMRND
 40
0.0
  9
$DIMDLE
 40
0.0
  9
$DIMEXE
 40
1.25
  9
$DIMTP
 40
0.0
  9
$DIMTM
 40
0.0
  9
$DIMTXT
 40
2.5
  9
$DIMCEN
 40
2.5
  9
$DIMTSZ
 40
0.0
  9
$DIMTOL
 70
0
  9
$DIMLIM
 70
0
  9
$DIMTIH
 70
0
  9
$DIMTOH
 70
0
  9
$DIMSE1
 70
0
  9
$DIMSE2
 70
0
  9
$DIMTAD
 70
1
  9
$DIMZIN
 70
8
  9
$DIMBLK
  1

  9
$DIMASO
 70
1
  9
$DIMSHO
 70
1
  9
$DIMPOST
  1

  9
$DIMAPOST
  1

  9
$DIMALT
 70
0
  9
$DIMALTD
 70
3
  9
$DIMALTF
 40
0.03937007874
  9
$DIMLFAC
 40
1.0
  9
$DIMTOFL
 70
1
  9
$DIMTVP
 40
0.0
  9
$DIMTIX
 70
0
  9
$DIMSOXD
 70
0
  9
$DIMSAH
 70
0
  9
$DIMBLK1
  1

  9
$DIMBLK2
  1

  9
$DIMSTYLE
  2
ISO-25
  9
$DIMCLRD
 70
0
  9
$DIMCLRE
 70
0
  9
$DIMCLRT
 70
0
  9
$DIMTFAC
 40
1.0
  9
$DIMGAP
 40
0.625
  9
$DIMJUST
 70
0
  9
$DIMSD1
 70
0
  9
$DIMSD2
 70
0
  9
$DIMTOLJ
 70
0
  9
$DIMTZIN
 70
8
  9
$DIMALTZ
 70
0
  9
$DIMALTTZ
 70
0
  9
$DIMUPT
 70
0
  9
$DIMDEC
 70
2
  9
$DIMTDEC
 70
2
  9
$DIMALTU
 70
2
  9
$DIMALTTD
 70
3
  9
$DIMTXSTY
  7
Standard
  9
$DIMAUNIT
 70
0
  9
$DIMADEC
 70
0
  9
$DIMALTRND
 40
0.0
  9
$DIMAZIN
 70
0
  9
$DIMDSEP
 70
44
  9
$DIMATFIT
 70
3
  9
$DIMFRAC
 70
0
  9
$DIMLDRBLK
  1

  9
$DIMLUNIT
 70
2
  9
$DIMLWD
 70
-2
  9
$DIMLWE
 70
-2
  9
$DIMTMOVE
 70
0
  9
$DIMFXL
 40
1.0
  9
$DIMFXLON
 70
0
  9
$DIMJOGANG
 40
0.785398163397
  9
$DIMTFILL
 70
0
  9
$DIMTFILLCLR
 70
0
  9
$DIMARCSYM
 70
0
  9
$DIMLTYPE
  6

  9
$DIMLTEX1
  6

  9
$DIMLTEX2
  6

  9
$DIMTXTDIRECTION
 70
0
  9
$LUNITS
 70
2
  9
$LUPREC
 70
4
  9
$SKETCHINC
 40
1.0
  9
$FILLETRAD
 40
10.0
  9
$AUNITS
 70
0
  9
$AUPREC
 70
2
  9
$MENU
  1
.
  9
$ELEVATION
 40
0.0
  9
$PELEVATION
 40
0.0
  9
$THICKNESS
 40
0.0
  9
$LIMCHECK
 70
0
  9
$CHAMFERA
 40
0.0
  9
$CHAMFERB
 40
0.0
  9
$CHAMFERC
 40
0.0
  9
$CHAMFERD
 40
0.0
  9
$SKPOLY
 70
0
  9
$TDCREATE
 40
2461165.543425926
  9
$TDUCREATE
 40
2458532.153996898
  9
$TDUPDATE
 40
2461165.543425926
  9
$TDUUPDATE
 40
2458532.1544311
  9
$TDINDWG
 40
0.0
  9
$TDUSRTIMER
 40
0.0
  9
$USRTIMER
 70
1
  9
$ANGBASE
 50
0.0
  9
$ANGDIR
 70
0
  9
$PDMODE
 70
0
  9
$PDSIZE
 40
0.0
  9
$PLINEWID
 40
0.0
  9
$SPLFRAME
 70
0
  9
$SPLINETYPE
 70
6
  9
$SPLINESEGS
 70
8
  9
$HANDSEED
  5
125
  9
$SURFTAB1
 70
6
  9
$SURFTAB2
 70
6
  9
$SURFTYPE
 70
6
  9
$SURFU
 70
6
  9
$SURFV
 70
6
  9
$UCSBASE
  2

  9
$UCSNAME
  2

  9
$UCSORG
 10
0.0
 20
0.0
 30
0.0
  9
$UCSXDIR
 10
1.0
 20
0.0
 30
0.0
  9
$UCSYDIR
 10
0.0
 20
1.0
 30
0.0
  9
$UCSORTHOREF
  2

  9
$UCSORTHOVIEW
 70
0
  9
$UCSORGTOP
 10
0.0
 20
0.0
 30
0.0
  9
$UCSORGBOTTOM
 10
0.0
 20
0.0
 30
0.0
  9
$UCSORGLEFT
 10
0.0
 20
0.0
 30
0.0
  9
$UCSORGRIGHT
 10
0.0
 20
0.0
 30
0.0
  9
$UCSORGFRONT
 10
0.0
 20
0.0
 30
0.0
  9
$UCSORGBACK
 10
0.0
 20
0.0
 30
0.0
  9
$PUCSBASE
  2

  9
$PUCSNAME
  2

  9
$PUCSORG
 10
0.0
 20
0.0
 30
0.0
  9
$PUCSXDIR
 10
1.0
 20
0.0
 30
0.0
  9
$PUCSYDIR
 10
0.0
 20
1.0
 30
0.0
  9
$PUCSORTHOREF
  2

  9
$PUCSORTHOVIEW
 70
0
  9
$PUCSORGTOP
 10
0.0
 20
0.0
 30
0.0
  9
$PUCSORGBOTTOM
 10
0.0
 20
0.0
 30
0.0
  9
$PUCSORGLEFT
 10
0.0
 20
0.0
 30
0.0
  9
$PUCSORGRIGHT
 10
0.0
 20
0.0
 30
0.0
  9
$PUCSORGFRONT
 10
0.0
 20
0.0
 30
0.0
  9
$PUCSORGBACK
 10
0.0
 20
0.0
 30
0.0
  9
$USERI1
 70
0
  9
$USERI2
 70
0
  9
$USERI3
 70
0
  9
$USERI4
 70
0
  9
$USERI5
 70
0
  9
$USERR1
 40
0.0
  9
$USERR2
 40
0.0
  9
$USERR3
 40
0.0
  9
$USERR4
 40
0.0
  9
$USERR5
 40
0.0
  9
$WORLDVIEW
 70
1
  9
$SHADEDGE
 70
3
  9
$SHADEDIF
 70
70
  9
$TILEMODE
 70
1
  9
$MAXACTVP
 70
64
  9
$PINSBASE
 10
0.0
 20
0.0
 30
0.0
  9
$PLIMCHECK
 70
0
  9
$PEXTMIN
 10
1e+20
 20
1e+20
 30
1e+20
  9
$PEXTMAX
 10
-1e+20
 20
-1e+20
 30
-1e+20
  9
$PLIMMIN
 10
0.0
 20
0.0
  9
$PLIMMAX
 10
420.0
 20
297.0
  9
$UNITMODE
 70
0
  9
$VISRETAIN
 70
1
  9
$PLINEGEN
 70
0
  9
$PSLTSCALE
 70
1
  9
$TREEDEPTH
 70
3020
  9
$CMLSTYLE
  2
Standard
  9
$CMLJUST
 70
0
  9
$CMLSCALE
 40
20.0
  9
$PROXYGRAPHICS
 70
1
  9
$MEASUREMENT
 70
1
  9
$CELWEIGHT
370
-1
  9
$ENDCAPS
280
0
  9
$JOINSTYLE
280
0
  9
$LWDISPLAY
290
0
  9
$INSUNITS
 70
6
  9
$HYPERLINKBASE
  1

  9
$STYLESHEET
  1

  9
$XEDIT
290
1
  9
$CEPSNTYPE
380
0
  9
$PSTYLEMODE
290
1
  9
$FINGERPRINTGUID
  2
{9E4BF790-82A5-403A-8DE6-B76C21690B18}
  9
$VERSIONGUID
  2
{08478AFA-E959-472F-B674-513BBDFE354B}
  9
$EXTNAMES
290
1
  9
$PSVPSCALE
 40
0.0
  9
$OLESTARTUP
290
0
  9
$SORTENTS
280
127
  9
$INDEXCTL
280
0
  9
$HIDETEXT
280
1
  9
$XCLIPFRAME
280
1
  9
$HALOGAP
280
0
  9
$OBSCOLOR
 70
257
  9
$OBSLTYPE
280
0
  9
$INTERSECTIONDISPLAY
280
0
  9
$INTERSECTIONCOLOR
 70
257
  9
$DIMASSOC
280
2
  9
$PROJECTNAME
  1

  9
$CAMERADISPLAY
290
0
  9
$LENSLENGTH
 40
50.0
  9
$CAMERAHEIGHT
 40
0.0
  9
$STEPSPERSEC
 40
24.0
  9
$STEPSIZE
 40
100.0
  9
$3DDWFPREC
 40
2.0
  9
$PSOLWIDTH
 40
0.005
  9
$PSOLHEIGHT
 40
0.08
  9
$LOFTANG1
 40
1.570796326795
  9
$LOFTANG2
 40
1.570796326795
  9
$LOFTMAG1
 40
0.0
  9
$LOFTMAG2
 40
0.0
  9
$LOFTPARAM
 70
7
  9
$LOFTNORMALS
280
1
  9
$LATITUDE
 40
37.795
  9
$LONGITUDE
 40
-122.394
  9
$NORTHDIRECTION
 40
0.0
  9
$TIMEZONE
 70
-8000
  9
$LIGHTGLYPHDISPLAY
280
1
  9
$TILEMODELIGHTSYNCH
280
1
  9
$CMATERIAL
347
20
  9
$SOLIDHIST
280
0
  9
$SHOWHIST
280
1
  9
$DWFFRAME
280
2
  9
$DGNFRAME
280
2
  9
$REALWORLDSCALE
290
1
  9
$INTERFERECOLOR
 62
256
  9
$CSHADOW
280
0
  9
$SHADOWPLANELOCATION
 40
0.0
  0
ENDSEC
  0
SECTION
  2
CLASSES
  0
CLASS
  1
ACDBDICTIONARYWDFLT
  2
AcDbDictionaryWithDefault
  3
ObjectDBX Classes
 90
0
 91
0
280
0
281
0
  0
CLASS
  1
SUN
  2
AcDbSun
  3
SCENEOE
 90
1153
 91
0
280
0
281
0
  0
CLASS
  1
VISUALSTYLE
  2
AcDbVisualStyle
  3
ObjectDBX Classes
 90
4095
 91
0
280
0
281
0
  0
CLASS
  1
MATERIAL
  2
AcDbMaterial
  3
ObjectDBX Classes
 90
1153
 91
0
280
0
281
0
  0
CLASS
  1
SCALE
  2
AcDbScale
  3
ObjectDBX Classes
 90
1153
 91
0
280
0
281
0
  0
CLASS
  1
TABLESTYLE
  2
AcDbTableStyle
  3
ObjectDBX Classes
 90
4095
 91
0
280
0
281
0
  0
CLASS
  1
MLEADERSTYLE
  2
AcDbMLeaderStyle
  3
ACDB_MLEADERSTYLE_CLASS
 90
4095
 91
0
280
0
281
0
  0
CLASS
  1
DICTIONARYVAR
  2
AcDbDictionaryVar
  3
ObjectDBX Classes
 90
0
 91
0
280
0
281
0
  0
CLASS
  1
CELLSTYLEMAP
  2
AcDbCellStyleMap
  3
ObjectDBX Classes
 90
1152
 91
0
280
0
281
0
  0
CLASS
  1
MENTALRAYRENDERSETTINGS
  2
AcDbMentalRayRenderSettings
  3
SCENEOE
 90
1024
 91
0
280
0
281
0
  0
CLASS
  1
ACDBDETAILVIEWSTYLE
  2
AcDbDetailViewStyle
  3
ObjectDBX Classes
 90
1025
 91
0
280
0
281
0
  0
CLASS
  1
ACDBSECTIONVIEWSTYLE
  2
AcDbSectionViewStyle
  3
ObjectDBX Classes
 90
1025
 91
0
280
0
281
0
  0
CLASS
  1
RASTERVARIABLES
  2
AcDbRasterVariables
  3
ISM
 90
0
 91
0
280
0
281
0
  0
CLASS
  1
ACDBPLACEHOLDER
  2
AcDbPlaceHolder
  3
ObjectDBX Classes
 90
0
 91
0
280
0
281
0
  0
CLASS
  1
LAYOUT
  2
AcDbLayout
  3
ObjectDBX Classes
 90
0
 91
0
280
0
281
0
  0
ENDSEC
  0
SECTION
  2
TABLES
  0
TABLE
  2
VPORT
  5
8
330
0
100
AcDbSymbolTable
 70
1
  0
VPORT
  5
23
330
8
100
AcDbSymbolTableRecord
100
AcDbViewportTableRecord
  2
*Active
 70
0
 10
0.0
 20
0.0
 11
1.0
 21
1.0
 12
0.0
 22
0.0
 13
0.0
 23
0.0
 14
0.5
 24
0.5
 15
0.5
 25
0.5
 16
0.0
 26
0.0
 36
1.0
 17
0.0
 27
0.0
 37
0.0
 40
1000.0
 41
1.34
 42
50.0
 43
0.0
 44
0.0
 50
0.0
 51
0.0
 71
0
 72
1000
 73
1
 74
3
 75
0
 76
0
 77
0
 78
0
281
0
 65
0
146
0.0
  0
ENDTAB
  0
TABLE
  2
LTYPE
  5
2
330
0
100
AcDbSymbolTable
 70
3
  0
LTYPE
  5
24
330
2
100
AcDbSymbolTableRecord
100
AcDbLinetypeTableRecord
  2
ByBlock
 70
0
  3

 72
65
 73
0
 40
0.0
  0
LTYPE
  5
25
330
2
100
AcDbSymbolTableRecord
100
AcDbLinetypeTableRecord
  2
ByLayer
 70
0
  3

 72
65
 73
0
 40
0.0
  0
LTYPE
  5
26
330
2
100
AcDbSymbolTableRecord
100
AcDbLinetypeTableRecord
  2
Continuous
 70
0
  3

 72
65
 73
0
 40
0.0
  0
ENDTAB
  0
TABLE
  2
LAYER
  5
1
330
0
100
AcDbSymbolTable
 70
22
  0
LAYER
  5
27
330
1
100
AcDbSymbolTableRecord
100
AcDbLayerTableRecord
  2
0
 70
0
 62
7
  6
Continuous
370
-3
390
13
347
21
  0
LAYER
  5
28
330
1
100
AcDbSymbolTableRecord
100
AcDbLayerTableRecord
  2
Defpoints
 70
0
 62
7
  6
Continuous
290
0
370
-3
390
13
347
21
  0
LAYER
  5
2F
330
1
100
AcDbSymbolTableRecord
100
AcDbLayerTableRecord
  2
修改2016.03.17
 70
0
 62
-6
  6
Continuous
370
-3
390
13
347
21
  0
LAYER
  5
30
330
1
100
AcDbSymbolTableRecord
100
AcDbLayerTableRecord
  2
EQUIP_地漏
 70
0
 62
255
  6
Continuous
370
-3
390
13
347
21
  0
LAYER
  5
31
330
1
100
AcDbSymbolTableRecord
100
AcDbLayerTableRecord
  2
DIM_ELEV
 70
0
 62
3
  6
Continuous
370
-3
390
13
347
21
  0
LAYER
  5
32
330
1
100
AcDbSymbolTableRecord
100
AcDbLayerTableRecord
  2
dote
 70
0
 62
1
  6
Continuous
370
-3
390
13
347
21
  0
LAYER
  5
33
330
1
100
AcDbSymbolTableRecord
100
AcDbLayerTableRecord
  2
房间名称
 70
0
 62
7
  6
Continuous
370
-3
390
13
347
21
  0
LAYER
  5
34
330
1
100
AcDbSymbolTableRecord
100
AcDbLayerTableRecord
  2
COLU
 70
0
 62
6
  6
Continuous
370
-3
390
13
347
21
  0
LAYER
  5
35
330
1
100
AcDbSymbolTableRecord
100
AcDbLayerTableRecord
  2
AXIS
 70
0
 62
3
  6
Continuous
370
-3
390
13
347
21
  0
LAYER
  5
36
330
1
100
AcDbSymbolTableRecord
100
AcDbLayerTableRecord
  2
空线
 70
0
 62
3
  6
Continuous
370
-3
390
13
347
21
  0
LAYER
  5
37
330
1
100
AcDbSymbolTableRecord
100
AcDbLayerTableRecord
  2
DIM_SYMB
 70
0
 62
3
  6
Continuous
370
-3
390
13
347
21
  0
LAYER
  5
38
330
1
100
AcDbSymbolTableRecord
100
AcDbLayerTableRecord
  2
第二次修改
 70
0
 62
-5
  6
Continuous
370
-3
390
13
347
21
  0
LAYER
  5
39
330
1
100
AcDbSymbolTableRecord
100
AcDbLayerTableRecord
  2
节点
 70
0
 62
3
  6
Continuous
370
-3
390
13
347
21
  0
LAYER
  5
3A
330
1
100
AcDbSymbolTableRecord
100
AcDbLayerTableRecord
  2
WALL
 70
0
 62
4
  6
Continuous
370
-3
390
13
347
21
  0
LAYER
  5
3B
330
1
100
AcDbSymbolTableRecord
100
AcDbLayerTableRecord
  2
结构梁问题
 70
0
 62
1
  6
Continuous
370
-3
390
13
347
21
  0
LAYER
  5
3C
330
1
100
AcDbSymbolTableRecord
100
AcDbLayerTableRecord
  2
A-ANNO-TEXT
 70
0
 62
131
  6
Continuous
370
-3
390
13
347
21
  0
LAYER
  5
3D
330
1
100
AcDbSymbolTableRecord
100
AcDbLayerTableRecord
  2
修改2015.10.15
 70
0
 62
-5
  6
Continuous
370
-3
390
13
347
21
  0
LAYER
  5
3E
330
1
100
AcDbSymbolTableRecord
100
AcDbLayerTableRecord
  2
TK
 70
0
 62
1
  6
Continuous
370
-3
390
13
347
21
  0
LAYER
  5
3F
330
1
100
AcDbSymbolTableRecord
100
AcDbLayerTableRecord
  2
房号
 70
0
 62
231
  6
Continuous
370
-3
390
13
347
21
  0
LAYER
  5
40
330
1
100
AcDbSymbolTableRecord
100
AcDbLayerTableRecord
  2
修改2015.11.04
 70
0
 62
-5
  6
Continuous
370
-3
390
13
347
21
  0
LAYER
  5
41
330
1
100
AcDbSymbolTableRecord
100
AcDbLayerTableRecord
  2
DQ-L
 70
0
 62
2
  6
Continuous
370
-3
390
13
347
21
  0
LAYER
  5
42
330
1
100
AcDbSymbolTableRecord
100
AcDbLayerTableRecord
  2
结构梁板
 70
0
 62
2
  6
Continuous
370
-3
390
13
347
21
  0
ENDTAB
  0
TABLE
  2
STYLE
  5
5
330
0
100
AcDbSymbolTable
 70
1
  0
STYLE
  5
29
330
5
100
AcDbSymbolTableRecord
100
AcDbTextStyleTableRecord
  2
Standard
 70
0
 40
0.0
 41
1.0
 50
0.0
 71
0
 42
2.5
  3
txt
  4

  0
ENDTAB
  0
TABLE
  2
VIEW
  5
7
330
0
100
AcDbSymbolTable
 70
0
  0
ENDTAB
  0
TABLE
  2
UCS
  5
6
330
0
100
AcDbSymbolTable
 70
0
  0
ENDTAB
  0
TABLE
  2
APPID
  5
3
330
0
100
AcDbSymbolTable
 70
3
  0
APPID
  5
2A
330
3
100
AcDbSymbolTableRecord
100
AcDbRegAppTableRecord
  2
ACAD
 70
0
  0
APPID
  5
122
330
3
100
AcDbSymbolTableRecord
100
AcDbRegAppTableRecord
  2
HATCHBACKGROUNDCOLOR
 70
0
  0
APPID
  5
123
330
3
100
AcDbSymbolTableRecord
100
AcDbRegAppTableRecord
  2
EZDXF
 70
0
  0
ENDTAB
  0
TABLE
  2
DIMSTYLE
  5
4
330
0
100
AcDbSymbolTable
 70
1
100
AcDbDimStyleTable
  0
DIMSTYLE
105
2B
330
4
100
AcDbSymbolTableRecord
100
AcDbDimStyleTableRecord
  2
Standard
 70
0
 40
1.0
 41
2.5
 42
0.625
 43
3.75
 44
1.25
 45
0.0
 46
0.0
 47
0.0
 48
0.0
 49
2.5
140
2.5
141
2.5
142
0.0
143
0.03937007874
144
1.0
145
0.0
146
1.0
147
0.625
148
0.0
 69
0
 70
0
 71
0
 72
0
 73
0
 74
0
 75
0
 76
0
 77
1
 78
8
 79
3
170
0
171
3
172
1
173
0
174
0
175
0
176
0
177
0
178
0
179
2
271
2
272
2
273
2
274
3
275
0
276
0
277
2
278
44
279
0
280
0
281
0
282
0
283
0
284
8
285
0
286
0
288
0
289
3
290
0
371
-2
372
-2
  0
ENDTAB
  0
TABLE
  2
BLOCK_RECORD
  5
9
330
0
100
AcDbSymbolTable
 70
2
  0
BLOCK_RECORD
  5
17
330
9
100
AcDbSymbolTableRecord
100
AcDbBlockTableRecord
  2
*Model_Space
340
1A
 70
0
280
1
281
0
  0
BLOCK_RECORD
  5
1B
330
9
100
AcDbSymbolTableRecord
100
AcDbBlockTableRecord
  2
*Paper_Space
340
1E
 70
0
280
1
281
0
  0
ENDTAB
  0
ENDSEC
  0
SECTION
  2
BLOCKS
  0
BLOCK
  5
18
330
17
100
AcDbEntity
  8
0
100
AcDbBlockBegin
  2
*Model_Space
 70
0
 10
0.0
 20
0.0
 30
0.0
  3
*Model_Space
  1

  0
ENDBLK
  5
19
330
17
100
AcDbEntity
  8
0
100
AcDbBlockEnd
  0
BLOCK
  5
1C
330
1B
100
AcDbEntity
  8
0
100
AcDbBlockBegin
  2
*Paper_Space
 70
0
 10
0.0
 20
0.0
 30
0.0
  3
*Paper_Space
  1

  0
ENDBLK
  5
1D
330
1B
100
AcDbEntity
  8
0
100
AcDbBlockEnd
  0
ENDSEC
  0
SECTION
  2
ENTITIES
  0
LWPOLYLINE
  5
43
330
17
100
AcDbEntity
  8
TK
100
AcDbPolyline
 90
4
 70
1
 10
1980812.266903988
 20
143258.0526861432
 10
2064912.266903988
 20
143258.0526861432
 10
2064912.266903988
 20
83858.0526861432
 10
1980812.266903988
 20
83858.05268614343
  0
LINE
  5
44
330
17
100
AcDbEntity
  8
TK
100
AcDbLine
 10
2055912.266904055
 20
84858.05268617487
 30
0.0
 11
2055912.266904003
 21
142258.0526861432
 31
0.0
  0
LINE
  5
45
330
17
100
AcDbEntity
  8
TK
100
AcDbLine
 10
2063912.266903936
 20
84858.05268617487
 30
0.0
 11
2063912.266903936
 21
142258.0526861432
 31
0.0
  0
LINE
  5
46
330
17
100
AcDbEntity
  8
TK
100
AcDbLine
 10
2059899.654044329
 20
93144.42215921124
 30
0.0
 11
2059899.654044329
 21
94858.05268617487
 31
0.0
  0
LINE
  5
47
330
17
100
AcDbEntity
  8
TK
100
AcDbLine
 10
2055912.266904055
 20
93858.05268617114
 30
0.0
 11
2063912.266903936
 21
93858.05268617114
 31
0.0
  0
LINE
  5
48
330
17
100
AcDbEntity
  8
TK
100
AcDbLine
 10
2055912.266904055
 20
94858.05268617487
 30
0.0
 11
2063912.266903936
 21
94858.05268617487
 31
0.0
  0
LINE
  5
49
330
17
100
AcDbEntity
  8
TK
100
AcDbLine
 10
2055912.266904055
 20
92958.05268617487
 30
0.0
 11
2063912.266903936
 21
92958.05268617487
 31
0.0
  0
LINE
  5
4A
330
17
100
AcDbEntity
  8
TK
100
AcDbLine
 10
2055912.266904055
 20
93158.05268617114
 30
0.0
 11
2063912.266903936
 21
93158.05268617114
 31
0.0
  0
LINE
  5
4B
330
17
100
AcDbEntity
  8
TK
100
AcDbLine
 10
2055912.266904055
 20
93158.05268617114
 30
0.0
 11
2063912.266903936
 21
93158.05268617114
 31
0.0
  0
LINE
  5
4C
330
17
100
AcDbEntity
  8
TK
100
AcDbLine
 10
2055912.266904055
 20
93158.05268617114
 30
0.0
 11
2063912.266903936
 21
93158.05268617114
 31
0.0
  0
LWPOLYLINE
  5
4D
330
17
100
AcDbEntity
  8
TK
100
AcDbPolyline
 90
3
 70
1
 10
2056115.044349654
 20
87217.72478665924
 10
2056310.999549626
 20
87104.58999918913
 10
2056310.999549626
 20
87330.85957412934
  0
LWPOLYLINE
  5
4E
330
17
100
AcDbEntity
  8
TK
100
AcDbPolyline
 90
6
 70
1
 10
2056092.636296256
 20
86952.64332462987
 10
2056549.86509627
 20
86688.66215386009
 10
2057007.093896254
 20
86952.64332462987
 10
2057007.093896254
 20
87178.91289957007
 10
2056549.86509627
 20
86914.9317288003
 10
2056092.636296256
 20
87178.91289957007
  0
LWPOLYLINE
  5
4F
330
17
100
AcDbEntity
  8
TK
100
AcDbPolyline
 90
6
 70
1
 10
2056549.86509627
 20
86410.64339612937
 10
2057007.093896254
 20
86674.62456689915
 10
2057007.093896254
 20
86900.89414183935
 10
2056549.86509627
 20
86636.91297106957
 10
2056092.636296256
 20
86900.89414183935
 10
2056092.636296256
 20
86674.62456689915
  0
LWPOLYLINE
  5
50
330
17
100
AcDbEntity
  8
TK
100
AcDbPolyline
 90
4
 70
1
 10
2056788.730642735
 20
87104.58999918913
 10
2056549.86509627
 20
87242.49908678746
 10
2056549.86509627
 20
87468.76866172766
 10
2056984.685842736
 20
87217.72478665924
  0
LINE
  5
51
330
17
100
AcDbEntity
  8
TK
100
AcDbLine
 10
2061162.266904055
 20
88058.05268617114
 30
0.0
 11
2061162.266904055
 21
92958.05268617463
 31
0.0
  0
LINE
  5
52
330
17
100
AcDbEntity
  8
TK
100
AcDbLine
 10
2058412.266903936
 20
88058.05268617114
 30
0.0
 11
2058412.266903936
 21
92958.05268617487
 31
0.0
  0
LINE
  5
53
330
17
100
AcDbEntity
  8
TK
100
AcDbLine
 10
2055912.266904055
 20
87858.05268617114
 30
0.0
 11
2063912.266903936
 21
87858.05268617114
 31
0.0
  0
LINE
  5
54
330
17
100
AcDbEntity
  8
TK
100
AcDbLine
 10
2055912.266904055
 20
88058.05268617091
 30
0.0
 11
2063912.266903936
 21
88058.05268617114
 31
0.0
  0
LINE
  5
55
330
17
100
AcDbEntity
  8
TK
100
AcDbLine
 10
2055912.266904055
 20
88758.05268617114
 30
0.0
 11
2063912.266903936
 21
88758.05268617114
 31
0.0
  0
LINE
  5
56
330
17
100
AcDbEntity
  8
TK
100
AcDbLine
 10
2055912.266904055
 20
100458.0526861749
 30
0.0
 11
2063912.266903936
 21
100458.0526861749
 31
0.0
  0
LINE
  5
57
330
17
100
AcDbEntity
  8
TK
100
AcDbLine
 10
2055912.266904055
 20
98458.05268617114
 30
0.0
 11
2063912.266903936
 21
98458.05268617114
 31
0.0
  0
LINE
  5
58
330
17
100
AcDbEntity
  8
TK
100
AcDbLine
 10
2055912.266904055
 20
92258.05268617114
 30
0.0
 11
2063912.266903936
 21
92258.05268617114
 31
0.0
  0
LINE
  5
59
330
17
100
AcDbEntity
  8
TK
100
AcDbLine
 10
2055912.266904055
 20
91558.05268617114
 30
0.0
 11
2063912.266903936
 21
91558.05268617114
 31
0.0
  0
LINE
  5
5A
330
17
100
AcDbEntity
  8
TK
100
AcDbLine
 10
2055912.266904055
 20
90858.05268617114
 30
0.0
 11
2063912.266903936
 21
90858.05268617114
 31
0.0
  0
LINE
  5
5B
330
17
100
AcDbEntity
  8
TK
100
AcDbLine
 10
2055912.266904055
 20
98458.05268617114
 30
0.0
 11
2063912.266903936
 21
98458.05268617114
 31
0.0
  0
LINE
  5
5C
330
17
100
AcDbEntity
  8
TK
100
AcDbLine
 10
2055912.266904055
 20
98458.05268617114
 30
0.0
 11
2063912.266903936
 21
98458.05268617114
 31
0.0
  0
LINE
  5
5D
330
17
100
AcDbEntity
  8
TK
100
AcDbLine
 10
2055912.266904055
 20
98458.05268617114
 30
0.0
 11
2063912.266903936
 21
98458.05268617114
 31
0.0
  0
LINE
  5
5E
330
17
100
AcDbEntity
  8
TK
100
AcDbLine
 10
2055912.266904055
 20
98458.05268617114
 30
0.0
 11
2063912.266903936
 21
98458.05268617114
 31
0.0
  0
LINE
  5
5F
330
17
100
AcDbEntity
  8
TK
100
AcDbLine
 10
2055912.266904055
 20
96658.05268617114
 30
0.0
 11
2063912.266903936
 21
96658.05268617114
 31
0.0
  0
LINE
  5
60
330
17
100
AcDbEntity
  8
TK
100
AcDbLine
 10
2055912.266904055
 20
90158.05268617114
 30
0.0
 11
2063912.266903936
 21
90158.05268617114
 31
0.0
  0
LINE
  5
61
330
17
100
AcDbEntity
  8
TK
100
AcDbLine
 10
2055912.266904055
 20
89458.05268617114
 30
0.0
 11
2063912.266903936
 21
89458.05268617091
 31
0.0
  0
LINE
  5
62
330
17
100
AcDbEntity
  8
TK
100
AcDbLine
 10
2055912.266904055
 20
112458.0526861711
 30
0.0
 11
2063912.266903936
 21
112458.0526861711
 31
0.0
  0
LINE
  5
63
330
17
100
AcDbEntity
  8
TK
100
AcDbLine
 10
2055912.266904055
 20
109458.0526861711
 30
0.0
 11
2063912.266903936
 21
109458.0526861711
 31
0.0
  0
LINE
  5
64
330
17
100
AcDbEntity
  8
TK
100
AcDbLine
 10
2055912.266904055
 20
106458.0526861711
 30
0.0
 11
2063912.266903936
 21
106458.0526861711
 31
0.0
  0
LINE
  5
65
330
17
100
AcDbEntity
  8
TK
100
AcDbLine
 10
2055912.266904055
 20
103458.0526861709
 30
0.0
 11
2063912.266903936
 21
103458.0526861711
 31
0.0
  0
LINE
  5
66
330
17
100
AcDbEntity
  8
TK
100
AcDbLine
 10
2063912.266903936
 20
84858.05268617487
 30
0.0
 11
2055912.266904055
 21
84858.05268617487
 31
0.0
  0
LINE
  5
67
330
17
100
AcDbEntity
  8
TK
100
AcDbLine
 10
2058999.654044329
 20
118658.0526861712
 30
0.0
 11
2058999.654044329
 21
119358.0526861749
 31
0.0
  0
LINE
  5
68
330
17
100
AcDbEntity
  8
TK
100
AcDbLine
 10
2055912.266904055
 20
119358.0526861749
 30
0.0
 11
2063912.266903936
 21
119358.0526861749
 31
0.0
  0
LINE
  5
69
330
17
100
AcDbEntity
  8
TK
100
AcDbLine
 10
2055912.266904055
 20
118658.0526861712
 30
0.0
 11
2063912.266903936
 21
118658.0526861712
 31
0.0
  0
LINE
  5
6A
330
17
100
AcDbEntity
  8
TK
100
AcDbLine
 10
2055912.266904055
 20
118458.0526861712
 30
0.0
 11
2063912.266903936
 21
118458.0526861712
 31
0.0
  0
LINE
  5
6B
330
17
100
AcDbEntity
  8
TK
100
AcDbLine
 10
2055912.266904055
 20
115458.0526861749
 30
0.0
 11
2063912.266903936
 21
115458.0526861749
 31
0.0
  0
LINE
  5
6C
330
17
100
AcDbEntity
  8
TK
100
AcDbLine
 10
2055912.266904055
 20
100258.0526861711
 30
0.0
 11
2063912.266903936
 21
100258.0526861711
 31
0.0
  0
LINE
  5
6D
330
17
100
AcDbEntity
  8
TK
100
AcDbLine
 10
2055912.266904055
 20
100258.0526861711
 30
0.0
 11
2063912.266903936
 21
100258.0526861711
 31
0.0
  0
LINE
  5
6E
330
17
100
AcDbEntity
  8
TK
100
AcDbLine
 10
2055912.266904055
 20
100258.0526861711
 30
0.0
 11
2063912.266903936
 21
100258.0526861711
 31
0.0
  0
LINE
  5
6F
330
17
100
AcDbEntity
  8
TK
100
AcDbLine
 10
2055912.266904055
 20
100258.0526861711
 30
0.0
 11
2063912.266903936
 21
100258.0526861711
 31
0.0
  0
LINE
  5
70
330
17
100
AcDbEntity
  8
TK
100
AcDbLine
 10
2055912.266904055
 20
100258.0526861711
 30
0.0
 11
2063912.266903936
 21
100258.0526861711
 31
0.0
  0
LWPOLYLINE
  5
71
330
17
100
AcDbEntity
  8
TK
100
AcDbPolyline
 90
4
 70
1
 10
2063912.266903988
 20
84858.05268614343
 10
2063912.266903988
 20
142258.0526861432
 10
1983312.266903988
 20
142258.0526861432
 10
1983312.266903988
 20
84858.05268614343
  0
LINE
  5
72
330
17
100
AcDbEntity
  8
节点
100
AcDbLine
 10
1999400.973523795
 20
96622.60883883154
 30
0.0
 11
2000245.473523795
 21
96622.60883883154
 31
0.0
  0
LINE
  5
73
330
17
100
AcDbEntity
  8
节点
100
AcDbLine
 10
1999400.973523653
 20
101208.7232065396
 30
0.0
 11
1999400.973523795
 21
96622.60883883154
 31
0.0
  0
LWPOLYLINE
  5
74
330
17
100
AcDbEntity
  8
节点
100
AcDbPolyline
 90
2
 70
0
 10
1999550.973523653
 20
101208.7232065396
 10
1999550.973523653
 20
100708.7232065396
  0
LWPOLYLINE
  5
75
330
17
100
AcDbEntity
  8
节点
100
AcDbPolyline
 90
2
 70
0
 10
1999550.973523653
 20
100086.0712114023
 10
1999550.973523653
 20
99586.0712114023
  0
LINE
  5
76
330
17
100
AcDbEntity
  8
节点
100
AcDbLine
 10
2008621.008406615
 20
96622.60883883154
 30
0.0
 11
2009465.508406615
 21
96622.60883883154
 31
0.0
  0
LINE
  5
77
330
17
100
AcDbEntity
  8
节点
100
AcDbLine
 10
2008621.008406409
 20
102046.0
 30
0.0
 11
2008621.008406615
 21
96622.60883883154
 31
0.0
  0
LWPOLYLINE
  5
78
330
17
100
AcDbEntity
  8
节点
100
AcDbPolyline
 90
2
 70
0
 10
2008771.008406409
 20
101357.6563919052
 10
2008771.008406409
 20
102022.5
  0
LWPOLYLINE
  5
79
330
17
100
AcDbEntity
  8
节点
100
AcDbPolyline
 90
2
 70
0
 10
2008771.008406472
 20
100086.0712114023
 10
2008771.008406472
 20
99586.0712114023
  0
LINE
  5
7A
330
17
100
AcDbEntity
  8
节点
100
AcDbLine
 10
2047295.010976128
 20
114034.3638961327
 30
0.0
 11
2049663.51744286
 21
114034.3638961327
 31
0.0
  0
LINE
  5
7B
330
17
100
AcDbEntity
  8
节点
100
AcDbLine
 10
2043795.84177307
 20
114034.3638960221
 30
0.0
 11
2050083.89242672
 21
114034.3638961327
 31
0.0
  0
LWPOLYLINE
  5
7C
330
17
100
AcDbEntity
  8
节点
100
AcDbPolyline
 90
2
 70
0
 10
2043795.84177307
 20
113884.3638960221
 10
2044573.84177307
 20
113884.3638960221
  0
LWPOLYLINE
  5
7D
330
17
100
AcDbEntity
  8
节点
100
AcDbPolyline
 90
2
 70
0
 10
2045389.712228198
 20
113884.363895501
 10
2046167.712228198
 20
113884.363895501
  0
LWPOLYLINE
  5
7E
330
17
100
AcDbEntity
  8
节点
100
AcDbPolyline
 90
2
 70
0
 10
1996103.051438265
 20
115930.0513750538
 10
1995325.051438265
 20
115930.0513750538
  0
LWPOLYLINE
  5
7F
330
17
100
AcDbEntity
  8
节点
100
AcDbPolyline
 90
2
 70
0
 10
1993957.880734768
 20
115930.0513749784
 10
1993179.880734768
 20
115930.0513749784
  0
LINE
  5
80
330
17
100
AcDbEntity
  8
节点
100
AcDbLine
 10
1996103.051438265
 20
116080.0513750538
 30
0.0
 11
1990452.824312215
 21
116080.0513750538
 31
0.0
  0
LWPOLYLINE
  5
81
330
17
100
AcDbEntity
  8
节点
100
AcDbPolyline
 90
2
 70
0
 10
1996088.321965994
 20
105981.0931466166
 10
1995310.321965994
 20
105981.0931466166
  0
LWPOLYLINE
  5
82
330
17
100
AcDbEntity
  8
节点
100
AcDbPolyline
 90
2
 70
0
 10
1993957.880734768
 20
105981.0931465412
 10
1993179.880734768
 20
105981.0931465412
  0
LINE
  5
83
330
17
100
AcDbEntity
  8
节点
100
AcDbLine
 10
1996088.321965994
 20
106131.0931466166
 30
0.0
 11
1990074.308398193
 21
106131.0931466166
 31
0.0
  0
LWPOLYLINE
  5
84
330
17
100
AcDbEntity
  8
节点
100
AcDbPolyline
 90
2
 70
0
 10
1996041.988157967
 20
123891.6011648476
 10
1995263.988157967
 20
123891.6011648476
  0
LWPOLYLINE
  5
85
330
17
100
AcDbEntity
  8
节点
100
AcDbPolyline
 90
2
 70
0
 10
1993957.880734768
 20
123891.6011649661
 10
1993179.880734768
 20
123891.6011649661
  0
LINE
  5
86
330
17
100
AcDbEntity
  8
节点
100
AcDbLine
 10
1996041.988157967
 20
124041.6011648476
 30
0.0
 11
1990461.590695535
 21
124041.6011650392
 31
0.0
  0
LWPOLYLINE
  5
87
330
17
100
AcDbEntity
  8
节点
100
AcDbPolyline
 90
2
 70
0
 10
2043920.583744515
 20
104848.4925299552
 10
2044698.583744515
 20
104848.4925299552
  0
LWPOLYLINE
  5
88
330
17
100
AcDbEntity
  8
节点
100
AcDbPolyline
 90
2
 70
0
 10
2045656.636705833
 20
104848.4925298798
 10
2046434.636705833
 20
104848.4925298798
  0
LINE
  5
89
330
17
100
AcDbEntity
  8
节点
100
AcDbLine
 10
2043920.583744515
 20
104998.4925299552
 30
0.0
 11
2050388.505353052
 21
104998.4925299552
 31
0.0
  0
LWPOLYLINE
  5
8A
330
17
100
AcDbEntity
  8
节点
100
AcDbPolyline
 90
2
 70
0
 10
2043339.220925374
 20
123722.9685636778
 10
2044117.220925374
 20
123722.9685636778
  0
LWPOLYLINE
  5
8B
330
17
100
AcDbEntity
  8
节点
100
AcDbPolyline
 90
2
 70
0
 10
2045656.636705833
 20
123722.9685638421
 10
2046434.636705833
 20
123722.9685638421
  0
LINE
  5
8C
330
17
100
AcDbEntity
  8
节点
100
AcDbLine
 10
2043339.220925374
 20
123872.9685636778
 30
0.0
 11
2050145.236742006
 21
123872.9685639176
 31
0.0
  0
LINE
  5
8D
330
17
100
AcDbEntity
  8
节点
100
AcDbLine
 10
2029958.4423465
 20
96622.60883883154
 30
0.0
 11
2030802.9423465
 21
96622.60883883154
 31
0.0
  0
LINE
  5
8E
330
17
100
AcDbEntity
  8
节点
100
AcDbLine
 10
2029958.442346358
 20
101208.7232065396
 30
0.0
 11
2029958.4423465
 21
96622.60883883154
 31
0.0
  0
LWPOLYLINE
  5
8F
330
17
100
AcDbEntity
  8
节点
100
AcDbPolyline
 90
2
 70
0
 10
2030108.442346358
 20
101208.7232065396
 10
2030108.442346358
 20
100708.7232065396
  0
LWPOLYLINE
  5
90
330
17
100
AcDbEntity
  8
节点
100
AcDbPolyline
 90
2
 70
0
 10
2030108.442346358
 20
100086.0712114023
 10
2030108.442346358
 20
99586.0712114023
  0
LINE
  5
91
330
17
100
AcDbEntity
  8
节点
100
AcDbLine
 10
2005092.973523795
 20
96622.60883883154
 30
0.0
 11
2005937.473523795
 21
96622.60883883154
 31
0.0
  0
LINE
  5
92
330
17
100
AcDbEntity
  8
节点
100
AcDbLine
 10
2005092.973523653
 20
101208.7232065396
 30
0.0
 11
2005092.973523795
 21
96622.60883883154
 31
0.0
  0
LWPOLYLINE
  5
93
330
17
100
AcDbEntity
  8
节点
100
AcDbPolyline
 90
2
 70
0
 10
2005242.973523653
 20
101208.7232065396
 10
2005242.973523653
 20
100708.7232065396
  0
LWPOLYLINE
  5
94
330
17
100
AcDbEntity
  8
节点
100
AcDbPolyline
 90
2
 70
0
 10
2005242.973523653
 20
100086.0712114023
 10
2005242.973523653
 20
99586.0712114023
  0
LINE
  5
95
330
17
100
AcDbEntity
  8
节点
100
AcDbLine
 10
2026337.973523795
 20
96622.60883883154
 30
0.0
 11
2027182.473523795
 21
96622.60883883154
 31
0.0
  0
LINE
  5
96
330
17
100
AcDbEntity
  8
节点
100
AcDbLine
 10
2026337.973523653
 20
101208.7232065396
 30
0.0
 11
2026337.973523795
 21
96622.60883883154
 31
0.0
  0
LWPOLYLINE
  5
97
330
17
100
AcDbEntity
  8
节点
100
AcDbPolyline
 90
2
 70
0
 10
2026487.973523653
 20
101208.7232065396
 10
2026487.973523653
 20
100708.7232065396
  0
LWPOLYLINE
  5
98
330
17
100
AcDbEntity
  8
节点
100
AcDbPolyline
 90
2
 70
0
 10
2026487.973523653
 20
100086.0712114023
 10
2026487.973523653
 20
99586.0712114023
  0
LINE
  5
99
330
17
100
AcDbEntity
  8
节点
100
AcDbLine
 10
2034714.9423465
 20
96622.60883883154
 30
0.0
 11
2035559.4423465
 21
96622.60883883154
 31
0.0
  0
LINE
  5
9A
330
17
100
AcDbEntity
  8
节点
100
AcDbLine
 10
2034714.942346358
 20
101208.7232065396
 30
0.0
 11
2034714.9423465
 21
96622.60883883154
 31
0.0
  0
LWPOLYLINE
  5
9B
330
17
100
AcDbEntity
  8
节点
100
AcDbPolyline
 90
2
 70
0
 10
2034864.942346358
 20
101208.7232065396
 10
2034864.942346358
 20
100708.7232065396
  0
LWPOLYLINE
  5
9C
330
17
100
AcDbEntity
  8
节点
100
AcDbPolyline
 90
2
 70
0
 10
2034864.942346358
 20
100086.0712114023
 10
2034864.942346358
 20
99586.0712114023
  0
LINE
  5
9D
330
17
100
AcDbEntity
  8
节点
100
AcDbLine
 10
2040274.675186955
 20
96622.60883883154
 30
0.0
 11
2041119.175186955
 21
96622.60883883154
 31
0.0
  0
LINE
  5
9E
330
17
100
AcDbEntity
  8
节点
100
AcDbLine
 10
2040274.675186812
 20
101208.7232065396
 30
0.0
 11
2040274.675186955
 21
96622.60883883154
 31
0.0
  0
LWPOLYLINE
  5
9F
330
17
100
AcDbEntity
  8
节点
100
AcDbPolyline
 90
2
 70
0
 10
2040424.675186812
 20
101208.7232065396
 10
2040424.675186812
 20
100708.7232065396
  0
LWPOLYLINE
  5
A0
330
17
100
AcDbEntity
  8
节点
100
AcDbPolyline
 90
2
 70
0
 10
2040424.675186812
 20
100086.0712114023
 10
2040424.675186812
 20
99586.0712114023
  0
LINE
  5
A1
330
17
100
AcDbEntity
  8
节点
100
AcDbLine
 10
2017542.973523795
 20
96622.60883883154
 30
0.0
 11
2018387.473523795
 21
96622.60883883154
 31
0.0
  0
LINE
  5
A2
330
17
100
AcDbEntity
  8
节点
100
AcDbLine
 10
2017542.973523653
 20
101208.7232065396
 30
0.0
 11
2017542.973523795
 21
96622.60883883154
 31
0.0
  0
LWPOLYLINE
  5
A3
330
17
100
AcDbEntity
  8
节点
100
AcDbPolyline
 90
2
 70
0
 10
2017692.973523653
 20
101208.7232065396
 10
2017692.973523653
 20
100708.7232065396
  0
LWPOLYLINE
  5
A4
330
17
100
AcDbEntity
  8
节点
100
AcDbPolyline
 90
2
 70
0
 10
2017692.973523653
 20
100086.0712114023
 10
2017692.973523653
 20
99586.0712114023
  0
LINE
  5
A5
330
17
100
AcDbEntity
  8
节点
100
AcDbLine
 10
2039844.342828853
 20
133026.3607067778
 30
0.0
 11
2038999.842828853
 21
133026.3607067778
 31
0.0
  0
LINE
  5
A6
330
17
100
AcDbEntity
  8
节点
100
AcDbLine
 10
2039844.342828996
 20
128137.2463390697
 30
0.0
 11
2039844.342828853
 21
133026.3607067778
 31
0.0
  0
LWPOLYLINE
  5
A7
330
17
100
AcDbEntity
  8
节点
100
AcDbPolyline
 90
2
 70
0
 10
2039694.342828996
 20
128137.2463390697
 10
2039694.342828996
 20
128637.2463390697
  0
LWPOLYLINE
  5
A8
330
17
100
AcDbEntity
  8
节点
100
AcDbPolyline
 90
2
 70
0
 10
2039694.342828996
 20
129259.8983342066
 10
2039694.342828996
 20
129759.8983342066
  0
LINE
  5
A9
330
17
100
AcDbEntity
  8
节点
100
AcDbLine
 10
2030624.307946034
 20
133026.3607067778
 30
0.0
 11
2029779.807946034
 21
133026.3607067778
 31
0.0
  0
LINE
  5
AA
330
17
100
AcDbEntity
  8
节点
100
AcDbLine
 10
2030624.307946097
 20
127204.6794281884
 30
0.0
 11
2030624.307946034
 21
133026.3607067778
 31
0.0
  0
LWPOLYLINE
  5
AB
330
17
100
AcDbEntity
  8
节点
100
AcDbPolyline
 90
2
 70
0
 10
2030474.307946097
 20
127204.6794281884
 10
2030474.307946097
 20
127704.6794281884
  0
LWPOLYLINE
  5
AC
330
17
100
AcDbEntity
  8
节点
100
AcDbPolyline
 90
2
 70
0
 10
2030474.307946176
 20
129259.8983342066
 10
2030474.307946176
 20
129759.8983342066
  0
LINE
  5
AD
330
17
100
AcDbEntity
  8
节点
100
AcDbLine
 10
2009286.874006148
 20
133026.3607067778
 30
0.0
 11
2008442.374006148
 21
133026.3607067778
 31
0.0
  0
LINE
  5
AE
330
17
100
AcDbEntity
  8
节点
100
AcDbLine
 10
2009286.874006291
 20
128137.2463390697
 30
0.0
 11
2009286.874006148
 21
133026.3607067778
 31
0.0
  0
LWPOLYLINE
  5
AF
330
17
100
AcDbEntity
  8
节点
100
AcDbPolyline
 90
2
 70
0
 10
2009136.874006291
 20
128137.2463390697
 10
2009136.874006291
 20
128637.2463390697
  0
LWPOLYLINE
  5
B0
330
17
100
AcDbEntity
  8
节点
100
AcDbPolyline
 90
2
 70
0
 10
2009136.874006291
 20
129259.8983342066
 10
2009136.874006291
 20
129759.8983342066
  0
LINE
  5
B1
330
17
100
AcDbEntity
  8
节点
100
AcDbLine
 10
2034152.342828853
 20
133026.3607067778
 30
0.0
 11
2033307.842828853
 21
133026.3607067778
 31
0.0
  0
LINE
  5
B2
330
17
100
AcDbEntity
  8
节点
100
AcDbLine
 10
2034152.342828996
 20
128137.2463390697
 30
0.0
 11
2034152.342828853
 21
133026.3607067778
 31
0.0
  0
LWPOLYLINE
  5
B3
330
17
100
AcDbEntity
  8
节点
100
AcDbPolyline
 90
2
 70
0
 10
2034002.342828996
 20
128137.2463390697
 10
2034002.342828996
 20
128637.2463390697
  0
LWPOLYLINE
  5
B4
330
17
100
AcDbEntity
  8
节点
100
AcDbPolyline
 90
2
 70
0
 10
2034002.342828996
 20
129259.8983342066
 10
2034002.342828996
 20
129759.8983342066
  0
LINE
  5
B5
330
17
100
AcDbEntity
  8
节点
100
AcDbLine
 10
2012907.342828853
 20
133026.3607067778
 30
0.0
 11
2012062.842828853
 21
133026.3607067778
 31
0.0
  0
LINE
  5
B6
330
17
100
AcDbEntity
  8
节点
100
AcDbLine
 10
2012907.342828996
 20
128137.2463390697
 30
0.0
 11
2012907.342828853
 21
133026.3607067778
 31
0.0
  0
LWPOLYLINE
  5
B7
330
17
100
AcDbEntity
  8
节点
100
AcDbPolyline
 90
2
 70
0
 10
2012757.342828996
 20
128137.2463390697
 10
2012757.342828996
 20
128637.2463390697
  0
LWPOLYLINE
  5
B8
330
17
100
AcDbEntity
  8
节点
100
AcDbPolyline
 90
2
 70
0
 10
2012757.342828996
 20
129259.8983342066
 10
2012757.342828996
 20
129759.8983342066
  0
LINE
  5
B9
330
17
100
AcDbEntity
  8
节点
100
AcDbLine
 10
2004530.374006148
 20
133026.3607067778
 30
0.0
 11
2003685.874006148
 21
133026.3607067778
 31
0.0
  0
LINE
  5
BA
330
17
100
AcDbEntity
  8
节点
100
AcDbLine
 10
2004530.374006291
 20
128137.2463390697
 30
0.0
 11
2004530.374006148
 21
133026.3607067778
 31
0.0
  0
LWPOLYLINE
  5
BB
330
17
100
AcDbEntity
  8
节点
100
AcDbPolyline
 90
2
 70
0
 10
2004380.374006291
 20
128137.2463390697
 10
2004380.374006291
 20
128637.2463390697
  0
LWPOLYLINE
  5
BC
330
17
100
AcDbEntity
  8
节点
100
AcDbPolyline
 90
2
 70
0
 10
2004380.374006291
 20
129259.8983342066
 10
2004380.374006291
 20
129759.8983342066
  0
LINE
  5
BD
330
17
100
AcDbEntity
  8
节点
100
AcDbLine
 10
1998970.641165694
 20
133026.3607067778
 30
0.0
 11
1998126.141165694
 21
133026.3607067778
 31
0.0
  0
LINE
  5
BE
330
17
100
AcDbEntity
  8
节点
100
AcDbLine
 10
1998970.641165836
 20
128137.2463390697
 30
0.0
 11
1998970.641165694
 21
133026.3607067778
 31
0.0
  0
LWPOLYLINE
  5
BF
330
17
100
AcDbEntity
  8
节点
100
AcDbPolyline
 90
2
 70
0
 10
1998820.641165836
 20
128137.2463390697
 10
1998820.641165836
 20
128637.2463390697
  0
LWPOLYLINE
  5
C0
330
17
100
AcDbEntity
  8
节点
100
AcDbPolyline
 90
2
 70
0
 10
1998820.641165836
 20
129259.8983342066
 10
1998820.641165836
 20
129759.8983342066
  0
LINE
  5
C1
330
17
100
AcDbEntity
  8
节点
100
AcDbLine
 10
2021702.342828853
 20
133026.3607067778
 30
0.0
 11
2020857.842828853
 21
133026.3607067778
 31
0.0
  0
LINE
  5
C2
330
17
100
AcDbEntity
  8
节点
100
AcDbLine
 10
2021702.342828996
 20
128137.2463390697
 30
0.0
 11
2021702.342828853
 21
133026.3607067778
 31
0.0
  0
LWPOLYLINE
  5
C3
330
17
100
AcDbEntity
  8
节点
100
AcDbPolyline
 90
2
 70
0
 10
2021552.342828996
 20
128137.2463390697
 10
2021552.342828996
 20
128637.2463390697
  0
LWPOLYLINE
  5
C4
330
17
100
AcDbEntity
  8
节点
100
AcDbPolyline
 90
2
 70
0
 10
2021552.342828996
 20
129259.8983342066
 10
2021552.342828996
 20
129759.8983342066
  0
LWPOLYLINE
  5
C5
330
17
100
AcDbEntity
  8
A-ANNO-TEXT
100
AcDbPolyline
 90
2
 70
0
 10
2035377.20402116
 20
88044.59866364533
 10
2041305.672743439
 20
88044.59866364533
  0
LINE
  5
C6
330
17
100
AcDbEntity
  8
A-ANNO-TEXT
100
AcDbLine
 10
2035377.20402116
 20
88161.00035926607
 30
0.0
 11
2041305.672743439
 21
88161.00035926607
 31
0.0
  0
LINE
  5
C7
330
17
100
AcDbEntity
  8
DIM_ELEV
100
AcDbLine
 10
2048700.603638337
 20
88224.45066649443
 30
0.0
 11
2048250.603638337
 21
88674.45066649443
 31
0.0
  0
LINE
  5
C8
330
17
100
AcDbEntity
  8
DIM_ELEV
100
AcDbLine
 10
2048700.603638337
 20
88224.45066649443
 30
0.0
 11
2049150.603638337
 21
88674.45066649443
 31
0.0
  0
LINE
  5
C9
330
17
100
AcDbEntity
  8
DIM_ELEV
100
AcDbLine
 10
2048250.603638337
 20
88674.45066649443
 30
0.0
 11
2050584.339838982
 21
88674.45066649443
 31
0.0
  0
LINE
  5
CA
330
17
100
AcDbEntity
  8
结构梁问题
100
AcDbLine
 10
2036540.442354955
 20
147255.0372818033
 30
0.0
 11
2043767.666124748
 21
147255.0372818033
 31
0.0
  0
LWPOLYLINE
  5
CB
330
17
100
AcDbEntity
  8
结构梁问题
100
AcDbPolyline
 90
89
 70
0
 10
2006837.821550803
 20
129636.9426646337
 10
2006798.558582183
 20
129009.1856160124
 10
2006798.558582183
 20
129009.1856160124
 10
2006739.658988775
 20
128499.1330140077
 10
2006739.658988775
 20
128499.1330140077
 10
2006661.133051535
 20
127930.2281886946
 10
2006661.133051535
 20
127930.2281886946
 10
2006641.501567224
 20
127420.1733302597
 10
2006641.501567224
 20
127420.1733302597
 10
2006641.501567224
 20
127302.4688836431
 10
2006641.501567224
 20
126792.4162816384
 10
2006641.501567224
 20
126792.4162816384
 10
2006582.607114294
 20
126262.7462718642
 10
2006582.607114294
 20
126262.7462718642
 10
2006543.339005197
 20
125733.0762620901
 10
2006543.339005197
 20
125733.0762620901
 10
2006445.181583646
 20
125124.9366212382
 10
2006445.181583646
 20
125124.9366212382
 10
2006366.655646406
 20
124556.0317959252
 10
2006366.655646406
 20
124556.0317959252
 10
2006347.019021618
 20
124045.9769374903
 10
2006347.019021618
 20
124045.9769374903
 10
2006347.019021618
 20
123477.0721121772
 10
2006347.019021618
 20
123477.0721121772
 10
2006347.019021618
 20
122927.7846946336
 10
2006347.019021618
 20
122927.7846946336
 10
2006347.019021618
 20
122398.1146848595
 10
2006347.019021618
 20
122398.1146848595
 10
2006366.655646406
 20
121789.9750440076
 10
2006366.655646406
 20
121789.9750440076
 10
2006386.287130716
 20
121240.6853700338
 10
2006386.287130716
 20
121240.6853700338
 10
2006386.287130716
 20
120652.1631369514
 10
2006386.287130716
 20
120652.1631369514
 10
2006445.181583646
 20
120142.1105349466
 10
2006445.181583646
 20
120142.1105349466
 10
2006562.975629985
 20
119592.823117403
 10
2006562.975629985
 20
119592.823117403
 10
2006739.658988775
 20
119102.3879231678
 10
2006739.658988775
 20
119102.3879231678
 10
2007053.773018691
 20
118710.0397677796
 10
2007053.773018691
 20
118710.0397677796
 10
2007328.61893951
 20
118258.8371326525
 10
2007328.61893951
 20
118258.8371326525
 10
2007780.158500075
 20
118611.9527289324
 10
2007780.158500075
 20
118611.9527289324
 10
2007937.210374556
 20
119180.8575542455
 10
2007937.210374556
 20
119180.8575542455
 10
2007996.109967963
 20
119730.1449717891
 10
2007996.109967963
 20
119730.1449717891
 10
2007996.109967963
 20
120259.8149815632
 10
2007996.109967963
 20
120259.8149815632
 10
2008035.372936583
 20
120809.1023991063
 10
2008035.372936583
 20
120809.1023991063
 10
2008133.530358134
 20
121299.5375933416
 10
2008133.530358134
 20
121299.5375933416
 10
2008212.061435851
 20
121809.592451777
 10
2008212.061435851
 20
121809.592451777
 10
2008231.692920162
 20
122398.1146848595
 10
2008231.692920162
 20
122398.1146848595
 10
2008231.692920162
 20
122947.4021024031
 10
2008231.692920162
 20
122947.4021024031
 10
2008231.692920162
 20
123477.0721121772
 10
2008231.692920162
 20
123477.0721121772
 10
2008192.429951542
 20
124085.2117530291
 10
2008192.429951542
 20
124085.2117530291
 10
2008192.429951542
 20
124634.5014270029
 10
2008192.429951542
 20
124634.5014270029
 10
2008172.798467232
 20
125144.5540290077
 10
2008172.798467232
 20
125144.5540290077
 10
2008153.166982921
 20
125713.4588543206
 10
2008153.166982921
 20
125713.4588543206
 10
2008133.530358134
 20
126262.7462718642
 10
2008133.530358134
 20
126262.7462718642
 10
2008094.267389514
 20
126792.4162816384
 10
2008094.267389514
 20
126792.4162816384
 10
2008074.635905204
 20
127322.0862914125
 10
2008074.635905204
 20
127322.0862914125
 10
2007996.109967963
 20
127851.7585576174
 10
2007996.109967963
 20
127851.7585576174
 10
2007897.947405936
 20
128361.8111596221
 10
2007897.947405936
 20
128361.8111596221
 10
2007721.258906666
 20
128832.628946088
 10
2007721.258906666
 20
128832.628946088
 10
2007583.838516497
 20
129323.0641403233
 10
2007583.838516498
 20
129323.0641403233
 10
2007407.150017228
 20
129793.8819267891
 10
2007407.150017228
 20
129793.8819267891
 10
2006837.821550803
 20
129636.9426646336
  0
LINE
  5
CC
330
17
100
AcDbEntity
  8
结构梁问题
100
AcDbLine
 10
2007644.768074393
 20
128535.3607431889
 30
0.0
 11
2003492.500014183
 21
145823.2559256388
 31
0.0
  0
LINE
  5
CD
330
17
100
AcDbEntity
  8
结构梁问题
100
AcDbLine
 10
2003492.500014183
 20
145823.2559256388
 30
0.0
 11
1995492.077896139
 21
145823.2559256388
 31
0.0
  0
LWPOLYLINE
  5
CE
330
17
100
AcDbEntity
  8
结构梁问题
100
AcDbPolyline
 90
84
 70
0
 10
2006686.953670987
 20
110523.7049826124
 10
2006494.602136188
 20
109947.0696260116
 10
2006494.602136188
 20
109947.0696260116
 10
2006374.381784379
 20
109370.4365258409
 10
2006374.381784379
 20
109370.4365258409
 10
2006254.156292092
 20
108817.8298988624
 10
2006254.156292092
 20
108817.8298988624
 10
2006230.114277921
 20
108265.2210154534
 10
2006230.114277921
 20
108265.2210154534
 10
2006157.983094931
 20
107736.6408616665
 10
2006157.983094931
 20
107736.6408616665
 10
2006133.935940283
 20
107184.0319782572
 10
2006133.935940283
 20
107184.0319782572
 10
2006133.935940283
 20
106607.398878087
 10
2006133.935940283
 20
106607.398878087
 10
2006157.983094931
 20
106102.8451974915
 10
2006157.983094931
 20
106102.8451974915
 10
2006254.156292092
 20
105574.2627872738
 10
2006254.156292092
 20
105574.2627872738
 10
2006278.20344674
 20
105045.6826334872
 10
2006278.20344674
 20
105045.6826334872
 10
2006278.20344674
 20
104493.0737500779
 10
2006278.20344674
 20
104493.0737500779
 10
2006278.20344674
 20
103916.4406499073
 10
2006278.20344674
 20
103916.4406499073
 10
2006278.20344674
 20
103339.8052933064
 10
2006278.20344674
 20
103339.8052933064
 10
2006302.245460911
 20
102811.2251395194
 10
2006302.245460911
 20
102811.2251395194
 10
2006302.245460911
 20
102258.6185125408
 10
2006302.245460911
 20
102258.6185125408
 10
2006374.381784379
 20
101754.0625755151
 10
2006374.381784379
 20
101754.0625755151
 10
2006542.691305007
 20
101249.5088949201
 10
2006542.691305007
 20
101249.5088949201
 10
2006686.953670987
 20
100744.9529578939
 10
2006686.953670987
 20
100744.9529578939
 10
2006879.310346265
 20
100264.4257504905
 10
2006879.310346265
 20
100264.4257504905
 10
2007143.793064054
 20
99807.92275984788
 10
2007143.793064054
 20
99807.92275984788
 10
2007648.726766417
 20
99831.94923303984
 10
2007648.726766417
 20
99831.94923303984
 10
2007961.298653025
 20
100264.4257504905
 10
2007961.298653025
 20
100264.4257504905
 10
2008105.566159483
 20
100817.0323774691
 10
2008105.566159483
 20
100817.0323774691
 10
2008153.655328302
 20
101417.6919508313
 10
2008153.655328302
 20
101417.6919508313
 10
2008177.697342473
 20
101994.3273074322
 10
2008177.697342473
 20
101994.3273074322
 10
2008201.744497121
 20
102594.9868807943
 10
2008201.744497121
 20
102594.9868807943
 10
2008201.744497121
 20
103171.6222373952
 10
2008201.744497121
 20
103171.6222373952
 10
2008201.744497121
 20
103796.308283949
 10
2008201.744497121
 20
103796.308283949
 10
2008153.655328302
 20
104372.9413841191
 10
2008153.655328302
 20
104372.9413841191
 10
2008129.608173654
 20
104877.4973211453
 10
2008129.608173654
 20
104877.4973211453
 10
2008057.476990664
 20
105454.1304213155
 10
2008057.476990664
 20
105454.1304213155
 10
2007985.345807674
 20
106030.7657779164
 10
2007985.345807674
 20
106030.7657779164
 10
2007961.298653025
 20
106607.398878087
 10
2007961.298653025
 20
106607.398878087
 10
2007937.256638855
 20
107160.0055050656
 10
2007937.256638855
 20
107160.0055050656
 10
2007913.209484206
 20
107760.667334858
 10
2007913.209484206
 20
107760.667334858
 10
2007913.209484206
 20
108313.2739618367
 10
2007913.209484206
 20
108313.2739618367
 10
2007913.209484206
 20
108865.882845246
 10
2007913.209484206
 20
108865.882845246
 10
2007889.167470036
 20
109394.462999033
 10
2007889.167470036
 20
109394.462999033
 10
2007889.167470036
 20
109899.0189360586
 10
2007889.167470036
 20
109899.0189360586
 10
2007792.989132397
 20
110403.5726166541
 10
2007792.989132397
 20
110403.5726166541
 10
2007336.149739331
 20
110619.8108753792
 10
2007336.149739331
 20
110619.8108753792
 10
2006686.953670987
 20
110523.7049826125
  0
LINE
  5
CF
330
17
100
AcDbEntity
  8
结构梁问题
100
AcDbLine
 10
2007366.523943456
 20
99587.24644839692
 30
0.0
 11
2005053.220853076
 21
79751.02326896104
 31
0.0
  0
LINE
  5
D0
330
17
100
AcDbEntity
  8
结构梁问题
100
AcDbLine
 10
2005053.220853076
 20
79751.02326896104
 30
0.0
 11
1996504.000014183
 21
79751.02326896104
 31
0.0
  0
LWPOLYLINE
  5
D1
330
17
100
AcDbEntity
  8
修改2015.10.15
100
AcDbPolyline
 90
125
 70
1
 10
1992350.500120467
 20
102481.5427750971
 10
1993350.500120467
 20
102481.5427750971
 10
1994350.500120467
 20
102481.5427750971
 10
1995350.500120467
 20
102481.5427750971
 10
1996350.500120467
 20
102481.5427750971
 10
1997350.500120467
 20
102481.5427750971
 10
1998350.500120467
 20
102481.5427750971
 10
1999350.500120467
 20
102481.5427750971
 10
2000350.500120467
 20
102481.5427750971
 10
2001350.500120467
 20
102481.5427750971
 10
2002350.500120467
 20
102481.5427750971
 10
2003350.500120467
 20
102481.5427750971
 10
2004350.500120467
 20
102481.5427750971
 10
2005350.500120467
 20
102481.5427750971
 10
2006350.500120467
 20
102481.5427750971
 10
2007350.500120467
 20
102481.5427750971
 10
2008350.500120467
 20
102481.5427750971
 10
2009350.500120467
 20
102481.5427750971
 10
2010350.500120467
 20
102481.5427750971
 10
2011350.500120467
 20
102481.5427750971
 10
2012350.500120467
 20
102481.5427750971
 10
2013350.500120467
 20
102481.5427750971
 10
2014350.500120467
 20
102481.5427750971
 10
2015350.500120467
 20
102481.5427750971
 10
2016350.500120467
 20
102481.5427750971
 10
2017350.500120467
 20
102481.5427750971
 10
2018350.500120467
 20
102481.5427750971
 10
2019350.500120467
 20
102481.5427750971
 10
2020350.500120467
 20
102481.5427750971
 10
2021350.500120467
 20
102481.5427750971
 10
2022350.500120467
 20
102481.5427750971
 10
2023350.500120467
 20
102481.5427750971
 10
2024350.500120467
 20
102481.5427750971
 10
2025350.500120467
 20
102481.5427750971
 10
2026350.500120467
 20
102481.5427750971
 10
2027350.500120467
 20
102481.5427750971
 10
2028350.500120467
 20
102481.5427750971
 10
2029350.500120467
 20
102481.5427750971
 10
2030350.500120467
 20
102481.5427750971
 10
2031350.500120467
 20
102481.5427750971
 10
2032350.500120467
 20
102481.5427750971
 10
2033350.500120467
 20
102481.5427750971
 10
2034350.500120467
 20
102481.5427750971
 10
2035350.500120467
 20
102481.5427750971
 10
2036350.500120467
 20
102481.5427750971
 10
2037350.500120467
 20
102481.5427750971
 10
2038350.500120467
 20
102481.5427750971
 10
2039350.500120467
 20
102481.5427750971
 10
2040350.500120467
 20
102481.5427750971
 10
2041350.500120467
 20
102481.5427750971
 10
2042350.500120467
 20
102481.5427750971
 10
2043350.500120467
 20
102481.5427750971
 10
2044350.500120467
 20
102481.5427750971
 10
2045350.500120467
 20
102481.5427750971
 10
2046350.500120467
 20
102481.5427750971
 10
2047350.500120467
 20
102481.5427750971
 10
2048350.500120467
 20
102481.5427750971
 10
2049350.500120467
 20
102481.5427750971
 10
2050328.000120467
 20
102459.0427750971
 10
2050328.000120467
 20
101459.0427750971
 10
2050328.000120467
 20
100459.0427750971
 10
2050328.000120467
 20
99459.04277509711
 10
2050328.000120467
 20
98459.04277509711
 10
2049884.000120467
 20
97903.04277509711
 10
2048884.000120467
 20
97903.04277509711
 10
2047884.000120467
 20
97903.04277509711
 10
2046884.000120467
 20
97903.04277509711
 10
2045884.000120467
 20
97903.04277509711
 10
2044884.000120467
 20
97903.04277509711
 10
2043884.000120467
 20
97903.04277509711
 10
2042884.000120467
 20
97903.04277509711
 10
2041884.000120467
 20
97903.04277509711
 10
2040884.000120467
 20
97903.04277509711
 10
2039884.000120467
 20
97903.04277509711
 10
2038884.000120467
 20
97903.04277509711
 10
2037884.000120467
 20
97903.04277509711
 10
2036884.000120467
 20
97903.04277509711
 10
2035884.000120467
 20
97903.04277509711
 10
2034884.000120467
 20
97903.04277509711
 10
2033884.000120467
 20
97903.04277509711
 10
2032884.000120467
 20
97903.04277509711
 10
2031884.000120467
 20
97903.04277509711
 10
2030884.000120467
 20
97903.04277509711
 10
2029884.000120467
 20
97903.04277509711
 10
2028884.000120467
 20
97903.04277509711
 10
2027884.000120467
 20
97903.04277509711
 10
2026884.000120467
 20
97903.04277509711
 10
2025884.000120467
 20
97903.04277509711
 10
2024884.000120467
 20
97903.04277509711
 10
2023884.000120467
 20
97903.04277509711
 10
2022884.000120467
 20
97903.04277509711
 10
2021884.000120467
 20
97903.04277509711
 10
2020884.000120467
 20
97903.04277509711
 10
2019884.000120467
 20
97903.04277509711
 10
2018884.000120467
 20
97903.04277509711
 10
2017884.000120467
 20
97903.04277509711
 10
2016884.000120467
 20
97903.04277509711
 10
2015884.000120467
 20
97903.04277509711
 10
2014884.000120467
 20
97903.04277509711
 10
2013884.000120467
 20
97903.04277509711
 10
2012884.000120467
 20
97903.04277509711
 10
2011884.000120467
 20
97903.04277509711
 10
2010884.000120467
 20
97903.04277509711
 10
2009884.000120467
 20
97903.04277509711
 10
2008884.000120467
 20
97903.04277509711
 10
2007884.000120467
 20
97903.04277509711
 10
2006884.000120467
 20
97903.04277509711
 10
2005884.000120467
 20
97903.04277509711
 10
2004884.000120467
 20
97903.04277509711
 10
2003884.000120467
 20
97903.04277509711
 10
2002884.000120467
 20
97903.04277509711
 10
2001884.000120467
 20
97903.04277509711
 10
2000884.000120467
 20
97903.04277509711
 10
1999884.000120467
 20
97903.04277509711
 10
1998884.000120467
 20
97903.04277509711
 10
1997884.000120467
 20
97903.04277509711
 10
1996884.000120467
 20
97903.04277509711
 10
1995884.000120467
 20
97903.04277509711
 10
1994884.000120467
 20
97903.04277509711
 10
1993884.000120467
 20
97903.04277509711
 10
1992884.000120467
 20
97903.04277509711
 10
1992350.500120467
 20
98369.54277509711
 10
1992350.500120467
 20
99369.54277509711
 10
1992350.500120467
 20
100369.5427750971
 10
1992350.500120467
 20
101369.5427750971
  0
LWPOLYLINE
  5
D2
330
17
100
AcDbEntity
  8
修改2015.10.15
100
AcDbPolyline
 90
22
 70
0
 10
2007487.344089834
 20
105592.0210038335
 10
2008280.455357193
 20
104931.4355590725
 10
2008280.455357193
 20
104931.4355590725
 10
2009139.658226132
 20
104336.9067385364
 10
2009139.658226132
 20
104336.9067385364
 10
2010296.279326382
 20
104072.6725606322
 10
2010296.279326382
 20
104072.6725606322
 10
2011287.665398477
 20
104469.023827489
 10
2011287.665398477
 20
104469.023827489
 10
2012246.008681888
 20
105030.5224156612
 10
2012246.008681888
 20
105030.5224156612
 10
2012279.054482677
 20
106087.4629677804
 10
2012279.054482677
 20
106087.4629677804
 10
2011419.851613739
 20
106681.9898680658
 10
2011419.851613739
 20
106681.9898680658
 10
2010263.230513488
 20
106913.1957338573
 10
2010263.230513488
 20
106913.1957338573
 10
2009172.704026921
 20
106913.1957338573
 10
2009172.704026921
 20
106913.1957338573
 10
2008214.363755615
 20
106615.9313235897
 10
2008214.363755615
 20
106615.9313235897
 10
2007487.344089834
 20
105592.0210038335
  0
LWPOLYLINE
  5
D3
330
17
100
AcDbEntity
  8
修改2015.11.04
100
AcDbPolyline
 90
130
 70
1
 10
1989992.499959203
 20
102537.2464750747
 10
1990992.499959203
 20
102537.2464750747
 10
1991992.499959203
 20
102537.2464750747
 10
1992992.499959203
 20
102537.2464750747
 10
1993992.499959203
 20
102537.2464750747
 10
1994992.499959203
 20
102537.2464750747
 10
1995992.499959203
 20
102537.2464750747
 10
1996992.499959203
 20
102537.2464750747
 10
1997992.499959203
 20
102537.2464750747
 10
1998992.499959203
 20
102537.2464750747
 10
1999992.499959203
 20
102537.2464750747
 10
2000992.499959203
 20
102537.2464750747
 10
2001992.499959203
 20
102537.2464750747
 10
2002992.499959203
 20
102537.2464750747
 10
2003992.499959203
 20
102537.2464750747
 10
2004992.499959203
 20
102537.2464750747
 10
2005992.499959203
 20
102537.2464750747
 10
2006992.499959203
 20
102537.2464750747
 10
2007992.499959203
 20
102537.2464750747
 10
2008992.499959203
 20
102537.2464750747
 10
2009992.499959203
 20
102537.2464750747
 10
2010992.499959203
 20
102537.2464750747
 10
2011992.499959203
 20
102537.2464750747
 10
2012992.499959203
 20
102537.2464750747
 10
2013992.499959203
 20
102537.2464750747
 10
2014992.499959203
 20
102537.2464750747
 10
2015992.499959203
 20
102537.2464750747
 10
2016992.499959203
 20
102537.2464750747
 10
2017992.499959203
 20
102537.2464750747
 10
2018992.499959203
 20
102537.2464750747
 10
2019992.499959203
 20
102537.2464750747
 10
2020992.499959203
 20
102537.2464750747
 10
2021992.499959203
 20
102537.2464750747
 10
2022992.499959203
 20
102537.2464750747
 10
2023992.499959203
 20
102537.2464750747
 10
2024992.499959203
 20
102537.2464750747
 10
2025992.499959203
 20
102537.2464750747
 10
2026992.499959203
 20
102537.2464750747
 10
2027992.499959203
 20
102537.2464750747
 10
2028992.499959203
 20
102537.2464750747
 10
2029992.499959203
 20
102537.2464750747
 10
2030992.499959203
 20
102537.2464750747
 10
2031992.499959203
 20
102537.2464750747
 10
2032992.499959203
 20
102537.2464750747
 10
2033992.499959203
 20
102537.2464750747
 10
2034992.499959203
 20
102537.2464750747
 10
2035992.499959203
 20
102537.2464750747
 10
2036992.499959203
 20
102537.2464750747
 10
2037992.499959203
 20
102537.2464750747
 10
2038992.499959203
 20
102537.2464750747
 10
2039992.499959203
 20
102537.2464750747
 10
2040992.499959203
 20
102537.2464750747
 10
2041992.499959203
 20
102537.2464750747
 10
2042992.499959203
 20
102537.2464750747
 10
2043992.499959203
 20
102537.2464750747
 10
2044992.499959203
 20
102537.2464750747
 10
2045992.499959203
 20
102537.2464750747
 10
2046992.499959203
 20
102537.2464750747
 10
2047992.499959203
 20
102537.2464750747
 10
2048992.499959203
 20
102537.2464750747
 10
2049461.499959203
 20
102006.2464750747
 10
2049461.499959203
 20
101006.2464750747
 10
2049461.499959203
 20
100006.2464750747
 10
2049461.499959203
 20
99006.24647507472
 10
2049461.499959203
 20
98006.24647507472
 10
2049461.499959203
 20
97006.24647507472
 10
2048502.100534322
 20
96965.64589995518
 10
2047502.100534322
 20
96965.64589995518
 10
2046502.100534322
 20
96965.64589995518
 10
2045502.100534322
 20
96965.64589995518
 10
2044502.100534322
 20
96965.64589995518
 10
2043502.100534322
 20
96965.64589995518
 10
2042502.100534322
 20
96965.64589995518
 10
2041502.100534322
 20
96965.64589995518
 10
2040502.100534322
 20
96965.64589995518
 10
2039502.100534322
 20
96965.64589995518
 10
2038502.100534322
 20
96965.64589995518
 10
2037502.100534322
 20
96965.64589995518
 10
2036502.100534322
 20
96965.64589995518
 10
2035502.100534322
 20
96965.64589995518
 10
2034502.100534322
 20
96965.64589995518
 10
2033502.100534322
 20
96965.64589995518
 10
2032502.100534322
 20
96965.64589995518
 10
2031502.100534322
 20
96965.64589995518
 10
2030502.100534322
 20
96965.64589995518
 10
2029502.100534322
 20
96965.64589995518
 10
2028502.100534322
 20
96965.64589995518
 10
2027502.100534322
 20
96965.64589995518
 10
2026502.100534322
 20
96965.64589995518
 10
2025502.100534322
 20
96965.64589995518
 10
2024502.100534322
 20
96965.64589995518
 10
2023502.100534322
 20
96965.64589995518
 10
2022502.100534322
 20
96965.64589995518
 10
2021502.100534322
 20
96965.64589995518
 10
2020502.100534322
 20
96965.64589995518
 10
2019502.100534322
 20
96965.64589995518
 10
2018502.100534322
 20
96965.64589995518
 10
2017502.100534322
 20
96965.64589995518
 10
2016502.100534322
 20
96965.64589995518
 10
2015502.100534322
 20
96965.64589995518
 10
2014502.100534322
 20
96965.64589995518
 10
2013502.100534322
 20
96965.64589995518
 10
2012502.100534322
 20
96965.64589995518
 10
2011502.100534322
 20
96965.64589995518
 10
2010502.100534322
 20
96965.64589995518
 10
2009502.100534322
 20
96965.64589995518
 10
2008502.100534322
 20
96965.64589995518
 10
2007502.100534322
 20
96965.64589995518
 10
2006502.100534322
 20
96965.64589995518
 10
2005502.100534322
 20
96965.64589995518
 10
2004502.100534322
 20
96965.64589995518
 10
2003502.100534322
 20
96965.64589995518
 10
2002502.100534322
 20
96965.64589995518
 10
2001502.100534322
 20
96965.64589995518
 10
2000502.100534322
 20
96965.64589995518
 10
1999502.100534322
 20
96965.64589995518
 10
1998502.100534322
 20
96965.64589995518
 10
1997502.100534322
 20
96965.64589995518
 10
1996502.100534322
 20
96965.64589995518
 10
1995502.100534322
 20
96965.64589995518
 10
1994502.100534322
 20
96965.64589995518
 10
1993502.100534322
 20
96965.64589995518
 10
1992502.100534322
 20
96965.64589995518
 10
1991502.100534322
 20
96965.64589995518
 10
1990502.100534322
 20
96965.64589995518
 10
1989992.499959203
 20
97456.04532483564
 10
1989992.499959203
 20
98456.04532483564
 10
1989992.499959203
 20
99456.04532483564
 10
1989992.499959203
 20
100456.0453248357
 10
1989992.499959203
 20
101456.0453248357
  0
LWPOLYLINE
  5
D4
330
17
100
AcDbEntity
  8
修改2015.11.04
100
AcDbPolyline
 90
18
 70
1
 10
2049640.499959203
 20
102703.6458999552
 10
2050640.499959203
 20
102703.6458999552
 10
2051640.499959203
 20
102703.6458999552
 10
2052640.499959203
 20
102703.6458999552
 10
2053640.499959203
 20
102703.6458999552
 10
2054582.999959203
 20
102646.1458999552
 10
2054582.999959203
 20
101646.1458999552
 10
2054582.999959203
 20
100646.1458999552
 10
2054582.999959203
 20
99646.14589995518
 10
2054523.499959203
 20
98705.64589995518
 10
2053523.499959203
 20
98705.64589995518
 10
2052523.499959203
 20
98705.64589995518
 10
2051523.499959203
 20
98705.64589995518
 10
2050523.499959203
 20
98705.64589995518
 10
2049640.499959203
 20
98822.64589995518
 10
2049640.499959203
 20
99822.64589995518
 10
2049640.499959203
 20
100822.6458999552
 10
2049640.499959203
 20
101822.6458999552
  0
LWPOLYLINE
  5
D5
330
17
100
AcDbEntity
  8
修改2015.11.04
100
AcDbPolyline
 90
73
 70
1
 10
2044468.499959203
 20
132119.1458999552
 10
2045468.499959203
 20
132119.1458999552
 10
2046468.499959203
 20
132119.1458999552
 10
2047468.499959203
 20
132119.1458999552
 10
2048041.999959203
 20
131692.6458999552
 10
2048041.999959203
 20
130692.6458999552
 10
2048041.999959203
 20
129692.6458999552
 10
2048041.999959203
 20
128692.6458999552
 10
2048041.999959203
 20
127692.6458999552
 10
2048041.999959203
 20
126692.6458999552
 10
2048041.999959203
 20
125692.6458999552
 10
2048041.999959203
 20
124692.6458999552
 10
2048041.999959203
 20
123692.6458999552
 10
2048041.999959203
 20
122692.6458999552
 10
2048041.999959203
 20
121692.6458999552
 10
2048041.999959203
 20
120692.6458999552
 10
2048041.999959203
 20
119692.6458999552
 10
2048041.999959203
 20
118692.6458999552
 10
2048041.999959203
 20
117692.6458999552
 10
2048041.999959203
 20
116692.6458999552
 10
2048041.999959203
 20
115692.6458999552
 10
2048041.999959203
 20
114692.6458999552
 10
2048041.999959203
 20
113692.6458999552
 10
2048041.999959203
 20
112692.6458999552
 10
2048041.999959203
 20
111692.6458999552
 10
2048041.999959203
 20
110692.6458999552
 10
2048041.999959203
 20
109692.6458999552
 10
2048041.999959203
 20
108692.6458999552
 10
2048041.999959203
 20
107692.6458999552
 10
2048041.999959203
 20
106692.6458999552
 10
2048041.999959203
 20
105692.6458999552
 10
2048041.999959203
 20
104692.6458999552
 10
2048041.999959203
 20
103692.6458999552
 10
2048041.999959203
 20
102692.6458999552
 10
2048041.999959203
 20
101692.6458999552
 10
2048041.999959203
 20
100692.6458999552
 10
2048041.999959203
 20
99692.64589995518
 10
2047641.499959203
 20
99093.14589995518
 10
2046641.499959203
 20
99093.14589995518
 10
2045641.499959203
 20
99093.14589995518
 10
2044641.499959203
 20
99093.14589995518
 10
2044468.499959203
 20
99920.14589995518
 10
2044468.499959203
 20
100920.1458999552
 10
2044468.499959203
 20
101920.1458999552
 10
2044468.499959203
 20
102920.1458999552
 10
2044468.499959203
 20
103920.1458999552
 10
2044468.499959203
 20
104920.1458999552
 10
2044468.499959203
 20
105920.1458999552
 10
2044468.499959203
 20
106920.1458999552
 10
2044468.499959203
 20
107920.1458999552
 10
2044468.499959203
 20
108920.1458999552
 10
2044468.499959203
 20
109920.1458999552
 10
2044468.499959203
 20
110920.1458999552
 10
2044468.499959203
 20
111920.1458999552
 10
2044468.499959203
 20
112920.1458999552
 10
2044468.499959203
 20
113920.1458999552
 10
2044468.499959203
 20
114920.1458999552
 10
2044468.499959203
 20
115920.1458999552
 10
2044468.499959203
 20
116920.1458999552
 10
2044468.499959203
 20
117920.1458999552
 10
2044468.499959203
 20
118920.1458999552
 10
2044468.499959203
 20
119920.1458999552
 10
2044468.499959203
 20
120920.1458999552
 10
2044468.499959203
 20
121920.1458999552
 10
2044468.499959203
 20
122920.1458999552
 10
2044468.499959203
 20
123920.1458999552
 10
2044468.499959203
 20
124920.1458999552
 10
2044468.499959203
 20
125920.1458999552
 10
2044468.499959203
 20
126920.1458999552
 10
2044468.499959203
 20
127920.1458999552
 10
2044468.499959203
 20
128920.1458999552
 10
2044468.499959203
 20
129920.1458999552
 10
2044468.499959203
 20
130920.1458999552
  0
LWPOLYLINE
  5
D6
330
17
100
AcDbEntity
  8
修改2015.11.04
100
AcDbPolyline
 90
27
 70
0
 10
2042074.79228863
 20
133636.3565988047
 10
2043125.890384453
 20
133005.9924207954
 10
2043125.890384453
 20
133005.9924207954
 10
2044113.924504623
 20
132837.8944968805
 10
2044113.924504623
 20
132837.8944968805
 10
2044807.649802409
 20
132837.8944968805
 10
2045690.573188756
 20
133594.3331300495
 10
2045690.573188756
 20
133594.3331300495
 10
2046237.144075352
 20
134455.8324595541
 10
2046237.144075352
 20
134455.8324595541
 10
2046573.496575103
 20
135422.3924853928
 10
2046573.496575103
 20
135422.3924853928
 10
2046447.365542997
 20
136430.9759799871
 10
2046447.365542997
 20
136430.9759799871
 10
2045585.462454934
 20
137019.3166892417
 10
2045585.462454934
 20
137019.3166892417
 10
2044576.408036479
 20
137166.402878779
 10
2044576.408036479
 20
137166.402878779
 10
2043567.353618027
 20
137040.3284236193
 10
2043567.353618027
 20
137040.3284236193
 10
2042621.363175226
 20
136641.0973726572
 10
2042621.363175226
 20
136641.0973726572
 10
2042095.815667715
 20
135695.5511056427
 10
2042095.815667715
 20
135695.5511056427
 10
2042095.815667715
 20
134665.9538522237
 10
2042095.815667715
 20
134665.9538522237
 10
2042074.792288631
 20
133636.3565988047
  0
LWPOLYLINE
  5
D7
330
17
100
AcDbEntity
  8
结构梁问题
100
AcDbPolyline
 90
92
 70
0
 10
2028091.789680497
 20
99339.26211211274
 10
2028597.216868718
 20
99591.7860315628
 10
2028597.216868718
 20
99591.7860315628
 10
2028971.078670863
 20
100005.7011507722
 10
2028971.078670863
 20
100005.7011507722
 10
2029173.248518056
 20
100544.4217037442
 10
2029173.248518056
 20
100544.4217037442
 10
2029308.026702692
 20
101105.5869720467
 10
2029308.026702692
 20
101105.5869720467
 10
2029442.804887329
 20
101599.4135814966
 10
2029442.804887329
 20
101599.4135814966
 10
2029487.732662366
 20
102205.4750497518
 10
2029487.732662366
 20
102205.4750497518
 10
2029487.732662366
 20
102744.1933462932
 10
2029487.732662366
 20
102744.1933462932
 10
2029510.196549885
 20
103282.9138992653
 10
2029510.196549885
 20
103282.9138992653
 10
2029510.196549885
 20
103821.6344522373
 10
2029510.196549885
 20
103821.6344522373
 10
2029442.804887329
 20
104337.9057770181
 10
2029442.804887329
 20
104337.9057770181
 10
2029375.418365249
 20
104899.0733017512
 10
2029375.418365249
 20
104899.0733017512
 10
2029352.95447773
 20
105415.3468829622
 10
2029352.95447773
 20
105415.3468829622
 10
2029308.026702692
 20
105931.6182077425
 10
2029308.026702692
 20
105931.6182077425
 10
2029263.098927654
 20
106492.7857324756
 10
2029263.098927654
 20
106492.7857324756
 10
2029240.635040136
 20
107009.0593136866
 10
2029240.635040136
 20
107009.0593136866
 10
2029218.171152617
 20
107570.224581989
 10
2029218.171152617
 20
107570.224581989
 10
2029195.707265097
 20
108086.4981632005
 10
2029195.707265097
 20
108086.4981632005
 10
2029195.707265097
 20
108602.7717444115
 10
2029195.707265097
 20
108602.7717444115
 10
2029195.707265097
 20
109119.0453256225
 10
2029195.707265097
 20
109119.0453256225
 10
2029173.248518056
 20
109635.3189068334
 10
2029173.248518056
 20
109635.3189068334
 10
2029038.465192943
 20
110151.5902316142
 10
2029038.465192943
 20
110151.5902316142
 10
2028679.053273593
 20
110510.7372669289
 10
2028679.053273593
 20
110510.7372669289
 10
2028207.321916651
 20
110757.651699869
 10
2028207.321916651
 20
110757.651699869
 10
2027713.131812665
 20
110645.4168410641
 10
2027713.131812665
 20
110645.4168410641
 10
2027510.961965472
 20
110174.0372033753
 10
2027510.961965472
 20
110174.0372033753
 10
2027353.71475284
 20
109657.7636221638
 10
2027353.71475284
 20
109657.7636221638
 10
2027174.008793166
 20
109119.0453256225
 10
2027174.008793166
 20
109119.0453256225
 10
2027061.694496048
 20
108625.2187161725
 10
2027061.694496048
 20
108625.2187161724
 10
2026949.375058453
 20
108131.3921067221
 10
2026949.375058453
 20
108131.3921067221
 10
2026904.452423893
 20
107570.224581989
 10
2026904.452423893
 20
107570.224581989
 10
2026881.988536374
 20
106964.1653701649
 10
2026881.988536374
 20
106964.1653701649
 10
2026881.988536374
 20
106425.4448171929
 10
2026881.988536374
 20
106425.4448171929
 10
2026881.988536374
 20
105886.726520651
 10
2026881.988536374
 20
105886.726520651
 10
2026881.988536374
 20
105348.005967679
 10
2026881.988536374
 20
105348.005967679
 10
2026881.988536374
 20
104786.8406993766
 10
2026881.988536374
 20
104786.8406993766
 10
2026904.452423893
 20
104270.5671181656
 10
2026904.452423893
 20
104270.5671181656
 10
2026904.452423893
 20
103754.2935369546
 10
2026904.452423893
 20
103754.2935369546
 10
2026904.452423893
 20
103170.6812968911
 10
2026904.452423893
 20
103170.6812968911
 10
2026904.452423893
 20
102654.4077156801
 10
2026904.452423893
 20
102654.4077156801
 10
2026926.911170934
 20
102138.1341344686
 10
2026926.911170934
 20
102138.1341344686
 10
2026994.302833492
 20
101599.4135814966
 10
2026994.302833492
 20
101599.4135814966
 10
2027061.694496048
 20
101083.1400002856
 10
2027061.694496048
 20
101083.1400002855
 10
2027196.472680685
 20
100589.3156472664
 10
2027196.472680685
 20
100589.3156472664
 10
2027376.178640359
 20
100073.0420660549
 10
2027376.178640359
 20
100073.0420660549
 10
2027600.812375071
 20
99601.66242836598
 10
2027600.812375071
 20
99601.66242836598
 10
2028091.789680497
 20
99339.26211211269
  0
LINE
  5
D8
330
17
100
AcDbEntity
  8
结构梁问题
100
AcDbLine
 10
2028816.523896131
 20
101262.2464056303
 30
0.0
 11
2036540.442354955
 21
79401.7931985045
 31
0.0
  0
LINE
  5
D9
330
17
100
AcDbEntity
  8
结构梁问题
100
AcDbLine
 10
2036540.442354955
 20
79401.7931985045
 30
0.0
 11
2043767.666124748
 21
79401.7931985045
 31
0.0
  0
LINE
  5
DA
330
17
100
AcDbEntity
  8
dote
100
AcDbLine
 10
2003166.523942519
 20
135764.4134101052
 30
0.0
 11
2003166.523946233
 21
93663.54034172802
 31
0.0
  0
LINE
  5
DB
330
17
100
AcDbEntity
  8
dote
100
AcDbLine
 10
2011566.523942657
 20
135764.4134108405
 30
0.0
 11
2011566.523946137
 21
93663.54034271778
 31
0.0
  0
LINE
  5
DC
330
17
100
AcDbEntity
  8
dote
100
AcDbLine
 10
2019966.523942573
 20
135764.4134115757
 30
0.0
 11
2019966.5239461
 21
93663.54034370749
 31
0.0
  0
LINE
  5
DD
330
17
100
AcDbEntity
  8
dote
100
AcDbLine
 10
2028366.523942604
 20
135764.413412311
 30
0.0
 11
2028366.523946202
 21
93663.54034469715
 31
0.0
  0
LINE
  5
DE
330
17
100
AcDbEntity
  8
dote
100
AcDbLine
 10
2043266.52393182
 20
135764.4134136152
 30
0.0
 11
2043266.52393547
 21
93663.54034625646
 31
0.0
  0
LINE
  5
DF
330
17
100
AcDbEntity
  8
dote
100
AcDbLine
 10
2045566.523950783
 20
135764.4134139848
 30
0.0
 11
2045566.523954433
 21
93663.54034662608
 31
0.0
  0
LINE
  5
E0
330
17
100
AcDbEntity
  8
dote
100
AcDbLine
 10
2053079.895704889
 20
126387.2464131272
 30
0.0
 11
1988213.023939262
 21
126387.2463931366
 31
0.0
  0
LINE
  5
E1
330
17
100
AcDbEntity
  8
dote
100
AcDbLine
 10
2053079.895707448
 20
103087.2464041608
 30
0.0
 11
1988213.023941755
 21
103087.246384143
 31
0.0
  0
LINE
  5
E2
330
17
100
AcDbEntity
  8
dote
100
AcDbLine
 10
1996666.523942635
 20
135764.4134095363
 30
0.0
 11
1996666.523946258
 21
93663.54034073831
 31
0.0
  0
LINE
  5
E3
330
17
100
AcDbEntity
  8
dote
100
AcDbLine
 10
2053079.895706139
 20
110387.2464077834
 30
0.0
 11
1988213.023940478
 21
110387.2463877837
 31
0.0
  0
LINE
  5
E4
330
17
100
AcDbEntity
  8
dote
100
AcDbLine
 10
2053079.895706087
 20
118687.2463690348
 30
0.0
 11
1988213.023940426
 21
118687.2463490351
 31
0.0
  0
LINE
  5
E5
330
17
100
AcDbEntity
  8
AXIS
100
AcDbLine
 10
1996666.523942678
 20
135273.6845988652
 30
0.0
 11
1996666.523943347
 21
138364.4134117961
 31
0.0
  0
LINE
  5
E6
330
17
100
AcDbEntity
  8
AXIS
100
AcDbLine
 10
2003166.523942563
 20
135273.6845994583
 30
0.0
 11
2003166.523943232
 21
138364.4134123891
 31
0.0
  0
LINE
  5
E7
330
17
100
AcDbEntity
  8
AXIS
100
AcDbLine
 10
2011566.523942699
 20
135273.6846001182
 30
0.0
 11
2011566.523943367
 21
138364.413413049
 31
0.0
  0
LINE
  5
E8
330
17
100
AcDbEntity
  8
AXIS
100
AcDbLine
 10
2019966.523942615
 20
135273.684600859
 30
0.0
 11
2019966.523943283
 21
138364.4134137898
 31
0.0
  0
LINE
  5
E9
330
17
100
AcDbEntity
  8
AXIS
100
AcDbLine
 10
2028366.523942647
 20
135273.6846016391
 30
0.0
 11
2028366.523943315
 21
138364.4134145699
 31
0.0
  0
LINE
  5
EA
330
17
100
AcDbEntity
  8
AXIS
100
AcDbLine
 10
2036766.523942617
 20
135273.6846023744
 30
0.0
 11
2036766.523943286
 21
138364.4134153053
 31
0.0
  0
LINE
  5
EB
330
17
100
AcDbEntity
  8
AXIS
100
AcDbLine
 10
2043266.523931864
 20
135273.6846030052
 30
0.0
 11
2043266.523932533
 21
138364.4134159361
 31
0.0
  0
LINE
  5
EC
330
17
100
AcDbEntity
  8
dote
100
AcDbLine
 10
2036766.52393182
 20
135764.4134136152
 30
0.0
 11
2036766.52393547
 21
93663.54034625646
 31
0.0
  0
LINE
  5
ED
330
17
100
AcDbEntity
  8
AXIS
100
AcDbLine
 10
1996666.523942678
 20
95003.3081738922
 30
0.0
 11
1996666.523943347
 21
91208.97175967653
 31
0.0
  0
LINE
  5
EE
330
17
100
AcDbEntity
  8
AXIS
100
AcDbLine
 10
2003166.523942563
 20
95003.30817329919
 30
0.0
 11
2003166.523943232
 21
91208.9717590835
 31
0.0
  0
LINE
  5
EF
330
17
100
AcDbEntity
  8
AXIS
100
AcDbLine
 10
2011566.523942699
 20
95003.30817263928
 30
0.0
 11
2011566.523943367
 21
91208.9717584236
 31
0.0
  0
LINE
  5
F0
330
17
100
AcDbEntity
  8
AXIS
100
AcDbLine
 10
2019966.523942615
 20
95003.30817189848
 30
0.0
 11
2019966.523943283
 21
91208.9717576828
 31
0.0
  0
LINE
  5
F1
330
17
100
AcDbEntity
  8
AXIS
100
AcDbLine
 10
2028366.523942647
 20
95003.30817111838
 30
0.0
 11
2028366.523943315
 21
91208.9717569027
 31
0.0
  0
LINE
  5
F2
330
17
100
AcDbEntity
  8
AXIS
100
AcDbLine
 10
2036766.523942617
 20
95003.30817038304
 30
0.0
 11
2036766.523943286
 21
91208.97175616736
 31
0.0
  0
LINE
  5
F3
330
17
100
AcDbEntity
  8
AXIS
100
AcDbLine
 10
2043266.523931864
 20
95003.30816975224
 30
0.0
 11
2043266.523932533
 21
91208.97175553656
 31
0.0
  0
LINE
  5
F4
330
17
100
AcDbEntity
  8
AXIS
100
AcDbLine
 10
1989843.023942271
 20
126387.2463935441
 30
0.0
 11
1986011.934582807
 21
126387.2463942124
 31
0.0
  0
LINE
  5
F5
330
17
100
AcDbEntity
  8
AXIS
100
AcDbLine
 10
1989843.023941962
 20
118687.2463493481
 30
0.0
 11
1986011.934582498
 21
118687.2463500163
 31
0.0
  0
LINE
  5
F6
330
17
100
AcDbEntity
  8
AXIS
100
AcDbLine
 10
1989843.023945399
 20
110387.2463881872
 30
0.0
 11
1986011.934585935
 21
110387.2463888554
 31
0.0
  0
LINE
  5
F7
330
17
100
AcDbEntity
  8
AXIS
100
AcDbLine
 10
1989843.023941936
 20
103087.2463836673
 30
0.0
 11
1986011.934582472
 21
103087.2463843356
 31
0.0
  0
LINE
  5
F8
330
17
100
AcDbEntity
  8
AXIS
100
AcDbLine
 10
2050610.275137206
 20
126387.2464128895
 30
0.0
 11
2054559.113302865
 21
126387.2464062939
 31
0.0
  0
LINE
  5
F9
330
17
100
AcDbEntity
  8
AXIS
100
AcDbLine
 10
2050610.275136897
 20
118687.2463686271
 30
0.0
 11
2054559.113302556
 21
118687.2463620316
 31
0.0
  0
LINE
  5
FA
330
17
100
AcDbEntity
  8
AXIS
100
AcDbLine
 10
2050610.275133356
 20
110387.2464074724
 30
0.0
 11
2054559.113299015
 21
110387.2464008768
 31
0.0
  0
LINE
  5
FB
330
17
100
AcDbEntity
  8
AXIS
100
AcDbLine
 10
2050610.275136871
 20
103087.2463909311
 30
0.0
 11
2054559.11330253
 21
103087.2463843356
 31
0.0
  0
LINE
  5
FC
330
17
100
AcDbEntity
  8
dote
100
AcDbLine
 10
1993866.523940297
 20
135764.4134092099
 30
0.0
 11
1993866.523943919
 21
93663.54034041194
 31
0.0
  0
LINE
  5
FD
330
17
100
AcDbEntity
  8
dote
100
AcDbLine
 10
2053077.162870054
 20
129087.2464110738
 30
0.0
 11
1988210.291104427
 21
129087.2463910831
 31
0.0
  0
LINE
  5
FE
330
17
100
AcDbEntity
  8
dote
100
AcDbLine
 10
2053079.895707728
 20
99887.24645307095
 30
0.0
 11
1988213.023942035
 21
99887.24643305317
 31
0.0
  0
LINE
  5
FF
330
17
100
AcDbEntity
  8
dote
100
AcDbLine
 10
2051297.968554614
 20
114537.246386091
 30
0.0
 11
2033875.217360817
 21
114537.246376078
 31
0.0
  0
LINE
  5
100
330
17
100
AcDbEntity
  8
dote
100
AcDbLine
 10
2005712.717360817
 20
114537.2463693739
 30
0.0
 11
1989668.717360815
 21
114537.2463666385
 31
0.0
  0
LINE
  5
101
330
17
100
AcDbEntity
  8
dote
100
AcDbLine
 10
2015766.523951674
 20
120787.2463550314
 30
0.0
 11
2015766.523951674
 21
135418.1689317037
 31
0.0
  0
LINE
  5
102
330
17
100
AcDbEntity
  8
dote
100
AcDbLine
 10
2024166.523936044
 20
120787.2463557522
 30
0.0
 11
2024166.523933533
 21
135418.1689324245
 31
0.0
  0
LINE
  5
103
330
17
100
AcDbEntity
  8
dote
100
AcDbLine
 10
2015766.523951674
 20
108287.24640266
 30
0.0
 11
2015766.523951674
 21
94591.66893170367
 31
0.0
  0
LINE
  5
104
330
17
100
AcDbEntity
  8
dote
100
AcDbLine
 10
2024166.523936044
 20
108287.2464019392
 30
0.0
 11
2024166.523933935
 21
95061.66893170122
 31
0.0
  0
LINE
  5
105
330
17
100
AcDbEntity
  8
dote
100
AcDbLine
 10
2007366.523929228
 20
135267.381990822
 30
0.0
 11
2007366.52392928
 21
94591.66893100947
 31
0.0
  0
LINE
  5
106
330
17
100
AcDbEntity
  8
dote
100
AcDbLine
 10
2032566.523942604
 20
135764.413412311
 30
0.0
 11
2032566.523946117
 21
94662.16893170006
 31
0.0
  0
LWPOLYLINE
  5
107
330
17
100
AcDbEntity
  8
修改2016.03.17
100
AcDbPolyline
 90
6
 70
1
 10
2051579.102826018
 20
102373.4787404169
 10
2052579.102826018
 20
102373.4787404169
 10
2053110.131516373
 20
101904.5074307718
 10
2053110.131516373
 20
100904.5074307718
 10
2052239.490844005
 20
100775.1481031403
 10
2051579.102826018
 20
101114.7600851539
  0
LWPOLYLINE
  5
108
330
17
100
AcDbEntity
  8
修改2016.03.17
100
AcDbPolyline
 90
179
 70
1
 10
2042870.385728295
 20
132004.9390545911
 10
2043870.385728295
 20
132004.9390545911
 10
2044870.385728295
 20
132004.9390545911
 10
2045870.385728295
 20
132004.9390545911
 10
2046870.385728295
 20
132004.9390545911
 10
2047870.385728295
 20
132004.9390545911
 10
2048185.207287373
 20
131319.7606136692
 10
2048185.207287373
 20
130319.7606136692
 10
2048185.207287373
 20
129319.7606136692
 10
2048185.207287373
 20
128319.7606136692
 10
2048185.207287373
 20
127319.7606136692
 10
2048185.207287373
 20
126319.7606136692
 10
2048185.207287373
 20
125319.7606136692
 10
2048185.207287373
 20
124319.7606136692
 10
2048185.207287373
 20
123319.7606136692
 10
2048185.207287373
 20
122319.7606136692
 10
2048185.207287373
 20
121319.7606136692
 10
2048185.207287373
 20
120319.7606136692
 10
2048185.207287373
 20
119319.7606136692
 10
2048185.207287373
 20
118319.7606136692
 10
2048185.207287373
 20
117319.7606136692
 10
2048185.207287373
 20
116319.7606136692
 10
2048185.207287373
 20
115319.7606136692
 10
2048185.207287373
 20
114319.7606136692
 10
2048185.207287373
 20
113319.7606136692
 10
2048185.207287373
 20
112319.7606136692
 10
2048185.207287373
 20
111319.7606136692
 10
2048185.207287373
 20
110319.7606136692
 10
2048185.207287373
 20
109319.7606136692
 10
2048185.207287373
 20
108319.7606136692
 10
2048185.207287373
 20
107319.7606136692
 10
2048185.207287373
 20
106319.7606136692
 10
2048185.207287373
 20
105319.7606136692
 10
2048185.207287373
 20
104319.7606136692
 10
2048185.207287373
 20
103319.7606136692
 10
2048185.207287373
 20
102319.7606136692
 10
2048185.207287373
 20
101319.7606136692
 10
2048185.207287373
 20
100319.7606136692
 10
2048185.207287373
 20
99319.76061366916
 10
2048185.207287373
 20
98319.76061366916
 10
2047959.799402499
 20
97545.16849854263
 10
2046959.799402499
 20
97545.16849854263
 10
2045959.799402499
 20
97545.16849854263
 10
2044959.799402499
 20
97545.16849854263
 10
2043959.799402499
 20
97545.16849854263
 10
2042959.799402499
 20
97545.16849854263
 10
2041959.799402499
 20
97545.16849854263
 10
2040959.799402499
 20
97545.16849854263
 10
2039959.799402499
 20
97545.16849854263
 10
2038959.799402499
 20
97545.16849854263
 10
2037959.799402499
 20
97545.16849854263
 10
2036959.799402499
 20
97545.16849854263
 10
2035959.799402499
 20
97545.16849854263
 10
2034959.799402499
 20
97545.16849854263
 10
2033959.799402499
 20
97545.16849854263
 10
2032959.799402499
 20
97545.16849854263
 10
2031959.799402499
 20
97545.16849854263
 10
2030959.799402499
 20
97545.16849854263
 10
2029959.799402499
 20
97545.16849854263
 10
2028959.799402499
 20
97545.16849854263
 10
2027959.799402499
 20
97545.16849854263
 10
2026959.799402499
 20
97545.16849854263
 10
2025959.799402499
 20
97545.16849854263
 10
2024959.799402499
 20
97545.16849854263
 10
2023959.799402499
 20
97545.16849854263
 10
2022959.799402499
 20
97545.16849854263
 10
2021959.799402499
 20
97545.16849854263
 10
2020959.799402499
 20
97545.16849854263
 10
2019959.799402499
 20
97545.16849854263
 10
2018959.799402499
 20
97545.16849854263
 10
2017959.799402499
 20
97545.16849854263
 10
2016959.799402499
 20
97545.16849854263
 10
2015959.799402499
 20
97545.16849854263
 10
2014959.799402499
 20
97545.16849854263
 10
2013959.799402499
 20
97545.16849854263
 10
2012959.799402499
 20
97545.16849854263
 10
2011959.799402499
 20
97545.16849854263
 10
2010959.799402499
 20
97545.16849854263
 10
2009959.799402499
 20
97545.16849854263
 10
2008959.799402499
 20
97545.16849854263
 10
2007959.799402499
 20
97545.16849854263
 10
2006959.799402499
 20
97545.16849854263
 10
2005959.799402499
 20
97545.16849854263
 10
2004959.799402499
 20
97545.16849854263
 10
2003959.799402499
 20
97545.16849854263
 10
2002959.799402499
 20
97545.16849854263
 10
2001959.799402499
 20
97545.16849854263
 10
2000959.799402499
 20
97545.16849854263
 10
1999959.799402499
 20
97545.16849854263
 10
1998959.799402499
 20
97545.16849854263
 10
1997959.799402499
 20
97545.16849854263
 10
1996959.799402499
 20
97545.16849854263
 10
1995959.799402499
 20
97545.16849854263
 10
1994959.799402499
 20
97545.16849854263
 10
1993959.799402499
 20
97545.16849854263
 10
1992959.799402499
 20
97545.16849854263
 10
1992932.359933403
 20
98517.72902944636
 10
1992932.359933403
 20
99517.72902944636
 10
1992932.359933403
 20
100517.7290294464
 10
1992932.359933403
 20
101517.7290294464
 10
1993249.05220041
 20
102201.0367624392
 10
1994249.05220041
 20
102201.0367624392
 10
1995249.05220041
 20
102201.0367624392
 10
1996249.05220041
 20
102201.0367624392
 10
1997249.05220041
 20
102201.0367624392
 10
1998249.05220041
 20
102201.0367624392
 10
1999249.05220041
 20
102201.0367624392
 10
2000249.05220041
 20
102201.0367624392
 10
2001249.05220041
 20
102201.0367624392
 10
2002249.05220041
 20
102201.0367624392
 10
2003249.05220041
 20
102201.0367624392
 10
2004249.05220041
 20
102201.0367624392
 10
2005249.05220041
 20
102201.0367624392
 10
2006249.05220041
 20
102201.0367624392
 10
2007249.05220041
 20
102201.0367624392
 10
2008249.05220041
 20
102201.0367624392
 10
2009249.05220041
 20
102201.0367624392
 10
2010249.05220041
 20
102201.0367624392
 10
2011249.05220041
 20
102201.0367624392
 10
2012249.05220041
 20
102201.0367624392
 10
2013249.05220041
 20
102201.0367624392
 10
2014249.05220041
 20
102201.0367624392
 10
2015249.05220041
 20
102201.0367624392
 10
2016249.05220041
 20
102201.0367624392
 10
2017249.05220041
 20
102201.0367624392
 10
2018249.05220041
 20
102201.0367624392
 10
2019249.05220041
 20
102201.0367624392
 10
2020249.05220041
 20
102201.0367624392
 10
2021249.05220041
 20
102201.0367624392
 10
2022249.05220041
 20
102201.0367624392
 10
2023249.05220041
 20
102201.0367624392
 10
2024249.05220041
 20
102201.0367624392
 10
2025249.05220041
 20
102201.0367624392
 10
2026249.05220041
 20
102201.0367624392
 10
2027249.05220041
 20
102201.0367624392
 10
2028249.05220041
 20
102201.0367624392
 10
2029249.05220041
 20
102201.0367624392
 10
2030249.05220041
 20
102201.0367624392
 10
2031249.05220041
 20
102201.0367624392
 10
2032249.05220041
 20
102201.0367624392
 10
2033249.05220041
 20
102201.0367624392
 10
2034249.05220041
 20
102201.0367624392
 10
2035249.05220041
 20
102201.0367624392
 10
2036249.05220041
 20
102201.0367624392
 10
2037249.05220041
 20
102201.0367624392
 10
2038249.05220041
 20
102201.0367624392
 10
2039249.05220041
 20
102201.0367624392
 10
2040249.05220041
 20
102201.0367624392
 10
2041249.05220041
 20
102201.0367624392
 10
2042249.05220041
 20
102201.0367624392
 10
2042651.279810992
 20
102798.8091518576
 10
2042651.279810992
 20
103798.8091518576
 10
2042651.279810992
 20
104798.8091518576
 10
2042651.279810992
 20
105798.8091518576
 10
2042651.279810992
 20
106798.8091518576
 10
2042651.279810992
 20
107798.8091518576
 10
2042651.279810992
 20
108798.8091518576
 10
2042651.279810992
 20
109798.8091518576
 10
2042651.279810992
 20
110798.8091518576
 10
2042651.279810992
 20
111798.8091518576
 10
2042651.279810992
 20
112798.8091518576
 10
2042651.279810992
 20
113798.8091518576
 10
2042651.279810992
 20
114798.8091518576
 10
2042651.279810992
 20
115798.8091518576
 10
2042651.279810992
 20
116798.8091518576
 10
2042651.279810992
 20
117798.8091518576
 10
2042651.279810992
 20
118798.8091518576
 10
2042651.279810992
 20
119798.8091518576
 10
2042651.279810992
 20
120798.8091518576
 10
2042651.279810992
 20
121798.8091518576
 10
2042651.279810992
 20
122798.8091518576
 10
2042651.279810992
 20
123798.8091518576
 10
2042651.279810992
 20
124798.8091518576
 10
2042651.279810992
 20
125798.8091518576
 10
2042651.279810992
 20
126798.8091518576
 10
2042651.279810992
 20
127798.8091518576
 10
2042651.279810992
 20
128798.8091518576
 10
2042651.279810992
 20
129798.8091518576
 10
2042651.279810992
 20
130798.8091518576
  0
LWPOLYLINE
  5
109
330
17
100
AcDbEntity
  8
修改2016.03.17
100
AcDbPolyline
 90
11
 70
1
 10
2043667.75918827
 20
95391.3343322993
 10
2044667.75918827
 20
95391.3343322993
 10
2045667.75918827
 20
95391.3343322993
 10
2046667.75918827
 20
95391.3343322993
 10
2046772.348787069
 20
94495.92393109843
 10
2046772.348787069
 20
93495.92393109843
 10
2046434.280868991
 20
92833.991849176
 10
2045434.280868991
 20
92833.991849176
 10
2044434.280868991
 20
92833.991849176
 10
2043667.75918827
 20
93067.47016845446
 10
2043667.75918827
 20
94067.47016845446
  0
LWPOLYLINE
  5
10A
330
17
100
AcDbEntity
  8
修改2016.03.17
100
AcDbPolyline
 90
11
 70
1
 10
1986450.244654004
 20
102200.6650437707
 10
1987450.244654004
 20
102200.6650437707
 10
1988450.244654004
 20
102200.6650437707
 10
1989450.244654004
 20
102200.6650437707
 10
1989554.834252803
 20
101305.2546425698
 10
1989554.834252803
 20
100305.2546425698
 10
1989216.766334726
 20
99643.32256064739
 10
1988216.766334726
 20
99643.32256064739
 10
1987216.766334726
 20
99643.32256064739
 10
1986450.244654004
 20
99876.80087992584
 10
1986450.244654004
 20
100876.8008799258
  0
LWPOLYLINE
  5
10B
330
17
100
AcDbEntity
  8
修改2016.03.17
100
AcDbPolyline
 90
17
 70
1
 10
2042579.506644946
 20
137199.2559000738
 10
2043579.506644946
 20
137199.2559000738
 10
2044579.506644946
 20
137199.2559000738
 10
2045579.506644946
 20
137199.2559000738
 10
2046579.506644946
 20
137199.2559000738
 10
2047402.754384238
 20
137022.5036393665
 10
2047402.754384238
 20
136022.5036393665
 10
2047402.754384238
 20
135022.5036393665
 10
2047402.754384238
 20
134022.5036393665
 10
2046693.904522091
 20
133731.3535015138
 10
2045693.904522091
 20
133731.3535015138
 10
2044693.904522091
 20
133731.3535015138
 10
2043693.904522091
 20
133731.3535015138
 10
2042693.904522091
 20
133731.3535015138
 10
2042579.506644946
 20
134616.9556243685
 10
2042579.506644946
 20
135616.9556243685
 10
2042579.506644946
 20
136616.9556243685
  0
LWPOLYLINE
  5
10C
330
17
100
AcDbEntity
  8
修改2016.03.17
100
AcDbPolyline
 90
74
 70
1
 10
2005373.803790061
 20
109210.74101996
 10
2006373.803790061
 20
109210.74101996
 10
2007373.803790061
 20
109210.74101996
 10
2008373.803790061
 20
109210.74101996
 10
2009373.803790061
 20
109210.74101996
 10
2010373.803790061
 20
109210.74101996
 10
2011373.803790061
 20
109210.74101996
 10
2012373.803790061
 20
109210.74101996
 10
2013373.803790061
 20
109210.74101996
 10
2014373.803790061
 20
109210.74101996
 10
2015373.803790061
 20
109210.74101996
 10
2016373.803790061
 20
109210.74101996
 10
2017373.803790061
 20
109210.74101996
 10
2018373.803790061
 20
109210.74101996
 10
2019373.803790061
 20
109210.74101996
 10
2020373.803790061
 20
109210.74101996
 10
2021373.803790061
 20
109210.74101996
 10
2022373.803790061
 20
109210.74101996
 10
2023373.803790061
 20
109210.74101996
 10
2024373.803790061
 20
109210.74101996
 10
2025373.803790061
 20
109210.74101996
 10
2026373.803790061
 20
109210.74101996
 10
2027373.803790061
 20
109210.74101996
 10
2028373.803790061
 20
109210.74101996
 10
2029373.803790061
 20
109210.74101996
 10
2030373.803790061
 20
109210.74101996
 10
2031373.803790061
 20
109210.74101996
 10
2032373.803790061
 20
109210.74101996
 10
2033373.803790061
 20
109210.74101996
 10
2034373.803790061
 20
109210.74101996
 10
2035373.803790061
 20
109210.74101996
 10
2036373.803790061
 20
109210.74101996
 10
2037373.803790061
 20
109210.74101996
 10
2038373.803790061
 20
109210.74101996
 10
2039373.803790061
 20
109210.74101996
 10
2040078.638538344
 20
108915.5757682435
 10
2040078.638538344
 20
107915.5757682435
 10
2040078.638538344
 20
106915.5757682435
 10
2039168.958389209
 20
106825.2559173789
 10
2038168.958389209
 20
106825.2559173789
 10
2037168.958389209
 20
106825.2559173789
 10
2036168.958389209
 20
106825.2559173789
 10
2035168.958389209
 20
106825.2559173789
 10
2034168.958389209
 20
106825.2559173789
 10
2033168.958389209
 20
106825.2559173789
 10
2032168.958389209
 20
106825.2559173789
 10
2031168.958389209
 20
106825.2559173789
 10
2030168.958389209
 20
106825.2559173789
 10
2029168.958389209
 20
106825.2559173789
 10
2028168.958389209
 20
106825.2559173789
 10
2027168.958389209
 20
106825.2559173789
 10
2026168.958389209
 20
106825.2559173789
 10
2025168.958389209
 20
106825.2559173789
 10
2024168.958389209
 20
106825.2559173789
 10
2023168.958389209
 20
106825.2559173789
 10
2022168.958389209
 20
106825.2559173789
 10
2021168.958389209
 20
106825.2559173789
 10
2020168.958389209
 20
106825.2559173789
 10
2019168.958389209
 20
106825.2559173789
 10
2018168.958389209
 20
106825.2559173789
 10
2017168.958389209
 20
106825.2559173789
 10
2016168.958389209
 20
106825.2559173789
 10
2015168.958389209
 20
106825.2559173789
 10
2014168.958389209
 20
106825.2559173789
 10
2013168.958389209
 20
106825.2559173789
 10
2012168.958389209
 20
106825.2559173789
 10
2011168.958389209
 20
106825.2559173789
 10
2010168.958389209
 20
106825.2559173789
 10
2009168.958389209
 20
106825.2559173789
 10
2008168.958389209
 20
106825.2559173789
 10
2007168.958389209
 20
106825.2559173789
 10
2006168.958389209
 20
106825.2559173789
 10
2005373.803790061
 20
107030.1013182308
 10
2005373.803790061
 20
108030.1013182308
  0
LWPOLYLINE
  5
10D
330
17
100
AcDbEntity
  8
修改2016.03.17
100
AcDbPolyline
 90
24
 70
1
 10
2033819.964662584
 20
119179.7114063692
 10
2034819.964662584
 20
119179.7114063692
 10
2035819.964662584
 20
119179.7114063692
 10
2036318.379086286
 20
118678.1258300715
 10
2036318.379086286
 20
117678.1258300715
 10
2036318.379086286
 20
116678.1258300715
 10
2036318.379086286
 20
115678.1258300715
 10
2036318.379086286
 20
114678.1258300715
 10
2036318.379086286
 20
113678.1258300715
 10
2036318.379086286
 20
112678.1258300715
 10
2036318.379086286
 20
111678.1258300715
 10
2036318.379086286
 20
110678.1258300715
 10
2036279.729706937
 20
109716.7752094204
 10
2035279.729706937
 20
109716.7752094204
 10
2034279.729706937
 20
109716.7752094204
 10
2033819.964662584
 20
110257.0101650669
 10
2033819.964662584
 20
111257.0101650669
 10
2033819.964662584
 20
112257.0101650669
 10
2033819.964662584
 20
113257.0101650669
 10
2033819.964662584
 20
114257.0101650669
 10
2033819.964662584
 20
115257.0101650669
 10
2033819.964662584
 20
116257.0101650669
 10
2033819.964662584
 20
117257.0101650669
 10
2033819.964662584
 20
118257.0101650669
  0
LWPOLYLINE
  5
10E
330
17
100
AcDbEntity
  8
修改2016.03.17
100
AcDbPolyline
 90
79
 70
1
 10
1999618.039295887
 20
122304.0207187128
 10
2000618.039295887
 20
122304.0207187128
 10
2001618.039295887
 20
122304.0207187128
 10
2002618.039295887
 20
122304.0207187128
 10
2003618.039295887
 20
122304.0207187128
 10
2004618.039295887
 20
122304.0207187128
 10
2005618.039295887
 20
122304.0207187128
 10
2006618.039295887
 20
122304.0207187128
 10
2007618.039295887
 20
122304.0207187128
 10
2008618.039295887
 20
122304.0207187128
 10
2009618.039295887
 20
122304.0207187128
 10
2010618.039295887
 20
122304.0207187128
 10
2011618.039295887
 20
122304.0207187128
 10
2012618.039295887
 20
122304.0207187128
 10
2013618.039295887
 20
122304.0207187128
 10
2014618.039295887
 20
122304.0207187128
 10
2015618.039295887
 20
122304.0207187128
 10
2016618.039295887
 20
122304.0207187128
 10
2017618.039295887
 20
122304.0207187128
 10
2018618.039295887
 20
122304.0207187128
 10
2019618.039295887
 20
122304.0207187128
 10
2020618.039295887
 20
122304.0207187128
 10
2021618.039295887
 20
122304.0207187128
 10
2022618.039295887
 20
122304.0207187128
 10
2023618.039295887
 20
122304.0207187128
 10
2024618.039295887
 20
122304.0207187128
 10
2025618.039295887
 20
122304.0207187128
 10
2026618.039295887
 20
122304.0207187128
 10
2027618.039295887
 20
122304.0207187128
 10
2028618.039295887
 20
122304.0207187128
 10
2029618.039295887
 20
122304.0207187128
 10
2030618.039295887
 20
122304.0207187128
 10
2031618.039295887
 20
122304.0207187128
 10
2032618.039295887
 20
122304.0207187128
 10
2033618.039295887
 20
122304.0207187128
 10
2034618.039295887
 20
122304.0207187128
 10
2035618.039295887
 20
122304.0207187128
 10
2036618.039295887
 20
122304.0207187128
 10
2037521.325084017
 20
122207.3065068431
 10
2037521.325084017
 20
121207.3065068431
 10
2037196.036185415
 20
120532.5954054445
 10
2036196.036185415
 20
120532.5954054445
 10
2035196.036185415
 20
120532.5954054445
 10
2034196.036185415
 20
120532.5954054445
 10
2033196.036185415
 20
120532.5954054445
 10
2032196.036185415
 20
120532.5954054445
 10
2031196.036185415
 20
120532.5954054445
 10
2030196.036185415
 20
120532.5954054445
 10
2029196.036185415
 20
120532.5954054445
 10
2028196.036185415
 20
120532.5954054445
 10
2027196.036185415
 20
120532.5954054445
 10
2026196.036185415
 20
120532.5954054445
 10
2025196.036185415
 20
120532.5954054445
 10
2024196.036185415
 20
120532.5954054445
 10
2023196.036185415
 20
120532.5954054445
 10
2022196.036185415
 20
120532.5954054445
 10
2021196.036185415
 20
120532.5954054445
 10
2020196.036185415
 20
120532.5954054445
 10
2019196.036185415
 20
120532.5954054445
 10
2018196.036185415
 20
120532.5954054445
 10
2017196.036185415
 20
120532.5954054445
 10
2016196.036185415
 20
120532.5954054445
 10
2015196.036185415
 20
120532.5954054445
 10
2014196.036185415
 20
120532.5954054445
 10
2013196.036185415
 20
120532.5954054445
 10
2012196.036185415
 20
120532.5954054445
 10
2011196.036185415
 20
120532.5954054445
 10
2010196.036185415
 20
120532.5954054445
 10
2009196.036185415
 20
120532.5954054445
 10
2008196.036185415
 20
120532.5954054445
 10
2007196.036185415
 20
120532.5954054445
 10
2006196.036185415
 20
120532.5954054445
 10
2005196.036185415
 20
120532.5954054445
 10
2004196.036185415
 20
120532.5954054445
 10
2003196.036185415
 20
120532.5954054445
 10
2002196.036185415
 20
120532.5954054445
 10
2001196.036185415
 20
120532.5954054445
 10
2000196.036185415
 20
120532.5954054445
 10
1999618.039295887
 20
120954.5985159157
  0
LWPOLYLINE
  5
10F
330
17
100
AcDbEntity
  8
修改2016.03.17
100
AcDbPolyline
 90
6
 70
1
 10
2038991.62933245
 20
125105.0498404969
 10
2039991.62933245
 20
125105.0498404969
 10
2040991.62933245
 20
125105.0498404969
 10
2041246.55840865
 20
124489.8811453888
 10
2040246.55840865
 20
124489.8811453888
 10
2039246.55840865
 20
124489.8811453888
  0
LWPOLYLINE
  5
110
330
17
100
AcDbEntity
  8
修改2016.03.17
100
AcDbPolyline
 90
6
 70
1
 10
2040211.146197257
 20
106116.983181132
 10
2041211.146197257
 20
106116.983181132
 10
2042211.146197257
 20
106116.983181132
 10
2042586.117554485
 20
105491.9545383607
 10
2041732.9321101
 20
105345.1399827455
 10
2040732.9321101
 20
105345.1399827455
  0
LWPOLYLINE
  5
111
330
17
100
AcDbEntity
  8
修改2016.03.17
100
AcDbPolyline
 90
7
 70
1
 10
1998766.79723699
 20
106367.9981729123
 10
1999766.79723699
 20
106367.9981729123
 10
2000766.79723699
 20
106367.9981729123
 10
2001279.962567174
 20
105881.1635030969
 10
2000587.214527455
 20
105573.9115428166
 10
1999587.214527455
 20
105573.9115428166
 10
1998766.79723699
 20
105753.4942523516
  0
LWPOLYLINE
  5
112
330
17
100
AcDbEntity
  8
修改2016.03.17
100
AcDbPolyline
 90
7
 70
1
 10
1997500.237348341
 20
124972.204535394
 10
1998500.237348341
 20
124972.204535394
 10
1999500.237348341
 20
124972.204535394
 10
2000013.402678526
 20
124485.3698655786
 10
1999320.654638806
 20
124178.1179052983
 10
1998320.654638806
 20
124178.1179052983
 10
1997500.237348341
 20
124357.7006148333
  0
LINE
  5
113
330
17
100
AcDbEntity
  8
修改2016.03.17
100
AcDbLine
 10
2001158.152847117
 20
109281.0650691379
 30
0.0
 11
2002911.366065811
 21
111412.0694156301
 31
0.0
  0
LWPOLYLINE
  5
114
330
17
100
AcDbEntity
  8
修改2016.03.17
100
AcDbPolyline
 90
19
 70
1
 10
1994071.929936708
 20
109280.124196841
 10
1995071.929936708
 20
109280.124196841
 10
1996071.929936708
 20
109280.124196841
 10
1997071.929936708
 20
109280.124196841
 10
1998071.929936708
 20
109280.124196841
 10
1999071.929936708
 20
109280.124196841
 10
2000071.929936708
 20
109280.124196841
 10
2001071.929936708
 20
109280.124196841
 10
2001540.003129354
 20
108748.1973894877
 10
2001540.003129354
 20
107748.1973894877
 10
2000957.523831345
 20
107330.6766874968
 10
1999957.523831345
 20
107330.6766874968
 10
1998957.523831345
 20
107330.6766874968
 10
1997957.523831345
 20
107330.6766874968
 10
1996957.523831345
 20
107330.6766874968
 10
1995957.523831345
 20
107330.6766874968
 10
1994957.523831345
 20
107330.6766874968
 10
1994071.929936708
 20
107445.0827928592
 10
1994071.929936708
 20
108445.0827928592
  0
LWPOLYLINE
  5
115
330
17
100
AcDbEntity
  8
修改2016.03.17
100
AcDbPolyline
 90
25
 70
1
 10
2003216.998387094
 20
119498.4787829286
 10
2004216.998387094
 20
119498.4787829286
 10
2005216.998387094
 20
119498.4787829286
 10
2005840.64293034
 20
119122.1233261739
 10
2005840.64293034
 20
118122.1233261739
 10
2005840.64293034
 20
117122.1233261739
 10
2005840.64293034
 20
116122.1233261739
 10
2005840.64293034
 20
115122.1233261739
 10
2005840.64293034
 20
114122.1233261739
 10
2005840.64293034
 20
113122.1233261739
 10
2005840.64293034
 20
112122.1233261738
 10
2005840.64293034
 20
111122.1233261738
 10
2005840.64293034
 20
110122.1233261738
 10
2005164.906190025
 20
109797.8600664889
 10
2004164.906190025
 20
109797.8600664889
 10
2003216.998387094
 20
109849.9522635588
 10
2003216.998387094
 20
110849.9522635588
 10
2003216.998387094
 20
111849.9522635588
 10
2003216.998387094
 20
112849.9522635588
 10
2003216.998387094
 20
113849.9522635588
 10
2003216.998387094
 20
114849.9522635588
 10
2003216.998387094
 20
115849.9522635588
 10
2003216.998387094
 20
116849.9522635588
 10
2003216.998387094
 20
117849.9522635588
 10
2003216.998387094
 20
118849.9522635588
  0
LWPOLYLINE
  5
116
330
17
100
AcDbEntity
  8
第二次修改
100
AcDbPolyline
 90
16
 70
1
 10
2001371.839392903
 20
111014.1834034794
 10
2002371.839392903
 20
111014.1834034794
 10
2003371.839392903
 20
111014.1834034794
 10
2004371.839392903
 20
111014.1834034794
 10
2005295.344077572
 20
110937.6880881481
 10
2005295.344077572
 20
109937.6880881481
 10
2005295.344077572
 20
108937.6880881481
 10
2005295.344077572
 20
107937.6880881481
 10
2005087.563961413
 20
107145.4682043072
 10
2004087.563961413
 20
107145.4682043072
 10
2003087.563961413
 20
107145.4682043072
 10
2002087.563961413
 20
107145.4682043072
 10
2001371.839392903
 20
107429.7436357975
 10
2001371.839392903
 20
108429.7436357975
 10
2001371.839392903
 20
109429.7436357975
 10
2001371.839392903
 20
110429.7436357975
  0
LWPOLYLINE
  5
117
330
17
100
AcDbEntity
  8
第二次修改
100
AcDbPolyline
 90
18
 70
1
 10
2022061.883891587
 20
117971.7646232851
 10
2023061.883891587
 20
117971.7646232851
 10
2023910.097869397
 20
117819.9786010946
 10
2023910.097869397
 20
116819.9786010946
 10
2023910.097869397
 20
115819.9786010946
 10
2023910.097869397
 20
114819.9786010946
 10
2023910.097869397
 20
113819.9786010946
 10
2023910.097869397
 20
112819.9786010946
 10
2023910.097869397
 20
111819.9786010946
 10
2023910.097869397
 20
110819.9786010946
 10
2023065.450708523
 20
110664.6257619688
 10
2022065.450708523
 20
110664.6257619688
 10
2022061.883891587
 20
111661.0589450335
 10
2022061.883891587
 20
112661.0589450335
 10
2022061.883891587
 20
113661.0589450335
 10
2022061.883891587
 20
114661.0589450335
 10
2022061.883891587
 20
115661.0589450335
 10
2022061.883891587
 20
116661.0589450335
  0
LWPOLYLINE
  5
118
330
17
100
AcDbEntity
  8
第二次修改
100
AcDbPolyline
 90
7
 70
1
 10
2026171.301561612
 20
118587.2463714569
 10
2027171.301561612
 20
118587.2463714569
 10
2028171.301561612
 20
118587.2463714569
 10
2028559.366002615
 20
117975.3108124601
 10
2027834.356300435
 20
117700.3205146401
 10
2026834.356300435
 20
117700.3205146401
 10
2026171.301561612
 20
118037.265775817
  0
LWPOLYLINE
  5
119
330
17
100
AcDbEntity
  8
第二次修改
100
AcDbPolyline
 90
10
 70
1
 10
2039167.43893087
 20
121427.9337816861
 10
2038167.43893087
 20
121427.9337816861
 10
2037167.43893087
 20
121427.9337816861
 10
2036996.636103706
 20
120598.7366088501
 10
2036996.636103706
 20
119598.7366088501
 10
2037085.145888712
 20
118687.2463938568
 10
2038085.145888712
 20
118687.2463938568
 10
2039085.145888712
 20
118687.2463938568
 10
2039167.43893087
 20
119604.9533516993
 10
2039167.43893087
 20
120604.9533516993
  0
LWPOLYLINE
  5
11A
330
17
100
AcDbEntity
  8
第二次修改
100
AcDbPolyline
 90
7
 70
0
 10
2010071.674256282
 20
104997.9955004635
 10
2010071.674256282
 20
103997.9955004635
 10
2010071.674256282
 20
102997.9955004635
 10
2009225.929878419
 20
102843.7398783267
 10
2008989.698493851
 20
103607.5084937583
 10
2008989.698493851
 20
104607.5084937583
 10
2008705.192700263
 20
104967.767025894
  0
LWPOLYLINE
  5
11B
330
17
100
AcDbEntity
  8
第二次修改
100
AcDbPolyline
 90
10
 70
0
 10
2008705.192700263
 20
104967.767025894
 10
2008377.928709876
 20
105250.0924521731
 10
2008377.928709876
 20
106084.6342782797
 10
2009377.928709876
 20
106084.6342782797
 10
2010377.928709876
 20
106084.6342782797
 10
2011377.928709876
 20
106084.6342782797
 10
2011810.797398096
 20
105517.5029664999
 10
2011228.068311149
 20
105100.2320534466
 10
2010228.068311149
 20
105100.2320534466
 10
2010106.679691739
 20
104971.5602264072
  0
LWPOLYLINE
  5
11C
330
17
100
AcDbEntity
  8
第二次修改
100
AcDbPolyline
 90
11
 70
1
 10
2061570.57837328
 20
94731.88261438021
 10
2062070.57837328
 20
94731.88261438021
 10
2062570.57837328
 20
94731.88261438021
 10
2063070.57837328
 20
94731.88261438021
 10
2063462.567590632
 20
94623.8718317314
 10
2063462.567590632
 20
94123.8718317314
 10
2063131.350886238
 20
93955.08853612514
 10
2062631.350886238
 20
93955.08853612514
 10
2062131.350886238
 20
93955.08853612514
 10
2061631.350886238
 20
93955.08853612514
 10
2061570.57837328
 20
94394.31602316767
  0
LWPOLYLINE
  5
11D
330
17
100
AcDbEntity
  8
第二次修改
100
AcDbPolyline
 90
7
 70
1
 10
2052633.499997316
 20
115445.7559069509
 10
2053633.499997316
 20
115445.7559069509
 10
2053873.499997316
 20
114685.7559069509
 10
2053873.499997316
 20
113685.7559069509
 10
2053187.499997316
 20
113371.7559069509
 10
2052633.499997316
 20
113817.7559069509
 10
2052633.499997316
 20
114817.7559069509
  0
LWPOLYLINE
  5
11E
330
17
100
AcDbEntity
  8
第二次修改
100
AcDbPolyline
 90
7
 70
1
 10
1986649.477158855
 20
115445.7558936292
 10
1987649.477158855
 20
115445.7558936292
 10
1987889.477158855
 20
114685.7558936292
 10
1987889.477158855
 20
113685.7558936292
 10
1987203.477158855
 20
113371.7558936292
 10
1986649.477158855
 20
113817.7558936292
 10
1986649.477158855
 20
114817.7558936292
  0
LWPOLYLINE
  5
11F
330
17
100
AcDbEntity
  8
第二次修改
100
AcDbPolyline
 90
6
 70
1
 10
2018582.499997316
 20
136984.7559069509
 10
2019582.499997316
 20
136984.7559069509
 10
2020582.499997316
 20
136984.7559069509
 10
2020421.526242524
 20
136229.8939993979
 10
2019421.526242524
 20
136229.8939993979
 10
2018582.499997316
 20
136390.86775419
  0
LWPOLYLINE
  5
120
330
17
100
AcDbEntity
  8
第二次修改
100
AcDbPolyline
 90
6
 70
1
 10
2018582.499997294
 20
93198.4607356
 10
2019582.499997294
 20
93198.4607356
 10
2020582.499997294
 20
93198.4607356
 10
2020421.526242502
 20
92443.59882804708
 10
2019421.526242502
 20
92443.59882804708
 10
2018582.499997294
 20
92604.57258283909
  0
LWPOLYLINE
  5
121
330
17
100
AcDbEntity
  8
第二次修改
100
AcDbPolyline
 90
17
 70
1
 10
2013022.048447492
 20
113294.6974152493
 10
2014022.048447492
 20
113294.6974152493
 10
2015022.048447492
 20
113294.6974152493
 10
2016022.048447492
 20
113294.6974152493
 10
2017022.048447492
 20
113294.6974152493
 10
2017977.476266334
 20
113250.1252340913
 10
2017977.476266334
 20
112250.1252340913
 10
2017977.476266334
 20
111250.1252340913
 10
2017977.476266334
 20
110250.1252340913
 10
2017528.34559171
 20
109699.2559087154
 10
2016528.34559171
 20
109699.2559087154
 10
2015528.34559171
 20
109699.2559087154
 10
2014528.34559171
 20
109699.2559087154
 10
2013528.34559171
 20
109699.2559087154
 10
2013022.048447492
 20
110192.9587644975
 10
2013022.048447492
 20
111192.9587644975
 10
2013022.048447492
 20
112192.9587644975
  0
ENDSEC
  0
SECTION
  2
OBJECTS
  0
DICTIONARY
  5
A
330
0
100
AcDbDictionary
281
1
  3
ACAD_COLOR
350
B
  3
ACAD_GROUP
350
C
  3
ACAD_LAYOUT
350
D
  3
ACAD_MATERIAL
350
E
  3
ACAD_MLEADERSTYLE
350
F
  3
ACAD_MLINESTYLE
350
10
  3
ACAD_PLOTSETTINGS
350
11
  3
ACAD_PLOTSTYLENAME
350
12
  3
ACAD_SCALELIST
350
14
  3
ACAD_TABLESTYLE
350
15
  3
ACAD_VISUALSTYLE
350
16
  3
EZDXF_META
350
2D
  0
DICTIONARY
  5
B
330
A
100
AcDbDictionary
281
1
  0
DICTIONARY
  5
C
330
A
100
AcDbDictionary
281
1
  0
DICTIONARY
  5
D
330
A
100
AcDbDictionary
281
1
  3
Model
350
1A
  3
Layout1
350
1E
  0
DICTIONARY
  5
E
330
A
100
AcDbDictionary
281
1
  3
ByBlock
350
1F
  3
ByLayer
350
20
  3
Global
350
21
  0
DICTIONARY
  5
F
330
A
100
AcDbDictionary
281
1
  3
Standard
350
2C
  0
DICTIONARY
  5
10
330
A
100
AcDbDictionary
281
1
  3
Standard
350
22
  0
DICTIONARY
  5
11
330
A
100
AcDbDictionary
281
1
  0
ACDBDICTIONARYWDFLT
  5
12
330
A
100
AcDbDictionary
281
1
  3
Normal
350
13
100
AcDbDictionaryWithDefault
340
13
  0
ACDBPLACEHOLDER
  5
13
330
12
  0
DICTIONARY
  5
14
330
A
100
AcDbDictionary
281
1
  0
DICTIONARY
  5
15
330
A
100
AcDbDictionary
281
1
  0
DICTIONARY
  5
16
330
A
100
AcDbDictionary
281
1
  0
LAYOUT
  5
1A
330
D
100
AcDbPlotSettings
  1

  4
A3
  6

 40
7.5
 41
20.0
 42
7.5
 43
20.0
 44
420.0
 45
297.0
 46
0.0
 47
0.0
 48
0.0
 49
0.0
140
0.0
141
0.0
142
1.0
143
1.0
 70
1024
 72
1
 73
0
 74
5
  7

 75
16
 76
0
 77
2
 78
300
147
1.0
148
0.0
149
0.0
100
AcDbLayout
  1
Model
 70
1
 71
0
 10
0.0
 20
0.0
 11
420.0
 21
297.0
 12
0.0
 22
0.0
 32
0.0
 14
1e+20
 24
1e+20
 34
1e+20
 15
-1e+20
 25
-1e+20
 35
-1e+20
146
0.0
 13
0.0
 23
0.0
 33
0.0
 16
1.0
 26
0.0
 36
0.0
 17
0.0
 27
1.0
 37
0.0
 76
1
330
17
  0
LAYOUT
  5
1E
330
D
100
AcDbPlotSettings
  1

  4
A3
  6

 40
7.5
 41
20.0
 42
7.5
 43
20.0
 44
420.0
 45
297.0
 46
0.0
 47
0.0
 48
0.0
 49
0.0
140
0.0
141
0.0
142
1.0
143
1.0
 70
0
 72
1
 73
0
 74
5
  7

 75
16
 76
0
 77
2
 78
300
147
1.0
148
0.0
149
0.0
100
AcDbLayout
  1
Layout1
 70
1
 71
1
 10
0.0
 20
0.0
 11
420.0
 21
297.0
 12
0.0
 22
0.0
 32
0.0
 14
1e+20
 24
1e+20
 34
1e+20
 15
-1e+20
 25
-1e+20
 35
-1e+20
146
0.0
 13
0.0
 23
0.0
 33
0.0
 16
1.0
 26
0.0
 36
0.0
 17
0.0
 27
1.0
 37
0.0
 76
1
330
1B
  0
MATERIAL
  5
1F
102
{ACAD_REACTORS
330
E
102
}
330
E
100
AcDbMaterial
  1
ByBlock
  2

 70
0
 40
1.0
 71
1
 41
1.0
 91
-1023410177
 42
1.0
 72
1
  3

 73
1
 74
1
 75
1
 44
0.5
 73
0
 45
1.0
 46
1.0
 77
1
  4

 78
1
 79
1
170
1
 48
1.0
171
1
  6

172
1
173
1
174
1
140
1.0
141
1.0
175
1
  7

176
1
177
1
178
1
143
1.0
179
1
  8

270
1
271
1
272
1
145
1.0
146
1.0
273
1
  9

274
1
275
1
276
1
 42
1.0
 72
1
  3

 73
1
 74
1
 75
1
 94
63
  0
MATERIAL
  5
20
102
{ACAD_REACTORS
330
E
102
}
330
E
100
AcDbMaterial
  1
ByLayer
  2

 70
0
 40
1.0
 71
1
 41
1.0
 91
-1023410177
 42
1.0
 72
1
  3

 73
1
 74
1
 75
1
 44
0.5
 73
0
 45
1.0
 46
1.0
 77
1
  4

 78
1
 79
1
170
1
 48
1.0
171
1
  6

172
1
173
1
174
1
140
1.0
141
1.0
175
1
  7

176
1
177
1
178
1
143
1.0
179
1
  8

270
1
271
1
272
1
145
1.0
146
1.0
273
1
  9

274
1
275
1
276
1
 42
1.0
 72
1
  3

 73
1
 74
1
 75
1
 94
63
  0
MATERIAL
  5
21
102
{ACAD_REACTORS
330
E
102
}
330
E
100
AcDbMaterial
  1
Global
  2

 70
0
 40
1.0
 71
1
 41
1.0
 91
-1023410177
 42
1.0
 72
1
  3

 73
1
 74
1
 75
1
 44
0.5
 73
0
 45
1.0
 46
1.0
 77
1
  4

 78
1
 79
1
170
1
 48
1.0
171
1
  6

172
1
173
1
174
1
140
1.0
141
1.0
175
1
  7

176
1
177
1
178
1
143
1.0
179
1
  8

270
1
271
1
272
1
145
1.0
146
1.0
273
1
  9

274
1
275
1
276
1
 42
1.0
 72
1
  3

 73
1
 74
1
 75
1
 94
63
  0
MLINESTYLE
  5
22
102
{ACAD_REACTORS
330
10
102
}
330
10
100
AcDbMlineStyle
  2
Standard
 70
0
  3

 62
256
 51
90.0
 52
90.0
 71
2
 49
0.5
 62
256
  6
BYLAYER
 49
-0.5
 62
256
  6
BYLAYER
  0
MLEADERSTYLE
  5
2C
102
{ACAD_REACTORS
330
F
102
}
330
F
100
AcDbMLeaderStyle
179
2
170
2
171
1
172
0
 90
2
 40
0.0
 41
0.0
173
1
 91
-1056964608
 92
-2
290
1
 42
2.0
291
1
 43
8.0
  3
Standard
 44
4.0
300

342
29
174
1
175
1
176
0
178
1
 93
-1056964608
 45
4.0
292
0
297
0
 46
4.0
 94
-1056964608
 47
1.0
 49
1.0
140
1.0
294
1
141
0.0
177
0
142
1.0
295
0
296
0
143
3.75
271
0
272
9
273
9
  0
DICTIONARY
  5
2D
330
A
100
AcDbDictionary
280
1
281
1
  3
CREATED_BY_EZDXF
350
2E
  3
WRITTEN_BY_EZDXF
350
124
  0
DICTIONARYVAR
  5
2E
330
2D
100
DictionaryVariables
280
0
  1
1.4.2 @ 2026-05-04T05:02:32.851745+00:00
  0
DICTIONARYVAR
  5
124
330
2D
100
DictionaryVariables
280
0
  1
1.4.2 @ 2026-05-04T05:02:32.889901+00:00
  0
ENDSEC
  0
EOF
