  0
SECTION
  2
HEADER
  9
$ACADVER
  1
AC1024
  9
$ACADMAINTVER
 70
6
  9
$DWGCODEPAGE
  3
ANSI_1252
  9
$LASTSAVEDBY
  1
ezdxf
  9
$INSBASE
 10
0.0
 20
0.0
 30
0.0
  9
$EXTMIN
 10
1e+20
 20
1e+20
 30
1e+20
  9
$EXTMAX
 10
-1e+20
 20
-1e+20
 30
-1e+20
  9
$LIMMIN
 10
0.0
 20
0.0
  9
$LIMMAX
 10
420.0
 20
297.0
  9
$ORTHOMODE
 70
0
  9
$REGENMODE
 70
1
  9
$FILLMODE
 70
1
  9
$QTEXTMODE
 70
0
  9
$MIRRTEXT
 70
1
  9
$LTSCALE
 40
1.0
  9
$ATTMODE
 70
1
  9
$TEXTSIZE
 40
2.5
  9
$TRACEWID
 40
1.0
  9
$TEXTSTYLE
  7
Standard
  9
$CLAYER
  8
0
  9
$CELTYPE
  6
ByLayer
  9
$CECOLOR
 62
256
  9
$CELTSCALE
 40
1.0
  9
$DISPSILH
 70
0
  9
$DIMSCALE
 40
1.0
  9
$DIMASZ
 40
2.5
  9
$DIMEXO
 40
0.625
  9
$DIMDLI
 40
3.75
  9
$DIMRND
 40
0.0
  9
$DIMDLE
 40
0.0
  9
$DIMEXE
 40
1.25
  9
$DIMTP
 40
0.0
  9
$DIMTM
 40
0.0
  9
$DIMTXT
 40
2.5
  9
$DIMCEN
 40
2.5
  9
$DIMTSZ
 40
0.0
  9
$DIMTOL
 70
0
  9
$DIMLIM
 70
0
  9
$DIMTIH
 70
0
  9
$DIMTOH
 70
0
  9
$DIMSE1
 70
0
  9
$DIMSE2
 70
0
  9
$DIMTAD
 70
1
  9
$DIMZIN
 70
8
  9
$DIMBLK
  1

  9
$DIMASO
 70
1
  9
$DIMSHO
 70
1
  9
$DIMPOST
  1

  9
$DIMAPOST
  1

  9
$DIMALT
 70
0
  9
$DIMALTD
 70
3
  9
$DIMALTF
 40
0.03937007874
  9
$DIMLFAC
 40
1.0
  9
$DIMTOFL
 70
1
  9
$DIMTVP
 40
0.0
  9
$DIMTIX
 70
0
  9
$DIMSOXD
 70
0
  9
$DIMSAH
 70
0
  9
$DIMBLK1
  1

  9
$DIMBLK2
  1

  9
$DIMSTYLE
  2
ISO-25
  9
$DIMCLRD
 70
0
  9
$DIMCLRE
 70
0
  9
$DIMCLRT
 70
0
  9
$DIMTFAC
 40
1.0
  9
$DIMGAP
 40
0.625
  9
$DIMJUST
 70
0
  9
$DIMSD1
 70
0
  9
$DIMSD2
 70
0
  9
$DIMTOLJ
 70
0
  9
$DIMTZIN
 70
8
  9
$DIMALTZ
 70
0
  9
$DIMALTTZ
 70
0
  9
$DIMUPT
 70
0
  9
$DIMDEC
 70
2
  9
$DIMTDEC
 70
2
  9
$DIMALTU
 70
2
  9
$DIMALTTD
 70
3
  9
$DIMTXSTY
  7
Standard
  9
$DIMAUNIT
 70
0
  9
$DIMADEC
 70
0
  9
$DIMALTRND
 40
0.0
  9
$DIMAZIN
 70
0
  9
$DIMDSEP
 70
44
  9
$DIMATFIT
 70
3
  9
$DIMFRAC
 70
0
  9
$DIMLDRBLK
  1

  9
$DIMLUNIT
 70
2
  9
$DIMLWD
 70
-2
  9
$DIMLWE
 70
-2
  9
$DIMTMOVE
 70
0
  9
$DIMFXL
 40
1.0
  9
$DIMFXLON
 70
0
  9
$DIMJOGANG
 40
0.785398163397
  9
$DIMTFILL
 70
0
  9
$DIMTFILLCLR
 70
0
  9
$DIMARCSYM
 70
0
  9
$DIMLTYPE
  6

  9
$DIMLTEX1
  6

  9
$DIMLTEX2
  6

  9
$DIMTXTDIRECTION
 70
0
  9
$LUNITS
 70
2
  9
$LUPREC
 70
4
  9
$SKETCHINC
 40
1.0
  9
$FILLETRAD
 40
10.0
  9
$AUNITS
 70
0
  9
$AUPREC
 70
2
  9
$MENU
  1
.
  9
$ELEVATION
 40
0.0
  9
$PELEVATION
 40
0.0
  9
$THICKNESS
 40
0.0
  9
$LIMCHECK
 70
0
  9
$CHAMFERA
 40
0.0
  9
$CHAMFERB
 40
0.0
  9
$CHAMFERC
 40
0.0
  9
$CHAMFERD
 40
0.0
  9
$SKPOLY
 70
0
  9
$TDCREATE
 40
2461165.5508217593
  9
$TDUCREATE
 40
2458532.153996898
  9
$TDUPDATE
 40
2461165.5508217593
  9
$TDUUPDATE
 40
2458532.1544311
  9
$TDINDWG
 40
0.0
  9
$TDUSRTIMER
 40
0.0
  9
$USRTIMER
 70
1
  9
$ANGBASE
 50
0.0
  9
$ANGDIR
 70
0
  9
$PDMODE
 70
0
  9
$PDSIZE
 40
0.0
  9
$PLINEWID
 40
0.0
  9
$SPLFRAME
 70
0
  9
$SPLINETYPE
 70
6
  9
$SPLINESEGS
 70
8
  9
$HANDSEED
  5
15E
  9
$SURFTAB1
 70
6
  9
$SURFTAB2
 70
6
  9
$SURFTYPE
 70
6
  9
$SURFU
 70
6
  9
$SURFV
 70
6
  9
$UCSBASE
  2

  9
$UCSNAME
  2

  9
$UCSORG
 10
0.0
 20
0.0
 30
0.0
  9
$UCSXDIR
 10
1.0
 20
0.0
 30
0.0
  9
$UCSYDIR
 10
0.0
 20
1.0
 30
0.0
  9
$UCSORTHOREF
  2

  9
$UCSORTHOVIEW
 70
0
  9
$UCSORGTOP
 10
0.0
 20
0.0
 30
0.0
  9
$UCSORGBOTTOM
 10
0.0
 20
0.0
 30
0.0
  9
$UCSORGLEFT
 10
0.0
 20
0.0
 30
0.0
  9
$UCSORGRIGHT
 10
0.0
 20
0.0
 30
0.0
  9
$UCSORGFRONT
 10
0.0
 20
0.0
 30
0.0
  9
$UCSORGBACK
 10
0.0
 20
0.0
 30
0.0
  9
$PUCSBASE
  2

  9
$PUCSNAME
  2

  9
$PUCSORG
 10
0.0
 20
0.0
 30
0.0
  9
$PUCSXDIR
 10
1.0
 20
0.0
 30
0.0
  9
$PUCSYDIR
 10
0.0
 20
1.0
 30
0.0
  9
$PUCSORTHOREF
  2

  9
$PUCSORTHOVIEW
 70
0
  9
$PUCSORGTOP
 10
0.0
 20
0.0
 30
0.0
  9
$PUCSORGBOTTOM
 10
0.0
 20
0.0
 30
0.0
  9
$PUCSORGLEFT
 10
0.0
 20
0.0
 30
0.0
  9
$PUCSORGRIGHT
 10
0.0
 20
0.0
 30
0.0
  9
$PUCSORGFRONT
 10
0.0
 20
0.0
 30
0.0
  9
$PUCSORGBACK
 10
0.0
 20
0.0
 30
0.0
  9
$USERI1
 70
0
  9
$USERI2
 70
0
  9
$USERI3
 70
0
  9
$USERI4
 70
0
  9
$USERI5
 70
0
  9
$USERR1
 40
0.0
  9
$USERR2
 40
0.0
  9
$USERR3
 40
0.0
  9
$USERR4
 40
0.0
  9
$USERR5
 40
0.0
  9
$WORLDVIEW
 70
1
  9
$SHADEDGE
 70
3
  9
$SHADEDIF
 70
70
  9
$TILEMODE
 70
1
  9
$MAXACTVP
 70
64
  9
$PINSBASE
 10
0.0
 20
0.0
 30
0.0
  9
$PLIMCHECK
 70
0
  9
$PEXTMIN
 10
1e+20
 20
1e+20
 30
1e+20
  9
$PEXTMAX
 10
-1e+20
 20
-1e+20
 30
-1e+20
  9
$PLIMMIN
 10
0.0
 20
0.0
  9
$PLIMMAX
 10
420.0
 20
297.0
  9
$UNITMODE
 70
0
  9
$VISRETAIN
 70
1
  9
$PLINEGEN
 70
0
  9
$PSLTSCALE
 70
1
  9
$TREEDEPTH
 70
3020
  9
$CMLSTYLE
  2
Standard
  9
$CMLJUST
 70
0
  9
$CMLSCALE
 40
20.0
  9
$PROXYGRAPHICS
 70
1
  9
$MEASUREMENT
 70
1
  9
$CELWEIGHT
370
-1
  9
$ENDCAPS
280
0
  9
$JOINSTYLE
280
0
  9
$LWDISPLAY
290
0
  9
$INSUNITS
 70
6
  9
$HYPERLINKBASE
  1

  9
$STYLESHEET
  1

  9
$XEDIT
290
1
  9
$CEPSNTYPE
380
0
  9
$PSTYLEMODE
290
1
  9
$FINGERPRINTGUID
  2
{179472A7-85DF-40EF-908E-9A00CB1C9BBC}
  9
$VERSIONGUID
  2
{355C7AC1-E339-4DB6-8A38-6523D2765FD9}
  9
$EXTNAMES
290
1
  9
$PSVPSCALE
 40
0.0
  9
$OLESTARTUP
290
0
  9
$SORTENTS
280
127
  9
$INDEXCTL
280
0
  9
$HIDETEXT
280
1
  9
$XCLIPFRAME
280
1
  9
$HALOGAP
280
0
  9
$OBSCOLOR
 70
257
  9
$OBSLTYPE
280
0
  9
$INTERSECTIONDISPLAY
280
0
  9
$INTERSECTIONCOLOR
 70
257
  9
$DIMASSOC
280
2
  9
$PROJECTNAME
  1

  9
$CAMERADISPLAY
290
0
  9
$LENSLENGTH
 40
50.0
  9
$CAMERAHEIGHT
 40
0.0
  9
$STEPSPERSEC
 40
24.0
  9
$STEPSIZE
 40
100.0
  9
$3DDWFPREC
 40
2.0
  9
$PSOLWIDTH
 40
0.005
  9
$PSOLHEIGHT
 40
0.08
  9
$LOFTANG1
 40
1.570796326795
  9
$LOFTANG2
 40
1.570796326795
  9
$LOFTMAG1
 40
0.0
  9
$LOFTMAG2
 40
0.0
  9
$LOFTPARAM
 70
7
  9
$LOFTNORMALS
280
1
  9
$LATITUDE
 40
37.795
  9
$LONGITUDE
 40
-122.394
  9
$NORTHDIRECTION
 40
0.0
  9
$TIMEZONE
 70
-8000
  9
$LIGHTGLYPHDISPLAY
280
1
  9
$TILEMODELIGHTSYNCH
280
1
  9
$CMATERIAL
347
20
  9
$SOLIDHIST
280
0
  9
$SHOWHIST
280
1
  9
$DWFFRAME
280
2
  9
$DGNFRAME
280
2
  9
$REALWORLDSCALE
290
1
  9
$INTERFERECOLOR
 62
256
  9
$CSHADOW
280
0
  9
$SHADOWPLANELOCATION
 40
0.0
  0
ENDSEC
  0
SECTION
  2
CLASSES
  0
CLASS
  1
ACDBDICTIONARYWDFLT
  2
AcDbDictionaryWithDefault
  3
ObjectDBX Classes
 90
0
 91
0
280
0
281
0
  0
CLASS
  1
SUN
  2
AcDbSun
  3
SCENEOE
 90
1153
 91
0
280
0
281
0
  0
CLASS
  1
VISUALSTYLE
  2
AcDbVisualStyle
  3
ObjectDBX Classes
 90
4095
 91
0
280
0
281
0
  0
CLASS
  1
MATERIAL
  2
AcDbMaterial
  3
ObjectDBX Classes
 90
1153
 91
0
280
0
281
0
  0
CLASS
  1
SCALE
  2
AcDbScale
  3
ObjectDBX Classes
 90
1153
 91
0
280
0
281
0
  0
CLASS
  1
TABLESTYLE
  2
AcDbTableStyle
  3
ObjectDBX Classes
 90
4095
 91
0
280
0
281
0
  0
CLASS
  1
MLEADERSTYLE
  2
AcDbMLeaderStyle
  3
ACDB_MLEADERSTYLE_CLASS
 90
4095
 91
0
280
0
281
0
  0
CLASS
  1
DICTIONARYVAR
  2
AcDbDictionaryVar
  3
ObjectDBX Classes
 90
0
 91
0
280
0
281
0
  0
CLASS
  1
CELLSTYLEMAP
  2
AcDbCellStyleMap
  3
ObjectDBX Classes
 90
1152
 91
0
280
0
281
0
  0
CLASS
  1
MENTALRAYRENDERSETTINGS
  2
AcDbMentalRayRenderSettings
  3
SCENEOE
 90
1024
 91
0
280
0
281
0
  0
CLASS
  1
ACDBDETAILVIEWSTYLE
  2
AcDbDetailViewStyle
  3
ObjectDBX Classes
 90
1025
 91
0
280
0
281
0
  0
CLASS
  1
ACDBSECTIONVIEWSTYLE
  2
AcDbSectionViewStyle
  3
ObjectDBX Classes
 90
1025
 91
0
280
0
281
0
  0
CLASS
  1
RASTERVARIABLES
  2
AcDbRasterVariables
  3
ISM
 90
0
 91
0
280
0
281
0
  0
CLASS
  1
LAYOUT
  2
AcDbLayout
  3
ObjectDBX Classes
 90
0
 91
0
280
0
281
0
  0
CLASS
  1
ACDBPLACEHOLDER
  2
AcDbPlaceHolder
  3
ObjectDBX Classes
 90
0
 91
0
280
0
281
0
  0
ENDSEC
  0
SECTION
  2
TABLES
  0
TABLE
  2
VPORT
  5
8
330
0
100
AcDbSymbolTable
 70
1
  0
VPORT
  5
23
330
8
100
AcDbSymbolTableRecord
100
AcDbViewportTableRecord
  2
*Active
 70
0
 10
0.0
 20
0.0
 11
1.0
 21
1.0
 12
0.0
 22
0.0
 13
0.0
 23
0.0
 14
0.5
 24
0.5
 15
0.5
 25
0.5
 16
0.0
 26
0.0
 36
1.0
 17
0.0
 27
0.0
 37
0.0
 40
1000.0
 41
1.34
 42
50.0
 43
0.0
 44
0.0
 50
0.0
 51
0.0
 71
0
 72
1000
 73
1
 74
3
 75
0
 76
0
 77
0
 78
0
281
0
 65
0
146
0.0
  0
ENDTAB
  0
TABLE
  2
LTYPE
  5
2
330
0
100
AcDbSymbolTable
 70
3
  0
LTYPE
  5
24
330
2
100
AcDbSymbolTableRecord
100
AcDbLinetypeTableRecord
  2
ByBlock
 70
0
  3

 72
65
 73
0
 40
0.0
  0
LTYPE
  5
25
330
2
100
AcDbSymbolTableRecord
100
AcDbLinetypeTableRecord
  2
ByLayer
 70
0
  3

 72
65
 73
0
 40
0.0
  0
LTYPE
  5
26
330
2
100
AcDbSymbolTableRecord
100
AcDbLinetypeTableRecord
  2
Continuous
 70
0
  3

 72
65
 73
0
 40
0.0
  0
ENDTAB
  0
TABLE
  2
LAYER
  5
1
330
0
100
AcDbSymbolTable
 70
25
  0
LAYER
  5
27
330
1
100
AcDbSymbolTableRecord
100
AcDbLayerTableRecord
  2
0
 70
0
 62
7
  6
Continuous
370
-3
390
13
347
21
  0
LAYER
  5
28
330
1
100
AcDbSymbolTableRecord
100
AcDbLayerTableRecord
  2
Defpoints
 70
0
 62
7
  6
Continuous
290
0
370
-3
390
13
347
21
  0
LAYER
  5
2F
330
1
100
AcDbSymbolTableRecord
100
AcDbLayerTableRecord
  2
修改2015.11.04
 70
0
 62
-5
  6
Continuous
370
-3
390
13
347
21
  0
LAYER
  5
30
330
1
100
AcDbSymbolTableRecord
100
AcDbLayerTableRecord
  2
DQ-L
 70
0
 62
2
  6
Continuous
370
-3
390
13
347
21
  0
LAYER
  5
31
330
1
100
AcDbSymbolTableRecord
100
AcDbLayerTableRecord
  2
房号
 70
0
 62
231
  6
Continuous
370
-3
390
13
347
21
  0
LAYER
  5
32
330
1
100
AcDbSymbolTableRecord
100
AcDbLayerTableRecord
  2
结构梁板
 70
0
 62
2
  6
Continuous
370
-3
390
13
347
21
  0
LAYER
  5
33
330
1
100
AcDbSymbolTableRecord
100
AcDbLayerTableRecord
  2
DIM_SYMB
 70
0
 62
3
  6
Continuous
370
-3
390
13
347
21
  0
LAYER
  5
34
330
1
100
AcDbSymbolTableRecord
100
AcDbLayerTableRecord
  2
节点
 70
0
 62
3
  6
Continuous
370
-3
390
13
347
21
  0
LAYER
  5
35
330
1
100
AcDbSymbolTableRecord
100
AcDbLayerTableRecord
  2
详细尺寸
 70
0
 62
11
  6
Continuous
370
-3
390
13
347
21
  0
LAYER
  5
36
330
1
100
AcDbSymbolTableRecord
100
AcDbLayerTableRecord
  2
DIM_ELEV
 70
0
 62
3
  6
Continuous
370
-3
390
13
347
21
  0
LAYER
  5
37
330
1
100
AcDbSymbolTableRecord
100
AcDbLayerTableRecord
  2
WINDOW
 70
0
 62
2
  6
Continuous
370
-3
390
13
347
21
  0
LAYER
  5
38
330
1
100
AcDbSymbolTableRecord
100
AcDbLayerTableRecord
  2
WALL
 70
0
 62
4
  6
Continuous
370
-3
390
13
347
21
  0
LAYER
  5
39
330
1
100
AcDbSymbolTableRecord
100
AcDbLayerTableRecord
  2
EQUIP_地漏
 70
0
 62
255
  6
Continuous
370
-3
390
13
347
21
  0
LAYER
  5
3A
330
1
100
AcDbSymbolTableRecord
100
AcDbLayerTableRecord
  2
第二次修改
 70
0
 62
-5
  6
Continuous
370
-3
390
13
347
21
  0
LAYER
  5
3B
330
1
100
AcDbSymbolTableRecord
100
AcDbLayerTableRecord
  2
看线
 70
0
 62
66
  6
Continuous
370
-3
390
13
347
21
  0
LAYER
  5
3C
330
1
100
AcDbSymbolTableRecord
100
AcDbLayerTableRecord
  2
结构梁问题
 70
0
 62
1
  6
Continuous
370
-3
390
13
347
21
  0
LAYER
  5
3D
330
1
100
AcDbSymbolTableRecord
100
AcDbLayerTableRecord
  2
A-ANNO-TEXT
 70
0
 62
131
  6
Continuous
370
-3
390
13
347
21
  0
LAYER
  5
3E
330
1
100
AcDbSymbolTableRecord
100
AcDbLayerTableRecord
  2
COLU
 70
0
 62
6
  6
Continuous
370
-3
390
13
347
21
  0
LAYER
  5
3F
330
1
100
AcDbSymbolTableRecord
100
AcDbLayerTableRecord
  2
TK
 70
0
 62
1
  6
Continuous
370
-3
390
13
347
21
  0
LAYER
  5
40
330
1
100
AcDbSymbolTableRecord
100
AcDbLayerTableRecord
  2
空线
 70
0
 62
3
  6
Continuous
370
-3
390
13
347
21
  0
LAYER
  5
41
330
1
100
AcDbSymbolTableRecord
100
AcDbLayerTableRecord
  2
AXIS
 70
0
 62
3
  6
Continuous
370
-3
390
13
347
21
  0
LAYER
  5
42
330
1
100
AcDbSymbolTableRecord
100
AcDbLayerTableRecord
  2
dote
 70
0
 62
1
  6
Continuous
370
-3
390
13
347
21
  0
LAYER
  5
43
330
1
100
AcDbSymbolTableRecord
100
AcDbLayerTableRecord
  2
修改2015.10.15
 70
0
 62
-5
  6
Continuous
370
-3
390
13
347
21
  0
LAYER
  5
44
330
1
100
AcDbSymbolTableRecord
100
AcDbLayerTableRecord
  2
房间名称
 70
0
 62
7
  6
Continuous
370
-3
390
13
347
21
  0
LAYER
  5
45
330
1
100
AcDbSymbolTableRecord
100
AcDbLayerTableRecord
  2
修改2016.03.17
 70
0
 62
-6
  6
Continuous
370
-3
390
13
347
21
  0
ENDTAB
  0
TABLE
  2
STYLE
  5
5
330
0
100
AcDbSymbolTable
 70
1
  0
STYLE
  5
29
330
5
100
AcDbSymbolTableRecord
100
AcDbTextStyleTableRecord
  2
Standard
 70
0
 40
0.0
 41
1.0
 50
0.0
 71
0
 42
2.5
  3
txt
  4

  0
ENDTAB
  0
TABLE
  2
VIEW
  5
7
330
0
100
AcDbSymbolTable
 70
0
  0
ENDTAB
  0
TABLE
  2
UCS
  5
6
330
0
100
AcDbSymbolTable
 70
0
  0
ENDTAB
  0
TABLE
  2
APPID
  5
3
330
0
100
AcDbSymbolTable
 70
3
  0
APPID
  5
2A
330
3
100
AcDbSymbolTableRecord
100
AcDbRegAppTableRecord
  2
ACAD
 70
0
  0
APPID
  5
15B
330
3
100
AcDbSymbolTableRecord
100
AcDbRegAppTableRecord
  2
HATCHBACKGROUNDCOLOR
 70
0
  0
APPID
  5
15C
330
3
100
AcDbSymbolTableRecord
100
AcDbRegAppTableRecord
  2
EZDXF
 70
0
  0
ENDTAB
  0
TABLE
  2
DIMSTYLE
  5
4
330
0
100
AcDbSymbolTable
 70
1
100
AcDbDimStyleTable
  0
DIMSTYLE
105
2B
330
4
100
AcDbSymbolTableRecord
100
AcDbDimStyleTableRecord
  2
Standard
 70
0
 40
1.0
 41
2.5
 42
0.625
 43
3.75
 44
1.25
 45
0.0
 46
0.0
 47
0.0
 48
0.0
 49
2.5
140
2.5
141
2.5
142
0.0
143
0.03937007874
144
1.0
145
0.0
146
1.0
147
0.625
148
0.0
 69
0
 70
0
 71
0
 72
0
 73
0
 74
0
 75
0
 76
0
 77
1
 78
8
 79
3
170
0
171
3
172
1
173
0
174
0
175
0
176
0
177
0
178
0
179
2
271
2
272
2
273
2
274
3
275
0
276
0
277
2
278
44
279
0
280
0
281
0
282
0
283
0
284
8
285
0
286
0
288
0
289
3
290
0
371
-2
372
-2
  0
ENDTAB
  0
TABLE
  2
BLOCK_RECORD
  5
9
330
0
100
AcDbSymbolTable
 70
2
  0
BLOCK_RECORD
  5
17
330
9
100
AcDbSymbolTableRecord
100
AcDbBlockTableRecord
  2
*Model_Space
340
1A
 70
0
280
1
281
0
  0
BLOCK_RECORD
  5
1B
330
9
100
AcDbSymbolTableRecord
100
AcDbBlockTableRecord
  2
*Paper_Space
340
1E
 70
0
280
1
281
0
  0
ENDTAB
  0
ENDSEC
  0
SECTION
  2
BLOCKS
  0
BLOCK
  5
18
330
17
100
AcDbEntity
  8
0
100
AcDbBlockBegin
  2
*Model_Space
 70
0
 10
0.0
 20
0.0
 30
0.0
  3
*Model_Space
  1

  0
ENDBLK
  5
19
330
17
100
AcDbEntity
  8
0
100
AcDbBlockEnd
  0
BLOCK
  5
1C
330
1B
100
AcDbEntity
  8
0
100
AcDbBlockBegin
  2
*Paper_Space
 70
0
 10
0.0
 20
0.0
 30
0.0
  3
*Paper_Space
  1

  0
ENDBLK
  5
1D
330
1B
100
AcDbEntity
  8
0
100
AcDbBlockEnd
  0
ENDSEC
  0
SECTION
  2
ENTITIES
  0
LINE
  5
46
330
17
100
AcDbEntity
  8
看线
100
AcDbLine
 10
2032916.523944797
 20
-156977.9051669291
 30
0.0
 11
2032916.523944797
 21
-156677.9051669641
 31
0.0
  0
LWPOLYLINE
  5
47
330
17
100
AcDbEntity
  8
TK
100
AcDbPolyline
 90
4
 70
1
 10
1980812.266903986
 20
-144644.1255058441
 10
2064912.266903986
 20
-144644.1255058441
 10
2064912.266903986
 20
-204044.1255058441
 10
1980812.266903986
 20
-204044.1255058441
  0
LINE
  5
48
330
17
100
AcDbEntity
  8
TK
100
AcDbLine
 10
2055912.266904053
 20
-203044.1255058127
 30
0.0
 11
2055912.266904001
 21
-145644.1255058441
 31
0.0
  0
LINE
  5
49
330
17
100
AcDbEntity
  8
TK
100
AcDbLine
 10
2063912.266903934
 20
-203044.1255058127
 30
0.0
 11
2063912.266903934
 21
-145644.1255058441
 31
0.0
  0
LINE
  5
4A
330
17
100
AcDbEntity
  8
TK
100
AcDbLine
 10
2059899.654044327
 20
-194757.7560327763
 30
0.0
 11
2059899.654044327
 21
-193044.1255058127
 31
0.0
  0
LINE
  5
4B
330
17
100
AcDbEntity
  8
TK
100
AcDbLine
 10
2055912.266904053
 20
-194044.1255058164
 30
0.0
 11
2063912.266903934
 21
-194044.1255058164
 31
0.0
  0
LINE
  5
4C
330
17
100
AcDbEntity
  8
TK
100
AcDbLine
 10
2055912.266904053
 20
-193044.1255058127
 30
0.0
 11
2063912.266903934
 21
-193044.1255058127
 31
0.0
  0
LINE
  5
4D
330
17
100
AcDbEntity
  8
TK
100
AcDbLine
 10
2055912.266904053
 20
-194944.1255058127
 30
0.0
 11
2063912.266903934
 21
-194944.1255058127
 31
0.0
  0
LINE
  5
4E
330
17
100
AcDbEntity
  8
TK
100
AcDbLine
 10
2055912.266904053
 20
-194744.1255058164
 30
0.0
 11
2063912.266903934
 21
-194744.1255058164
 31
0.0
  0
LINE
  5
4F
330
17
100
AcDbEntity
  8
TK
100
AcDbLine
 10
2055912.266904053
 20
-194744.1255058164
 30
0.0
 11
2063912.266903934
 21
-194744.1255058164
 31
0.0
  0
LINE
  5
50
330
17
100
AcDbEntity
  8
TK
100
AcDbLine
 10
2055912.266904053
 20
-194744.1255058164
 30
0.0
 11
2063912.266903934
 21
-194744.1255058164
 31
0.0
  0
LWPOLYLINE
  5
51
330
17
100
AcDbEntity
  8
TK
100
AcDbPolyline
 90
3
 70
1
 10
2056115.044349652
 20
-200684.4534053283
 10
2056310.999549624
 20
-200797.5881927984
 10
2056310.999549624
 20
-200571.3186178582
  0
LWPOLYLINE
  5
52
330
17
100
AcDbEntity
  8
TK
100
AcDbPolyline
 90
6
 70
1
 10
2056092.636296254
 20
-200949.5348673577
 10
2056549.865096268
 20
-201213.5160381275
 10
2057007.093896252
 20
-200949.5348673577
 10
2057007.093896252
 20
-200723.2652924175
 10
2056549.865096268
 20
-200987.2464631873
 10
2056092.636296254
 20
-200723.2652924175
  0
LWPOLYLINE
  5
53
330
17
100
AcDbEntity
  8
TK
100
AcDbPolyline
 90
6
 70
1
 10
2056549.865096268
 20
-201491.5347958582
 10
2057007.093896252
 20
-201227.5536250884
 10
2057007.093896252
 20
-201001.2840501482
 10
2056549.865096268
 20
-201265.265220918
 10
2056092.636296254
 20
-201001.2840501482
 10
2056092.636296254
 20
-201227.5536250884
  0
LWPOLYLINE
  5
54
330
17
100
AcDbEntity
  8
TK
100
AcDbPolyline
 90
4
 70
1
 10
2056788.730642733
 20
-200797.5881927984
 10
2056549.865096268
 20
-200659.6791052001
 10
2056549.865096268
 20
-200433.4095302599
 10
2056984.685842734
 20
-200684.4534053283
  0
LINE
  5
55
330
17
100
AcDbEntity
  8
TK
100
AcDbLine
 10
2061162.266904053
 20
-199844.1255058164
 30
0.0
 11
2061162.266904053
 21
-194944.1255058127
 31
0.0
  0
LINE
  5
56
330
17
100
AcDbEntity
  8
TK
100
AcDbLine
 10
2058412.266903934
 20
-199844.1255058164
 30
0.0
 11
2058412.266903934
 21
-194944.1255058127
 31
0.0
  0
LINE
  5
57
330
17
100
AcDbEntity
  8
TK
100
AcDbLine
 10
2055912.266904053
 20
-200044.1255058164
 30
0.0
 11
2063912.266903934
 21
-200044.1255058164
 31
0.0
  0
LINE
  5
58
330
17
100
AcDbEntity
  8
TK
100
AcDbLine
 10
2055912.266904053
 20
-199844.1255058164
 30
0.0
 11
2063912.266903934
 21
-199844.1255058164
 31
0.0
  0
LINE
  5
59
330
17
100
AcDbEntity
  8
TK
100
AcDbLine
 10
2055912.266904053
 20
-199144.1255058164
 30
0.0
 11
2063912.266903934
 21
-199144.1255058164
 31
0.0
  0
LINE
  5
5A
330
17
100
AcDbEntity
  8
TK
100
AcDbLine
 10
2055912.266904053
 20
-187444.1255058127
 30
0.0
 11
2063912.266903934
 21
-187444.1255058127
 31
0.0
  0
LINE
  5
5B
330
17
100
AcDbEntity
  8
TK
100
AcDbLine
 10
2055912.266904053
 20
-189444.1255058164
 30
0.0
 11
2063912.266903934
 21
-189444.1255058164
 31
0.0
  0
LINE
  5
5C
330
17
100
AcDbEntity
  8
TK
100
AcDbLine
 10
2055912.266904053
 20
-195644.1255058164
 30
0.0
 11
2063912.266903934
 21
-195644.1255058164
 31
0.0
  0
LINE
  5
5D
330
17
100
AcDbEntity
  8
TK
100
AcDbLine
 10
2055912.266904053
 20
-196344.1255058164
 30
0.0
 11
2063912.266903934
 21
-196344.1255058164
 31
0.0
  0
LINE
  5
5E
330
17
100
AcDbEntity
  8
TK
100
AcDbLine
 10
2055912.266904053
 20
-197044.1255058164
 30
0.0
 11
2063912.266903934
 21
-197044.1255058164
 31
0.0
  0
LINE
  5
5F
330
17
100
AcDbEntity
  8
TK
100
AcDbLine
 10
2055912.266904053
 20
-189444.1255058164
 30
0.0
 11
2063912.266903934
 21
-189444.1255058164
 31
0.0
  0
LINE
  5
60
330
17
100
AcDbEntity
  8
TK
100
AcDbLine
 10
2055912.266904053
 20
-189444.1255058164
 30
0.0
 11
2063912.266903934
 21
-189444.1255058164
 31
0.0
  0
LINE
  5
61
330
17
100
AcDbEntity
  8
TK
100
AcDbLine
 10
2055912.266904053
 20
-189444.1255058164
 30
0.0
 11
2063912.266903934
 21
-189444.1255058164
 31
0.0
  0
LINE
  5
62
330
17
100
AcDbEntity
  8
TK
100
AcDbLine
 10
2055912.266904053
 20
-189444.1255058164
 30
0.0
 11
2063912.266903934
 21
-189444.1255058164
 31
0.0
  0
LINE
  5
63
330
17
100
AcDbEntity
  8
TK
100
AcDbLine
 10
2055912.266904053
 20
-191244.1255058164
 30
0.0
 11
2063912.266903934
 21
-191244.1255058164
 31
0.0
  0
LINE
  5
64
330
17
100
AcDbEntity
  8
TK
100
AcDbLine
 10
2055912.266904053
 20
-197744.1255058164
 30
0.0
 11
2063912.266903934
 21
-197744.1255058164
 31
0.0
  0
LINE
  5
65
330
17
100
AcDbEntity
  8
TK
100
AcDbLine
 10
2055912.266904053
 20
-198444.1255058164
 30
0.0
 11
2063912.266903934
 21
-198444.1255058164
 31
0.0
  0
LINE
  5
66
330
17
100
AcDbEntity
  8
TK
100
AcDbLine
 10
2055912.266904053
 20
-175444.1255058164
 30
0.0
 11
2063912.266903934
 21
-175444.1255058164
 31
0.0
  0
LINE
  5
67
330
17
100
AcDbEntity
  8
TK
100
AcDbLine
 10
2055912.266904053
 20
-178444.1255058164
 30
0.0
 11
2063912.266903934
 21
-178444.1255058164
 31
0.0
  0
LINE
  5
68
330
17
100
AcDbEntity
  8
TK
100
AcDbLine
 10
2055912.266904053
 20
-181444.1255058164
 30
0.0
 11
2063912.266903934
 21
-181444.1255058164
 31
0.0
  0
LINE
  5
69
330
17
100
AcDbEntity
  8
TK
100
AcDbLine
 10
2055912.266904053
 20
-184444.1255058164
 30
0.0
 11
2063912.266903934
 21
-184444.1255058164
 31
0.0
  0
LINE
  5
6A
330
17
100
AcDbEntity
  8
TK
100
AcDbLine
 10
2063912.266903934
 20
-203044.1255058127
 30
0.0
 11
2055912.266904053
 21
-203044.1255058127
 31
0.0
  0
LINE
  5
6B
330
17
100
AcDbEntity
  8
TK
100
AcDbLine
 10
2058999.654044327
 20
-169244.1255058164
 30
0.0
 11
2058999.654044327
 21
-168544.1255058127
 31
0.0
  0
LINE
  5
6C
330
17
100
AcDbEntity
  8
TK
100
AcDbLine
 10
2055912.266904053
 20
-168544.1255058127
 30
0.0
 11
2063912.266903934
 21
-168544.1255058127
 31
0.0
  0
LINE
  5
6D
330
17
100
AcDbEntity
  8
TK
100
AcDbLine
 10
2055912.266904053
 20
-169244.1255058164
 30
0.0
 11
2063912.266903934
 21
-169244.1255058164
 31
0.0
  0
LINE
  5
6E
330
17
100
AcDbEntity
  8
TK
100
AcDbLine
 10
2055912.266904053
 20
-169444.1255058164
 30
0.0
 11
2063912.266903934
 21
-169444.1255058164
 31
0.0
  0
LINE
  5
6F
330
17
100
AcDbEntity
  8
TK
100
AcDbLine
 10
2055912.266904053
 20
-172444.1255058127
 30
0.0
 11
2063912.266903934
 21
-172444.1255058127
 31
0.0
  0
LINE
  5
70
330
17
100
AcDbEntity
  8
TK
100
AcDbLine
 10
2055912.266904053
 20
-187644.1255058164
 30
0.0
 11
2063912.266903934
 21
-187644.1255058164
 31
0.0
  0
LINE
  5
71
330
17
100
AcDbEntity
  8
TK
100
AcDbLine
 10
2055912.266904053
 20
-187644.1255058164
 30
0.0
 11
2063912.266903934
 21
-187644.1255058164
 31
0.0
  0
LINE
  5
72
330
17
100
AcDbEntity
  8
TK
100
AcDbLine
 10
2055912.266904053
 20
-187644.1255058164
 30
0.0
 11
2063912.266903934
 21
-187644.1255058164
 31
0.0
  0
LINE
  5
73
330
17
100
AcDbEntity
  8
TK
100
AcDbLine
 10
2055912.266904053
 20
-187644.1255058164
 30
0.0
 11
2063912.266903934
 21
-187644.1255058164
 31
0.0
  0
LINE
  5
74
330
17
100
AcDbEntity
  8
TK
100
AcDbLine
 10
2055912.266904053
 20
-187644.1255058164
 30
0.0
 11
2063912.266903934
 21
-187644.1255058164
 31
0.0
  0
LWPOLYLINE
  5
75
330
17
100
AcDbEntity
  8
TK
100
AcDbPolyline
 90
4
 70
1
 10
2063912.266903986
 20
-203044.1255058441
 10
2063912.266903986
 20
-145644.1255058441
 10
1983312.266903986
 20
-145644.1255058441
 10
1983312.266903986
 20
-203044.1255058439
  0
LWPOLYLINE
  5
76
330
17
100
AcDbEntity
  8
DIM_SYMB
100
AcDbPolyline
 90
4
 70
1
 10
2032940.727075084
 20
-193718.0222537262
 10
2035540.727154565
 20
-193718.0222537262
 10
2035540.727154565
 20
-202618.0222836998
 10
2032940.727075084
 20
-202618.0222836998
  0
LINE
  5
77
330
17
100
AcDbEntity
  8
DIM_SYMB
100
AcDbLine
 10
2020316.523937838
 20
-167227.9051330797
 30
0.0
 11
2035540.727154565
 21
-193718.0222537262
 31
0.0
  0
LINE
  5
78
330
17
100
AcDbEntity
  8
DIM_SYMB
100
AcDbLine
 10
2017716.523950148
 20
-176077.9051537209
 30
0.0
 11
2032940.727075084
 21
-202618.0222836998
 31
0.0
  0
LINE
  5
79
330
17
100
AcDbEntity
  8
节点
100
AcDbLine
 10
1999365.154727881
 20
-189774.4478349092
 30
0.0
 11
2000209.654727881
 21
-189774.4478349092
 31
0.0
  0
LINE
  5
7A
330
17
100
AcDbEntity
  8
节点
100
AcDbLine
 10
1999365.154727738
 20
-184656.4282969174
 30
0.0
 11
1999365.154727881
 21
-189774.4478349092
 31
0.0
  0
LWPOLYLINE
  5
7B
330
17
100
AcDbEntity
  8
节点
100
AcDbPolyline
 90
2
 70
0
 10
1999515.154727738
 20
-184656.4282969174
 10
1999515.154727738
 20
-185156.4282969174
  0
LWPOLYLINE
  5
7C
330
17
100
AcDbEntity
  8
节点
100
AcDbPolyline
 90
2
 70
0
 10
1999515.154727738
 20
-185779.0802920545
 10
1999515.154727738
 20
-186279.0802920545
  0
LINE
  5
7D
330
17
100
AcDbEntity
  8
节点
100
AcDbLine
 10
2005266.673143715
 20
-189774.4478349092
 30
0.0
 11
2006111.173143715
 21
-189774.4478349092
 31
0.0
  0
LINE
  5
7E
330
17
100
AcDbEntity
  8
节点
100
AcDbLine
 10
2005266.673143573
 20
-184656.4282969174
 30
0.0
 11
2005266.673143715
 21
-189774.4478349092
 31
0.0
  0
LWPOLYLINE
  5
7F
330
17
100
AcDbEntity
  8
节点
100
AcDbPolyline
 90
2
 70
0
 10
2005416.673143573
 20
-184656.4282969174
 10
2005416.673143573
 20
-185156.4282969174
  0
LWPOLYLINE
  5
80
330
17
100
AcDbEntity
  8
节点
100
AcDbPolyline
 90
2
 70
0
 10
2005416.673143573
 20
-185779.0802920545
 10
2005416.673143573
 20
-186279.0802920545
  0
LINE
  5
81
330
17
100
AcDbEntity
  8
看线
100
AcDbLine
 10
2032916.523975459
 20
-156977.9051669291
 30
0.0
 11
2032916.523975459
 21
-156677.9051669641
 31
0.0
  0
LWPOLYLINE
  5
82
330
17
100
AcDbEntity
  8
WINDOW
100
AcDbPolyline
 90
4
 70
1
 10
2019855.520195213
 20
-168022.1970191696
 10
2018530.233813527
 20
-168022.1970192585
 10
2018530.233813638
 20
-169810.5842566854
 10
2019855.520195325
 20
-169810.5842565964
  0
LINE
  5
83
330
17
100
AcDbEntity
  8
WINDOW
100
AcDbLine
 10
2018530.233813527
 20
-168022.1970192585
 30
0.0
 11
2019855.520195325
 21
-169810.5842565964
 31
0.0
  0
LINE
  5
84
330
17
100
AcDbEntity
  8
WINDOW
100
AcDbLine
 10
2019855.520195213
 20
-168022.1970191696
 30
0.0
 11
2018530.233813638
 21
-169810.5842566854
 31
0.0
  0
LWPOLYLINE
  5
85
330
17
100
AcDbEntity
  8
WINDOW
100
AcDbPolyline
 90
4
 70
1
 10
2018334.160519461
 20
-168058.944167184
 10
2018076.531466217
 20
-168058.9441671947
 10
2018076.531466321
 20
-169730.9646703776
 10
2018334.160519566
 20
-169730.9646703669
  0
LWPOLYLINE
  5
86
330
17
100
AcDbEntity
  8
WINDOW
100
AcDbPolyline
 90
4
 70
1
 10
2019855.520195213
 20
-170696.9271185012
 10
2018530.233813527
 20
-170696.9271185901
 10
2018530.233813638
 20
-172485.3143560169
 10
2019855.520195325
 20
-172485.314355928
  0
LINE
  5
87
330
17
100
AcDbEntity
  8
WINDOW
100
AcDbLine
 10
2018530.233813527
 20
-170696.9271185901
 30
0.0
 11
2019855.520195325
 21
-172485.314355928
 31
0.0
  0
LINE
  5
88
330
17
100
AcDbEntity
  8
WINDOW
100
AcDbLine
 10
2019855.520195213
 20
-170696.9271185012
 30
0.0
 11
2018530.233813638
 21
-172485.3143560169
 31
0.0
  0
LWPOLYLINE
  5
89
330
17
100
AcDbEntity
  8
WINDOW
100
AcDbPolyline
 90
4
 70
1
 10
2018334.160519461
 20
-170733.6742665155
 10
2018076.531466217
 20
-170733.6742665263
 10
2018076.531466321
 20
-172405.6947697092
 10
2018334.160519566
 20
-172405.6947696984
  0
LWPOLYLINE
  5
8A
330
17
100
AcDbEntity
  8
WINDOW
100
AcDbPolyline
 90
4
 70
1
 10
2019855.520195213
 20
-173482.9601335186
 10
2018530.233813527
 20
-173482.9601336075
 10
2018530.233813638
 20
-175271.3473710343
 10
2019855.520195325
 20
-175271.3473709454
  0
LINE
  5
8B
330
17
100
AcDbEntity
  8
WINDOW
100
AcDbLine
 10
2018530.233813527
 20
-173482.9601336075
 30
0.0
 11
2019855.520195325
 21
-175271.3473709454
 31
0.0
  0
LINE
  5
8C
330
17
100
AcDbEntity
  8
WINDOW
100
AcDbLine
 10
2019855.520195213
 20
-173482.9601335186
 30
0.0
 11
2018530.233813638
 21
-175271.3473710343
 31
0.0
  0
LWPOLYLINE
  5
8D
330
17
100
AcDbEntity
  8
WINDOW
100
AcDbPolyline
 90
4
 70
1
 10
2018334.160519461
 20
-173519.7072815329
 10
2018076.531466217
 20
-173519.7072815437
 10
2018076.531466321
 20
-175191.7277847265
 10
2018334.160519566
 20
-175191.7277847158
  0
LINE
  5
8E
330
17
100
AcDbEntity
  8
节点
100
AcDbLine
 10
1990295.934074893
 20
-181702.9051087219
 30
0.0
 11
1990134.210925007
 21
-181702.9051087219
 31
0.0
  0
LINE
  5
8F
330
17
100
AcDbEntity
  8
节点
100
AcDbLine
 10
1995966.523983791
 20
-181702.9051088323
 30
0.0
 11
1989713.835941147
 21
-181702.9051087219
 31
0.0
  0
LWPOLYLINE
  5
90
330
17
100
AcDbEntity
  8
节点
100
AcDbPolyline
 90
2
 70
0
 10
1995966.523983791
 20
-181852.9051088323
 10
1995188.523983791
 20
-181852.9051088323
  0
LWPOLYLINE
  5
91
330
17
100
AcDbEntity
  8
节点
100
AcDbPolyline
 90
2
 70
0
 10
1994216.523975753
 20
-181852.9051088272
 10
1993438.523975753
 20
-181852.9051088272
  0
LINE
  5
92
330
17
100
AcDbEntity
  8
节点
100
AcDbLine
 10
2043607.204868994
 20
-161567.2785889893
 30
0.0
 11
2049985.222861952
 21
-161567.2785888799
 31
0.0
  0
LWPOLYLINE
  5
93
330
17
100
AcDbEntity
  8
节点
100
AcDbPolyline
 90
2
 70
0
 10
2043607.204868994
 20
-161717.2785889893
 10
2044385.204868994
 20
-161717.2785889893
  0
LWPOLYLINE
  5
94
330
17
100
AcDbEntity
  8
节点
100
AcDbPolyline
 90
2
 70
0
 10
2045399.01324044
 20
-161717.2785889842
 10
2046177.01324044
 20
-161717.2785889842
  0
LINE
  5
95
330
17
100
AcDbEntity
  8
节点
100
AcDbLine
 10
2049634.949483084
 20
-181052.4945225883
 30
0.0
 11
2049796.67263297
 21
-181052.4945225883
 31
0.0
  0
LINE
  5
96
330
17
100
AcDbEntity
  8
节点
100
AcDbLine
 10
2045181.438012696
 20
-181052.4945222512
 30
0.0
 11
2050159.582160858
 21
-181052.4945225895
 31
0.0
  0
LWPOLYLINE
  5
97
330
17
100
AcDbEntity
  8
节点
100
AcDbPolyline
 90
2
 70
0
 10
2045181.438012696
 20
-181202.4945222512
 10
2045959.438012696
 20
-181202.4945222512
  0
LINE
  5
98
330
17
100
AcDbEntity
  8
节点
100
AcDbLine
 10
2049279.91808388
 20
-169862.0751223914
 30
0.0
 11
2049441.641233766
 21
-169862.0751223914
 31
0.0
  0
LINE
  5
99
330
17
100
AcDbEntity
  8
节点
100
AcDbLine
 10
2045181.438012696
 20
-169862.0751220542
 30
0.0
 11
2049804.550761653
 21
-169862.0751223925
 31
0.0
  0
LWPOLYLINE
  5
9A
330
17
100
AcDbEntity
  8
节点
100
AcDbPolyline
 90
2
 70
0
 10
2045181.438012696
 20
-170012.0751220542
 10
2045959.438012696
 20
-170012.0751220542
  0
LINE
  5
9B
330
17
100
AcDbEntity
  8
节点
100
AcDbLine
 10
1990689.628755921
 20
-169862.0751223914
 30
0.0
 11
1990527.905606035
 21
-169862.0751223914
 31
0.0
  0
LINE
  5
9C
330
17
100
AcDbEntity
  8
节点
100
AcDbLine
 10
1994259.644098306
 20
-169862.0751220542
 30
0.0
 11
1990164.996078148
 21
-169862.0751223925
 31
0.0
  0
LWPOLYLINE
  5
9D
330
17
100
AcDbEntity
  8
节点
100
AcDbPolyline
 90
2
 70
0
 10
1994259.644098306
 20
-170012.0751220542
 10
1993481.644098306
 20
-170012.0751220542
  0
LINE
  5
9E
330
17
100
AcDbEntity
  8
节点
100
AcDbLine
 10
1990576.331065592
 20
-161335.3881833996
 30
0.0
 11
1990414.607915706
 21
-161335.3881833996
 31
0.0
  0
LINE
  5
9F
330
17
100
AcDbEntity
  8
节点
100
AcDbLine
 10
1994259.644098306
 20
-161335.3881830624
 30
0.0
 11
1990051.698387819
 21
-161335.3881834007
 31
0.0
  0
LWPOLYLINE
  5
A0
330
17
100
AcDbEntity
  8
节点
100
AcDbPolyline
 90
2
 70
0
 10
1994259.644098306
 20
-161485.3881830624
 10
1993481.644098306
 20
-161485.3881830624
  0
LINE
  5
A1
330
17
100
AcDbEntity
  8
节点
100
AcDbLine
 10
2020787.021615091
 20
-189874.4478359956
 30
0.0
 11
2021631.521615091
 21
-189874.4478359956
 31
0.0
  0
LINE
  5
A2
330
17
100
AcDbEntity
  8
节点
100
AcDbLine
 10
2020787.021614949
 20
-185441.745603442
 30
0.0
 11
2020787.021615091
 21
-189874.4478359956
 31
0.0
  0
LWPOLYLINE
  5
A3
330
17
100
AcDbEntity
  8
节点
100
AcDbPolyline
 90
2
 70
0
 10
2020937.021614949
 20
-185441.745603442
 10
2020937.021614949
 20
-185941.745603442
  0
LINE
  5
A4
330
17
100
AcDbEntity
  8
节点
100
AcDbLine
 10
2038657.117530261
 20
-189874.4478359956
 30
0.0
 11
2039501.617530261
 21
-189874.4478359956
 31
0.0
  0
LINE
  5
A5
330
17
100
AcDbEntity
  8
节点
100
AcDbLine
 10
2038657.117530118
 20
-185441.745603442
 30
0.0
 11
2038657.117530261
 21
-189874.4478359956
 31
0.0
  0
LWPOLYLINE
  5
A6
330
17
100
AcDbEntity
  8
节点
100
AcDbPolyline
 90
2
 70
0
 10
2038807.117530118
 20
-185441.745603442
 10
2038807.117530118
 20
-185941.745603442
  0
LINE
  5
A7
330
17
100
AcDbEntity
  8
节点
100
AcDbLine
 10
2029760.195940969
 20
-189874.4478359956
 30
0.0
 11
2030604.695940969
 21
-189874.4478359956
 31
0.0
  0
LINE
  5
A8
330
17
100
AcDbEntity
  8
节点
100
AcDbLine
 10
2029760.195940827
 20
-185441.745603442
 30
0.0
 11
2029760.195940969
 21
-189874.4478359956
 31
0.0
  0
LWPOLYLINE
  5
A9
330
17
100
AcDbEntity
  8
节点
100
AcDbPolyline
 90
2
 70
0
 10
2029910.195940827
 20
-185441.745603442
 10
2029910.195940827
 20
-185941.745603442
  0
LINE
  5
AA
330
17
100
AcDbEntity
  8
节点
100
AcDbLine
 10
2014874.14615055
 20
-189874.4478359956
 30
0.0
 11
2015718.64615055
 21
-189874.4478359956
 31
0.0
  0
LINE
  5
AB
330
17
100
AcDbEntity
  8
节点
100
AcDbLine
 10
2014874.146150407
 20
-185441.745603442
 30
0.0
 11
2014874.14615055
 21
-189874.4478359956
 31
0.0
  0
LWPOLYLINE
  5
AC
330
17
100
AcDbEntity
  8
节点
100
AcDbPolyline
 90
2
 70
0
 10
2015024.146150407
 20
-185441.745603442
 10
2015024.146150407
 20
-185941.745603442
  0
LINE
  5
AD
330
17
100
AcDbEntity
  8
节点
100
AcDbLine
 10
2044916.523987146
 20
-163018.3997976561
 30
0.0
 11
2048274.016521237
 21
-163018.3997976561
 31
0.0
  0
LINE
  5
AE
330
17
100
AcDbEntity
  8
节点
100
AcDbLine
 10
2044916.523987146
 20
-165427.9051444698
 30
0.0
 11
2044916.523987146
 21
-163018.3997976561
 31
0.0
  0
LWPOLYLINE
  5
AF
330
17
100
AcDbEntity
  8
节点
100
AcDbPolyline
 90
2
 70
0
 10
2044566.523987146
 20
-165427.9051444698
 10
2044566.523987146
 20
-164892.6321584371
  0
LINE
  5
B0
330
17
100
AcDbEntity
  8
节点
100
AcDbLine
 10
1994500.255748833
 20
-179018.6542488057
 30
0.0
 11
1993123.665012621
 21
-179018.6542488823
 31
0.0
  0
LINE
  5
B1
330
17
100
AcDbEntity
  8
节点
100
AcDbLine
 10
1994500.255748691
 20
-177660.6020379719
 30
0.0
 11
1994500.255748833
 21
-179018.6542488057
 31
0.0
  0
LWPOLYLINE
  5
B2
330
17
100
AcDbEntity
  8
节点
100
AcDbPolyline
 90
2
 70
0
 10
1994650.255748691
 20
-177660.6020379719
 10
1994650.255748691
 20
-178160.6020379719
  0
LINE
  5
B3
330
17
100
AcDbEntity
  8
节点
100
AcDbLine
 10
1997731.555445081
 20
-153873.1093415914
 30
0.0
 11
1998576.055445081
 21
-153873.1093415914
 31
0.0
  0
LINE
  5
B4
330
17
100
AcDbEntity
  8
节点
100
AcDbLine
 10
1997731.555445081
 20
-157413.1781521533
 30
0.0
 11
1997731.555445081
 21
-153873.1093415914
 31
0.0
  0
LWPOLYLINE
  5
B5
330
17
100
AcDbEntity
  8
节点
100
AcDbPolyline
 90
2
 70
0
 10
1997881.555445081
 20
-157413.1781521533
 10
1997881.555445081
 20
-156877.9051661205
  0
LINE
  5
B6
330
17
100
AcDbEntity
  8
节点
100
AcDbLine
 10
2004701.788219287
 20
-153873.1093415914
 30
0.0
 11
2005546.288219287
 21
-153873.1093415914
 31
0.0
  0
LINE
  5
B7
330
17
100
AcDbEntity
  8
节点
100
AcDbLine
 10
2004701.788219287
 20
-157413.1781521533
 30
0.0
 11
2004701.788219287
 21
-153873.1093415914
 31
0.0
  0
LWPOLYLINE
  5
B8
330
17
100
AcDbEntity
  8
节点
100
AcDbPolyline
 90
2
 70
0
 10
2004851.788219287
 20
-157413.1781521533
 10
2004851.788219287
 20
-156877.9051661205
  0
LINE
  5
B9
330
17
100
AcDbEntity
  8
节点
100
AcDbLine
 10
2013555.288219287
 20
-153873.1093415914
 30
0.0
 11
2014399.788219287
 21
-153873.1093415914
 31
0.0
  0
LINE
  5
BA
330
17
100
AcDbEntity
  8
节点
100
AcDbLine
 10
2013555.288219287
 20
-157413.1781521533
 30
0.0
 11
2013555.288219287
 21
-153873.1093415914
 31
0.0
  0
LWPOLYLINE
  5
BB
330
17
100
AcDbEntity
  8
节点
100
AcDbPolyline
 90
2
 70
0
 10
2013705.288219287
 20
-157413.1781521533
 10
2013705.288219287
 20
-156877.9051661205
  0
LINE
  5
BC
330
17
100
AcDbEntity
  8
节点
100
AcDbLine
 10
2021486.788219287
 20
-153873.1093415914
 30
0.0
 11
2022331.288219287
 21
-153873.1093415914
 31
0.0
  0
LINE
  5
BD
330
17
100
AcDbEntity
  8
节点
100
AcDbLine
 10
2021486.788219287
 20
-157413.1781521533
 30
0.0
 11
2021486.788219287
 21
-153873.1093415914
 31
0.0
  0
LWPOLYLINE
  5
BE
330
17
100
AcDbEntity
  8
节点
100
AcDbPolyline
 90
2
 70
0
 10
2021636.788219287
 20
-157413.1781521533
 10
2021636.788219287
 20
-156877.9051661205
  0
LINE
  5
BF
330
17
100
AcDbEntity
  8
节点
100
AcDbLine
 10
2034329.788219287
 20
-153873.1093415914
 30
0.0
 11
2035174.288219287
 21
-153873.1093415914
 31
0.0
  0
LINE
  5
C0
330
17
100
AcDbEntity
  8
节点
100
AcDbLine
 10
2034329.788219287
 20
-158305.465353735
 30
0.0
 11
2034329.788219287
 21
-153873.1093415914
 31
0.0
  0
LWPOLYLINE
  5
C1
330
17
100
AcDbEntity
  8
节点
100
AcDbPolyline
 90
2
 70
0
 10
2034479.788219287
 20
-158305.465353735
 10
2034479.788219287
 20
-157481.1923677023
  0
LWPOLYLINE
  5
C2
330
17
100
AcDbEntity
  8
节点
100
AcDbPolyline
 90
2
 70
0
 10
2034479.788219419
 20
-156751.6781747961
 10
2034479.788219419
 20
-156216.4051887633
  0
LINE
  5
C3
330
17
100
AcDbEntity
  8
节点
100
AcDbLine
 10
2040017.520999666
 20
-153873.1093415914
 30
0.0
 11
2040862.020999666
 21
-153873.1093415914
 31
0.0
  0
LINE
  5
C4
330
17
100
AcDbEntity
  8
节点
100
AcDbLine
 10
2040017.520999666
 20
-158305.465353735
 30
0.0
 11
2040017.520999666
 21
-153873.1093415914
 31
0.0
  0
LWPOLYLINE
  5
C5
330
17
100
AcDbEntity
  8
节点
100
AcDbPolyline
 90
2
 70
0
 10
2040167.520999666
 20
-158305.465353735
 10
2040167.520999666
 20
-157481.1923677023
  0
LWPOLYLINE
  5
C6
330
17
100
AcDbEntity
  8
节点
100
AcDbPolyline
 90
2
 70
0
 10
2040167.520999798
 20
-156751.6781747961
 10
2040167.520999798
 20
-156216.4051887633
  0
LINE
  5
C7
330
17
100
AcDbEntity
  8
节点
100
AcDbLine
 10
2009248.807027394
 20
-189874.4478359954
 30
0.0
 11
2010093.307027394
 21
-189874.4478359954
 31
0.0
  0
LINE
  5
C8
330
17
100
AcDbEntity
  8
节点
100
AcDbLine
 10
2009248.807027251
 20
-184029.4282980035
 30
0.0
 11
2009248.807027394
 21
-189874.4478359954
 31
0.0
  0
LWPOLYLINE
  5
C9
330
17
100
AcDbEntity
  8
节点
100
AcDbPolyline
 90
2
 70
0
 10
2009398.807027251
 20
-184029.4282980035
 10
2009398.807027251
 20
-184529.4282980035
  0
LWPOLYLINE
  5
CA
330
17
100
AcDbEntity
  8
节点
100
AcDbPolyline
 90
2
 70
0
 10
2009398.807027251
 20
-185879.0802931409
 10
2009398.807027251
 20
-186379.0802931409
  0
LINE
  5
CB
330
17
100
AcDbEntity
  8
节点
100
AcDbLine
 10
2029862.798212033
 20
-153873.1093419835
 30
0.0
 11
2030707.298212033
 21
-153873.1093419835
 31
0.0
  0
LINE
  5
CC
330
17
100
AcDbEntity
  8
节点
100
AcDbLine
 10
2029862.798212033
 20
-158305.4653541271
 30
0.0
 11
2029862.798212033
 21
-153873.1093419835
 31
0.0
  0
LWPOLYLINE
  5
CD
330
17
100
AcDbEntity
  8
节点
100
AcDbPolyline
 90
2
 70
0
 10
2030012.798212033
 20
-158305.4653541271
 10
2030012.798212033
 20
-157481.1923680944
  0
LWPOLYLINE
  5
CE
330
17
100
AcDbEntity
  8
节点
100
AcDbPolyline
 90
2
 70
0
 10
2030012.798212166
 20
-156751.6781751881
 10
2030012.798212166
 20
-156216.4051891554
  0
LWPOLYLINE
  5
CF
330
17
100
AcDbEntity
  8
A-ANNO-TEXT
100
AcDbPolyline
 90
2
 70
0
 10
2040943.459850165
 20
-199035.0661540439
 10
2046762.140552142
 20
-199035.0661540439
  0
LINE
  5
D0
330
17
100
AcDbEntity
  8
A-ANNO-TEXT
100
AcDbLine
 10
2040943.459850165
 20
-198918.6644584232
 30
0.0
 11
2046762.140552142
 21
-198918.6644584232
 31
0.0
  0
LINE
  5
D1
330
17
100
AcDbEntity
  8
DIM_ELEV
100
AcDbLine
 10
2050057.050091475
 20
-198855.2141511948
 30
0.0
 11
2049607.050091475
 21
-198405.2141511948
 31
0.0
  0
LINE
  5
D2
330
17
100
AcDbEntity
  8
DIM_ELEV
100
AcDbLine
 10
2050057.050091475
 20
-198855.2141511948
 30
0.0
 11
2050507.050091475
 21
-198405.2141511948
 31
0.0
  0
LINE
  5
D3
330
17
100
AcDbEntity
  8
DIM_ELEV
100
AcDbLine
 10
2049607.050091475
 20
-198405.2141511948
 30
0.0
 11
2051940.786292121
 21
-198405.2141511948
 31
0.0
  0
LINE
  5
D4
330
17
100
AcDbEntity
  8
节点
100
AcDbLine
 10
2045181.438012761
 20
-166258.0751218943
 30
0.0
 11
2049352.775218425
 21
-166258.0751222326
 31
0.0
  0
LWPOLYLINE
  5
D5
330
17
100
AcDbEntity
  8
节点
100
AcDbPolyline
 90
2
 70
0
 10
2045181.438012761
 20
-166408.0751218943
 10
2045959.438012761
 20
-166408.0751218943
  0
LINE
  5
D6
330
17
100
AcDbEntity
  8
节点
100
AcDbLine
 10
2026657.788219352
 20
-153873.1093414314
 30
0.0
 11
2027502.288219352
 21
-153873.1093414314
 31
0.0
  0
LINE
  5
D7
330
17
100
AcDbEntity
  8
节点
100
AcDbLine
 10
2026657.788219352
 20
-157413.1781519931
 30
0.0
 11
2026657.788219352
 21
-153873.1093414314
 31
0.0
  0
LWPOLYLINE
  5
D8
330
17
100
AcDbEntity
  8
节点
100
AcDbPolyline
 90
2
 70
0
 10
2026807.788219352
 20
-157413.1781519931
 10
2026807.788219352
 20
-156877.9051659606
  0
LINE
  5
D9
330
17
100
AcDbEntity
  8
节点
100
AcDbLine
 10
1990710.328493342
 20
-176652.0925897625
 30
0.0
 11
1990548.605343456
 21
-176652.0925897625
 31
0.0
  0
LINE
  5
DA
330
17
100
AcDbEntity
  8
节点
100
AcDbLine
 10
1994259.644098371
 20
-176652.0925894254
 30
0.0
 11
1990185.695815569
 21
-176652.0925897637
 31
0.0
  0
LWPOLYLINE
  5
DB
330
17
100
AcDbEntity
  8
节点
100
AcDbPolyline
 90
2
 70
0
 10
1994259.644098371
 20
-176802.0925894254
 10
1993481.644098371
 20
-176802.0925894254
  0
LINE
  5
DC
330
17
100
AcDbEntity
  8
结构梁问题
100
AcDbLine
 10
2007644.768224924
 20
-157629.790793767
 30
0.0
 11
2003973.998133172
 21
-142346.6039510897
 31
0.0
  0
LINE
  5
DD
330
17
100
AcDbEntity
  8
结构梁问题
100
AcDbLine
 10
2003973.998133172
 20
-142346.6039510898
 30
0.0
 11
1995492.078046669
 21
-142346.6039510898
 31
0.0
  0
LWPOLYLINE
  5
DE
330
17
100
AcDbEntity
  8
结构梁问题
100
AcDbPolyline
 90
84
 70
0
 10
2006686.953821517
 20
-175641.4465543435
 10
2006494.602286718
 20
-176218.0819109443
 10
2006494.602286718
 20
-176218.0819109443
 10
2006374.381934909
 20
-176794.715011115
 10
2006374.381934909
 20
-176794.715011115
 10
2006254.156442622
 20
-177347.3216380935
 10
2006254.156442622
 20
-177347.3216380935
 10
2006230.114428451
 20
-177899.9305215025
 10
2006230.114428451
 20
-177899.9305215025
 10
2006157.983245461
 20
-178428.5106752894
 10
2006157.983245461
 20
-178428.5106752894
 10
2006133.936090813
 20
-178981.1195586987
 10
2006133.936090813
 20
-178981.1195586987
 10
2006133.936090813
 20
-179557.7526588689
 10
2006133.936090813
 20
-179557.7526588689
 10
2006157.983245461
 20
-180062.3063394645
 10
2006157.983245461
 20
-180062.3063394645
 10
2006254.156442622
 20
-180590.8887496821
 10
2006254.156442622
 20
-180590.8887496821
 10
2006278.20359727
 20
-181119.4689034687
 10
2006278.20359727
 20
-181119.4689034687
 10
2006278.20359727
 20
-181672.0777868781
 10
2006278.20359727
 20
-181672.0777868781
 10
2006278.20359727
 20
-182248.7108870486
 10
2006278.20359727
 20
-182248.7108870486
 10
2006278.20359727
 20
-182825.3462436496
 10
2006278.20359727
 20
-182825.3462436496
 10
2006302.245611441
 20
-183353.9263974365
 10
2006302.245611441
 20
-183353.9263974365
 10
2006302.245611441
 20
-183906.5330244152
 10
2006302.245611441
 20
-183906.5330244152
 10
2006374.381934909
 20
-184411.0889614408
 10
2006374.381934909
 20
-184411.0889614408
 10
2006542.691455537
 20
-184915.6426420358
 10
2006542.691455537
 20
-184915.6426420358
 10
2006686.953821517
 20
-185420.198579062
 10
2006686.953821517
 20
-185420.198579062
 10
2006879.310496795
 20
-185900.7257864654
 10
2006879.310496795
 20
-185900.7257864654
 10
2007143.793214584
 20
-186357.228777108
 10
2007143.793214584
 20
-186357.228777108
 10
2007648.726916947
 20
-186333.2023039161
 10
2007648.726916947
 20
-186333.2023039161
 10
2007961.298803555
 20
-185900.7257864654
 10
2007961.298803555
 20
-185900.7257864654
 10
2008105.566310013
 20
-185348.1191594869
 10
2008105.566310013
 20
-185348.1191594869
 10
2008153.655478832
 20
-184747.4595861246
 10
2008153.655478832
 20
-184747.4595861246
 10
2008177.697493003
 20
-184170.8242295237
 10
2008177.697493003
 20
-184170.8242295237
 10
2008201.744647651
 20
-183570.1646561616
 10
2008201.744647651
 20
-183570.1646561616
 10
2008201.744647651
 20
-182993.5292995607
 10
2008201.744647651
 20
-182993.5292995607
 10
2008201.744647651
 20
-182368.8432530069
 10
2008201.744647651
 20
-182368.8432530069
 10
2008153.655478832
 20
-181792.2101528368
 10
2008153.655478832
 20
-181792.2101528368
 10
2008129.608324184
 20
-181287.6542158106
 10
2008129.608324184
 20
-181287.6542158106
 10
2008057.477141194
 20
-180711.0211156404
 10
2008057.477141194
 20
-180711.0211156404
 10
2007985.345958204
 20
-180134.3857590395
 10
2007985.345958204
 20
-180134.3857590395
 10
2007961.298803555
 20
-179557.7526588689
 10
2007961.298803555
 20
-179557.7526588689
 10
2007937.256789385
 20
-179005.1460318903
 10
2007937.256789385
 20
-179005.1460318903
 10
2007913.209634736
 20
-178404.4842020979
 10
2007913.209634736
 20
-178404.4842020979
 10
2007913.209634736
 20
-177851.8775751192
 10
2007913.209634736
 20
-177851.8775751192
 10
2007913.209634736
 20
-177299.2686917099
 10
2007913.209634736
 20
-177299.2686917099
 10
2007889.167620566
 20
-176770.6885379229
 10
2007889.167620566
 20
-176770.6885379229
 10
2007889.167620566
 20
-176266.1326008972
 10
2007889.167620566
 20
-176266.1326008972
 10
2007792.989282927
 20
-175761.5789203018
 10
2007792.989282927
 20
-175761.5789203018
 10
2007336.149889861
 20
-175545.3406615767
 10
2007336.149889861
 20
-175545.3406615767
 10
2006686.953821517
 20
-175641.4465543434
  0
LINE
  5
DF
330
17
100
AcDbEntity
  8
结构梁问题
100
AcDbLine
 10
2007366.524093986
 20
-186577.905088559
 30
0.0
 11
2005262.221003606
 21
-204699.1282679949
 31
0.0
  0
LINE
  5
E0
330
17
100
AcDbEntity
  8
结构梁问题
100
AcDbLine
 10
2005262.221003606
 20
-204699.1282679949
 30
0.0
 11
1996713.000164713
 21
-204699.1282679949
 31
0.0
  0
LINE
  5
E1
330
17
100
AcDbEntity
  8
结构梁问题
100
AcDbLine
 10
2028666.524005877
 20
-160377.9051006053
 30
0.0
 11
2033867.921768285
 21
-141595.9268944209
 31
0.0
  0
LINE
  5
E2
330
17
100
AcDbEntity
  8
结构梁问题
100
AcDbLine
 10
2033867.921768285
 20
-141595.9268944209
 30
0.0
 11
2042499.734803427
 21
-141595.9268944209
 31
0.0
  0
LWPOLYLINE
  5
E3
330
17
100
AcDbEntity
  8
结构梁问题
100
AcDbPolyline
 90
102
 70
0
 10
2011020.90083137
 20
-175738.065737236
 10
2010881.198069103
 20
-176240.6111945833
 10
2010881.198069103
 20
-176240.6111945833
 10
2010657.67981805
 20
-176826.9153563707
 10
2010657.67981805
 20
-176826.9153563707
 10
2010517.982196262
 20
-177413.2195181582
 10
2010517.982196262
 20
-177413.2195181582
 10
2010434.161566998
 20
-177971.6048639427
 10
2010434.161566999
 20
-177971.6048639427
 10
2010350.340937734
 20
-178529.9902097272
 10
2010350.340937734
 20
-178529.9902097272
 10
2010294.458804731
 20
-179088.3755555117
 10
2010294.458804731
 20
-179088.3755555117
 10
2010182.699679205
 20
-179618.8398288625
 10
2010182.699679205
 20
-179618.8398288625
 10
2010043.002057416
 20
-180177.225174647
 10
2010043.002057416
 20
-180177.225174647
 10
2009931.237791412
 20
-180679.7728884249
 10
2009931.237791412
 20
-180679.7728884249
 10
2009847.422302626
 20
-181266.0770502124
 10
2009847.422302626
 20
-181266.0770502124
 10
2009735.658036622
 20
-181796.5413235632
 10
2009735.658036622
 20
-181796.5413235632
 10
2009595.960414834
 20
-182382.8454853507
 10
2009595.960414834
 20
-182382.8454853507
 10
2009512.139785569
 20
-182997.0684631412
 10
2009512.139785569
 20
-182997.0684631412
 10
2009456.262793044
 20
-183499.6161769197
 10
2009456.262793044
 20
-183499.6161769197
 10
2009400.380660043
 20
-184002.161634267
 10
2009400.380660043
 20
-184002.161634267
 10
2009400.380660043
 20
-184532.6281640484
 10
2009400.380660043
 20
-184532.6281640484
 10
2009372.44216378
 20
-185063.0946938299
 10
2009372.44216378
 20
-185063.0946938299
 10
2009372.44216378
 20
-185593.5589671807
 10
2009372.44216378
 20
-185593.5589671807
 10
2009456.262793044
 20
-186096.1066809587
 10
2009456.262793044
 20
-186096.1066809587
 10
2009679.781044098
 20
-186654.4897703125
 10
2009679.781044098
 20
-186654.4897703125
 10
2009931.237791412
 20
-187157.0374840909
 10
2009931.237791412
 20
-187157.0374840909
 10
2010294.458804731
 20
-187603.7453094322
 10
2010294.458804731
 20
-187603.7453094322
 10
2010713.561951052
 20
-187910.8567983277
 10
2010713.561951052
 20
-187910.8567983277
 10
2011216.48058616
 20
-188106.2907667799
 10
2011216.48058616
 20
-188106.2907667799
 10
2011775.28135427
 20
-188106.2907667799
 10
2011775.28135427
 20
-188106.2907667799
 10
2012194.379360113
 20
-187799.1792778844
 10
2012194.379360113
 20
-187799.1792778844
 10
2012501.71824043
 20
-187352.4714525432
 10
2012501.71824043
 20
-187352.4714525432
 10
2012809.057120747
 20
-186822.0071791924
 10
2012809.057120747
 20
-186822.0071791924
 10
2013004.636875537
 20
-186347.3782814174
 10
2013004.636875537
 20
-186347.3782814174
 10
2013228.160267068
 20
-185788.992935633
 10
2013228.160267068
 20
-185788.992935633
 10
2013395.796385118
 20
-185258.5286622822
 10
2013395.796385118
 20
-185258.5286622822
 10
2013563.437643647
 20
-184672.2245004947
 10
2013563.437643647
 20
-184672.2245004947
 10
2013703.135265436
 20
-184169.6767867162
 10
2013703.135265436
 20
-184169.6767867162
 10
2013898.715020226
 20
-183583.3726249287
 10
2013898.715020226
 20
-183583.3726249287
 10
2013982.535649491
 20
-182969.1496471382
 10
2013982.535649491
 20
-182969.1496471382
 10
2014066.356278755
 20
-182382.8454853507
 10
2014066.356278755
 20
-182382.8454853507
 10
2014122.238411757
 20
-181712.7848755537
 10
2014122.238411757
 20
-181712.7848755537
 10
2014150.176908019
 20
-181210.2371617757
 10
2014150.176908019
 20
-181210.2371617757
 10
2014150.176908019
 20
-180679.7728884249
 10
2014150.176908019
 20
-180679.7728884249
 10
2014122.238411757
 20
-180121.3875426405
 10
2014122.238411757
 20
-180121.3875426405
 10
2014094.294775017
 20
-179590.9210128595
 10
2014094.294775017
 20
-179590.9210128595
 10
2013982.535649491
 20
-179088.3755555117
 10
2013982.535649491
 20
-179088.3755555117
 10
2013842.838027702
 20
-178557.9090257302
 10
2013842.838027702
 20
-178557.9090257302
 10
2013731.078902176
 20
-177943.6860479397
 10
2013731.078902176
 20
-177943.6860479397
 10
2013563.437643647
 20
-177441.140590592
 10
2013563.437643647
 20
-177441.140590592
 10
2013339.919392594
 20
-176938.592876814
 10
2013339.919392594
 20
-176938.592876814
 10
2013088.457504801
 20
-176491.8850514722
 10
2013088.457504801
 20
-176491.8850514722
 10
2012725.236491483
 20
-176045.177226131
 10
2012725.236491483
 20
-176045.177226131
 10
2012278.199989377
 20
-175793.903369242
 10
2012278.199989377
 20
-175793.903369242
 10
2011803.219850532
 20
-175570.5505847867
 10
2011803.219850532
 20
-175570.5505847867
 10
2011020.900831369
 20
-175738.065737236
  0
LINE
  5
E4
330
17
100
AcDbEntity
  8
结构梁问题
100
AcDbLine
 10
2012920.905756769
 20
-185989.9292265223
 30
0.0
 11
2016582.50015053
 21
-205204.4074447194
 31
0.0
  0
LINE
  5
E5
330
17
100
AcDbEntity
  8
结构梁问题
100
AcDbLine
 10
2016582.50015053
 20
-205204.4074447194
 30
0.0
 11
2025607.484350057
 21
-205204.4074447194
 31
0.0
  0
LWPOLYLINE
  5
E6
330
17
100
AcDbEntity
  8
修改2015.10.15
100
AcDbPolyline
 90
125
 70
1
 10
1992350.500167374
 20
-183647.7092948461
 10
1993350.500167374
 20
-183647.7092948461
 10
1994350.500167374
 20
-183647.7092948461
 10
1995350.500167374
 20
-183647.7092948461
 10
1996350.500167374
 20
-183647.7092948461
 10
1997350.500167374
 20
-183647.7092948461
 10
1998350.500167374
 20
-183647.7092948461
 10
1999350.500167374
 20
-183647.7092948461
 10
2000350.500167374
 20
-183647.7092948461
 10
2001350.500167374
 20
-183647.7092948461
 10
2002350.500167374
 20
-183647.7092948461
 10
2003350.500167374
 20
-183647.7092948461
 10
2004350.500167374
 20
-183647.7092948461
 10
2005350.500167374
 20
-183647.7092948461
 10
2006350.500167374
 20
-183647.7092948461
 10
2007350.500167374
 20
-183647.7092948461
 10
2008350.500167374
 20
-183647.7092948461
 10
2009350.500167374
 20
-183647.7092948461
 10
2010350.500167374
 20
-183647.7092948461
 10
2011350.500167374
 20
-183647.7092948461
 10
2012350.500167374
 20
-183647.7092948461
 10
2013350.500167374
 20
-183647.7092948461
 10
2014350.500167374
 20
-183647.7092948461
 10
2015350.500167374
 20
-183647.7092948461
 10
2016350.500167374
 20
-183647.7092948461
 10
2017350.500167374
 20
-183647.7092948461
 10
2018350.500167374
 20
-183647.7092948461
 10
2019350.500167374
 20
-183647.7092948461
 10
2020350.500167374
 20
-183647.7092948461
 10
2021350.500167374
 20
-183647.7092948461
 10
2022350.500167374
 20
-183647.7092948461
 10
2023350.500167374
 20
-183647.7092948461
 10
2024350.500167374
 20
-183647.7092948461
 10
2025350.500167374
 20
-183647.7092948461
 10
2026350.500167374
 20
-183647.7092948461
 10
2027350.500167374
 20
-183647.7092948461
 10
2028350.500167374
 20
-183647.7092948461
 10
2029350.500167374
 20
-183647.7092948461
 10
2030350.500167374
 20
-183647.7092948461
 10
2031350.500167374
 20
-183647.7092948461
 10
2032350.500167374
 20
-183647.7092948461
 10
2033350.500167374
 20
-183647.7092948461
 10
2034350.500167374
 20
-183647.7092948461
 10
2035350.500167374
 20
-183647.7092948461
 10
2036350.500167374
 20
-183647.7092948461
 10
2037350.500167374
 20
-183647.7092948461
 10
2038350.500167374
 20
-183647.7092948461
 10
2039350.500167374
 20
-183647.7092948461
 10
2040350.500167374
 20
-183647.7092948461
 10
2041350.500167374
 20
-183647.7092948461
 10
2042350.500167374
 20
-183647.7092948461
 10
2043350.500167374
 20
-183647.7092948461
 10
2044350.500167374
 20
-183647.7092948461
 10
2045350.500167374
 20
-183647.7092948461
 10
2046350.500167374
 20
-183647.7092948461
 10
2047350.500167374
 20
-183647.7092948461
 10
2048350.500167374
 20
-183647.7092948461
 10
2049350.500167374
 20
-183647.7092948461
 10
2050328.000167374
 20
-183670.2092948461
 10
2050328.000167374
 20
-184670.2092948461
 10
2050328.000167374
 20
-185670.2092948461
 10
2050328.000167374
 20
-186670.2092948461
 10
2050328.000167374
 20
-187670.2092948461
 10
2049884.000167374
 20
-188226.2092948461
 10
2048884.000167374
 20
-188226.2092948461
 10
2047884.000167374
 20
-188226.2092948461
 10
2046884.000167374
 20
-188226.2092948461
 10
2045884.000167374
 20
-188226.2092948461
 10
2044884.000167374
 20
-188226.2092948461
 10
2043884.000167374
 20
-188226.2092948461
 10
2042884.000167374
 20
-188226.2092948461
 10
2041884.000167374
 20
-188226.2092948461
 10
2040884.000167374
 20
-188226.2092948461
 10
2039884.000167374
 20
-188226.2092948461
 10
2038884.000167374
 20
-188226.2092948461
 10
2037884.000167374
 20
-188226.2092948461
 10
2036884.000167374
 20
-188226.2092948461
 10
2035884.000167374
 20
-188226.2092948461
 10
2034884.000167374
 20
-188226.2092948461
 10
2033884.000167374
 20
-188226.2092948461
 10
2032884.000167374
 20
-188226.2092948461
 10
2031884.000167374
 20
-188226.2092948461
 10
2030884.000167374
 20
-188226.2092948461
 10
2029884.000167374
 20
-188226.2092948461
 10
2028884.000167374
 20
-188226.2092948461
 10
2027884.000167374
 20
-188226.2092948461
 10
2026884.000167374
 20
-188226.2092948461
 10
2025884.000167374
 20
-188226.2092948461
 10
2024884.000167374
 20
-188226.2092948461
 10
2023884.000167374
 20
-188226.2092948461
 10
2022884.000167374
 20
-188226.2092948461
 10
2021884.000167374
 20
-188226.2092948461
 10
2020884.000167374
 20
-188226.2092948461
 10
2019884.000167374
 20
-188226.2092948461
 10
2018884.000167374
 20
-188226.2092948461
 10
2017884.000167374
 20
-188226.2092948461
 10
2016884.000167374
 20
-188226.2092948461
 10
2015884.000167374
 20
-188226.2092948461
 10
2014884.000167374
 20
-188226.2092948461
 10
2013884.000167374
 20
-188226.2092948461
 10
2012884.000167374
 20
-188226.2092948461
 10
2011884.000167374
 20
-188226.2092948461
 10
2010884.000167374
 20
-188226.2092948461
 10
2009884.000167374
 20
-188226.2092948461
 10
2008884.000167374
 20
-188226.2092948461
 10
2007884.000167374
 20
-188226.2092948461
 10
2006884.000167374
 20
-188226.2092948461
 10
2005884.000167374
 20
-188226.2092948461
 10
2004884.000167374
 20
-188226.2092948461
 10
2003884.000167374
 20
-188226.2092948461
 10
2002884.000167374
 20
-188226.2092948461
 10
2001884.000167374
 20
-188226.2092948461
 10
2000884.000167374
 20
-188226.2092948461
 10
1999884.000167374
 20
-188226.2092948461
 10
1998884.000167374
 20
-188226.2092948461
 10
1997884.000167374
 20
-188226.2092948461
 10
1996884.000167374
 20
-188226.2092948461
 10
1995884.000167374
 20
-188226.2092948461
 10
1994884.000167374
 20
-188226.2092948461
 10
1993884.000167374
 20
-188226.2092948461
 10
1992884.000167374
 20
-188226.2092948461
 10
1992350.500167374
 20
-187759.7092948461
 10
1992350.500167374
 20
-186759.7092948461
 10
1992350.500167374
 20
-185759.7092948461
 10
1992350.500167374
 20
-184759.7092948461
  0
LWPOLYLINE
  5
E7
330
17
100
AcDbEntity
  8
修改2015.10.15
100
AcDbPolyline
 90
22
 70
1
 10
2042915.589365156
 20
-164121.9321695434
 10
2042533.079175746
 20
-165056.4759417751
 10
2042533.079175746
 20
-165056.4759417751
 10
2042915.589365156
 20
-165927.3019551395
 10
2043871.860320525
 20
-166245.8965102299
 10
2043871.860320525
 20
-166245.8965102299
 10
2044976.887079173
 20
-166330.854162137
 10
2044976.887079173
 20
-166330.854162137
 10
2046124.417647405
 20
-166330.854162137
 10
2046124.417647405
 20
-166330.854162137
 10
2047101.939001513
 20
-165969.7817412184
 10
2047101.939001513
 20
-165969.7817412184
 10
2047951.960975291
 20
-165417.5502829444
 10
2047951.960975291
 20
-165417.5502829444
 10
2047675.702779576
 20
-164398.0469385548
 10
2047675.702779576
 20
-164398.0469385548
 10
2046868.184615382
 20
-163782.0977214132
 10
2046868.184615382
 20
-163782.0977214132
 10
2045848.15945169
 20
-163697.1400695061
 10
2045848.15945169
 20
-163697.1400695061
 10
2044806.88388926
 20
-163675.9001764667
 10
2044806.88388926
 20
-163675.9001764667
  0
LWPOLYLINE
  5
E8
330
17
100
AcDbEntity
  8
WALL
100
AcDbPolyline
 90
4
 70
1
 10
2069379.000102525
 20
-164877.9050946436
 10
2068879.0
 20
-164877.9050946436
 10
2068879.0
 20
-185777.9051302374
 10
2069379.000102525
 20
-185777.9051302374
  0
LWPOLYLINE
  5
E9
330
17
100
AcDbEntity
  8
修改2015.11.04
100
AcDbPolyline
 90
130
 70
1
 10
1989992.500047393
 20
-183627.9050294684
 10
1990992.500047393
 20
-183627.9050294684
 10
1991992.500047393
 20
-183627.9050294684
 10
1992992.500047393
 20
-183627.9050294684
 10
1993992.500047393
 20
-183627.9050294684
 10
1994992.500047393
 20
-183627.9050294684
 10
1995992.500047393
 20
-183627.9050294684
 10
1996992.500047393
 20
-183627.9050294684
 10
1997992.500047393
 20
-183627.9050294684
 10
1998992.500047393
 20
-183627.9050294684
 10
1999992.500047393
 20
-183627.9050294684
 10
2000992.500047393
 20
-183627.9050294684
 10
2001992.500047393
 20
-183627.9050294684
 10
2002992.500047393
 20
-183627.9050294684
 10
2003992.500047393
 20
-183627.9050294684
 10
2004992.500047393
 20
-183627.9050294684
 10
2005992.500047393
 20
-183627.9050294684
 10
2006992.500047393
 20
-183627.9050294684
 10
2007992.500047393
 20
-183627.9050294684
 10
2008992.500047393
 20
-183627.9050294684
 10
2009992.500047393
 20
-183627.9050294684
 10
2010992.500047393
 20
-183627.9050294684
 10
2011992.500047393
 20
-183627.9050294684
 10
2012992.500047393
 20
-183627.9050294684
 10
2013992.500047393
 20
-183627.9050294684
 10
2014992.500047393
 20
-183627.9050294684
 10
2015992.500047393
 20
-183627.9050294684
 10
2016992.500047393
 20
-183627.9050294684
 10
2017992.500047393
 20
-183627.9050294684
 10
2018992.500047393
 20
-183627.9050294684
 10
2019992.500047393
 20
-183627.9050294684
 10
2020992.500047393
 20
-183627.9050294684
 10
2021992.500047393
 20
-183627.9050294684
 10
2022992.500047393
 20
-183627.9050294684
 10
2023992.500047393
 20
-183627.9050294684
 10
2024992.500047393
 20
-183627.9050294684
 10
2025992.500047393
 20
-183627.9050294684
 10
2026992.500047393
 20
-183627.9050294684
 10
2027992.500047393
 20
-183627.9050294684
 10
2028992.500047393
 20
-183627.9050294684
 10
2029992.500047393
 20
-183627.9050294684
 10
2030992.500047393
 20
-183627.9050294684
 10
2031992.500047393
 20
-183627.9050294684
 10
2032992.500047393
 20
-183627.9050294684
 10
2033992.500047393
 20
-183627.9050294684
 10
2034992.500047393
 20
-183627.9050294684
 10
2035992.500047393
 20
-183627.9050294684
 10
2036992.500047393
 20
-183627.9050294684
 10
2037992.500047393
 20
-183627.9050294684
 10
2038992.500047393
 20
-183627.9050294684
 10
2039992.500047393
 20
-183627.9050294684
 10
2040992.500047393
 20
-183627.9050294684
 10
2041992.500047393
 20
-183627.9050294684
 10
2042992.500047393
 20
-183627.9050294684
 10
2043992.500047393
 20
-183627.9050294684
 10
2044992.500047393
 20
-183627.9050294684
 10
2045992.500047393
 20
-183627.9050294684
 10
2046992.500047393
 20
-183627.9050294684
 10
2047992.500047393
 20
-183627.9050294684
 10
2048992.500047393
 20
-183627.9050294684
 10
2049461.500047393
 20
-184158.9050294684
 10
2049461.500047393
 20
-185158.9050294684
 10
2049461.500047393
 20
-186158.9050294684
 10
2049461.500047393
 20
-187158.9050294684
 10
2049461.500047393
 20
-188158.9050294684
 10
2049461.500047393
 20
-189158.9050294684
 10
2048502.100622512
 20
-189199.505604588
 10
2047502.100622512
 20
-189199.505604588
 10
2046502.100622512
 20
-189199.505604588
 10
2045502.100622512
 20
-189199.505604588
 10
2044502.100622512
 20
-189199.505604588
 10
2043502.100622512
 20
-189199.505604588
 10
2042502.100622512
 20
-189199.505604588
 10
2041502.100622512
 20
-189199.505604588
 10
2040502.100622512
 20
-189199.505604588
 10
2039502.100622512
 20
-189199.505604588
 10
2038502.100622512
 20
-189199.505604588
 10
2037502.100622512
 20
-189199.505604588
 10
2036502.100622512
 20
-189199.505604588
 10
2035502.100622512
 20
-189199.505604588
 10
2034502.100622512
 20
-189199.505604588
 10
2033502.100622512
 20
-189199.505604588
 10
2032502.100622512
 20
-189199.505604588
 10
2031502.100622512
 20
-189199.505604588
 10
2030502.100622512
 20
-189199.505604588
 10
2029502.100622512
 20
-189199.505604588
 10
2028502.100622512
 20
-189199.505604588
 10
2027502.100622512
 20
-189199.505604588
 10
2026502.100622512
 20
-189199.505604588
 10
2025502.100622512
 20
-189199.505604588
 10
2024502.100622512
 20
-189199.505604588
 10
2023502.100622512
 20
-189199.505604588
 10
2022502.100622512
 20
-189199.505604588
 10
2021502.100622512
 20
-189199.505604588
 10
2020502.100622512
 20
-189199.505604588
 10
2019502.100622512
 20
-189199.505604588
 10
2018502.100622512
 20
-189199.505604588
 10
2017502.100622512
 20
-189199.505604588
 10
2016502.100622512
 20
-189199.505604588
 10
2015502.100622512
 20
-189199.505604588
 10
2014502.100622512
 20
-189199.505604588
 10
2013502.100622512
 20
-189199.505604588
 10
2012502.100622512
 20
-189199.505604588
 10
2011502.100622512
 20
-189199.505604588
 10
2010502.100622512
 20
-189199.505604588
 10
2009502.100622512
 20
-189199.505604588
 10
2008502.100622512
 20
-189199.505604588
 10
2007502.100622512
 20
-189199.505604588
 10
2006502.100622512
 20
-189199.505604588
 10
2005502.100622512
 20
-189199.505604588
 10
2004502.100622512
 20
-189199.505604588
 10
2003502.100622512
 20
-189199.505604588
 10
2002502.100622512
 20
-189199.505604588
 10
2001502.100622512
 20
-189199.505604588
 10
2000502.100622512
 20
-189199.505604588
 10
1999502.100622512
 20
-189199.505604588
 10
1998502.100622512
 20
-189199.505604588
 10
1997502.100622512
 20
-189199.505604588
 10
1996502.100622512
 20
-189199.505604588
 10
1995502.100622512
 20
-189199.505604588
 10
1994502.100622512
 20
-189199.505604588
 10
1993502.100622512
 20
-189199.505604588
 10
1992502.100622512
 20
-189199.505604588
 10
1991502.100622512
 20
-189199.505604588
 10
1990502.100622512
 20
-189199.505604588
 10
1989992.500047393
 20
-188709.1061797075
 10
1989992.500047393
 20
-187709.1061797075
 10
1989992.500047393
 20
-186709.1061797075
 10
1989992.500047393
 20
-185709.1061797075
 10
1989992.500047393
 20
-184709.1061797075
  0
LWPOLYLINE
  5
EA
330
17
100
AcDbEntity
  8
修改2015.11.04
100
AcDbPolyline
 90
18
 70
1
 10
2049640.500047393
 20
-183461.505604588
 10
2050640.500047393
 20
-183461.505604588
 10
2051640.500047393
 20
-183461.505604588
 10
2052640.500047393
 20
-183461.505604588
 10
2053640.500047393
 20
-183461.505604588
 10
2054583.000047393
 20
-183519.005604588
 10
2054583.000047393
 20
-184519.005604588
 10
2054583.000047393
 20
-185519.005604588
 10
2054583.000047393
 20
-186519.005604588
 10
2054523.500047393
 20
-187459.505604588
 10
2053523.500047393
 20
-187459.505604588
 10
2052523.500047393
 20
-187459.505604588
 10
2051523.500047393
 20
-187459.505604588
 10
2050523.500047393
 20
-187459.505604588
 10
2049640.500047393
 20
-187342.505604588
 10
2049640.500047393
 20
-186342.505604588
 10
2049640.500047393
 20
-185342.505604588
 10
2049640.500047393
 20
-184342.505604588
  0
LWPOLYLINE
  5
EB
330
17
100
AcDbEntity
  8
修改2015.11.04
100
AcDbPolyline
 90
73
 70
1
 10
2044468.500047393
 20
-154046.005604588
 10
2045468.500047393
 20
-154046.005604588
 10
2046468.500047393
 20
-154046.005604588
 10
2047468.500047393
 20
-154046.005604588
 10
2048042.000047393
 20
-154472.505604588
 10
2048042.000047393
 20
-155472.505604588
 10
2048042.000047393
 20
-156472.505604588
 10
2048042.000047393
 20
-157472.505604588
 10
2048042.000047393
 20
-158472.505604588
 10
2048042.000047393
 20
-159472.505604588
 10
2048042.000047393
 20
-160472.505604588
 10
2048042.000047393
 20
-161472.505604588
 10
2048042.000047393
 20
-162472.505604588
 10
2048042.000047393
 20
-163472.505604588
 10
2048042.000047393
 20
-164472.505604588
 10
2048042.000047393
 20
-165472.505604588
 10
2048042.000047393
 20
-166472.505604588
 10
2048042.000047393
 20
-167472.505604588
 10
2048042.000047393
 20
-168472.505604588
 10
2048042.000047393
 20
-169472.505604588
 10
2048042.000047393
 20
-170472.505604588
 10
2048042.000047393
 20
-171472.505604588
 10
2048042.000047393
 20
-172472.505604588
 10
2048042.000047393
 20
-173472.505604588
 10
2048042.000047393
 20
-174472.505604588
 10
2048042.000047393
 20
-175472.505604588
 10
2048042.000047393
 20
-176472.505604588
 10
2048042.000047393
 20
-177472.505604588
 10
2048042.000047393
 20
-178472.505604588
 10
2048042.000047393
 20
-179472.505604588
 10
2048042.000047393
 20
-180472.505604588
 10
2048042.000047393
 20
-181472.505604588
 10
2048042.000047393
 20
-182472.505604588
 10
2048042.000047393
 20
-183472.505604588
 10
2048042.000047393
 20
-184472.505604588
 10
2048042.000047393
 20
-185472.505604588
 10
2048042.000047393
 20
-186472.505604588
 10
2047641.500047393
 20
-187072.005604588
 10
2046641.500047393
 20
-187072.005604588
 10
2045641.500047393
 20
-187072.005604588
 10
2044641.500047393
 20
-187072.005604588
 10
2044468.500047393
 20
-186245.005604588
 10
2044468.500047393
 20
-185245.005604588
 10
2044468.500047393
 20
-184245.005604588
 10
2044468.500047393
 20
-183245.005604588
 10
2044468.500047393
 20
-182245.005604588
 10
2044468.500047393
 20
-181245.005604588
 10
2044468.500047393
 20
-180245.005604588
 10
2044468.500047393
 20
-179245.005604588
 10
2044468.500047393
 20
-178245.005604588
 10
2044468.500047393
 20
-177245.005604588
 10
2044468.500047393
 20
-176245.005604588
 10
2044468.500047393
 20
-175245.005604588
 10
2044468.500047393
 20
-174245.005604588
 10
2044468.500047393
 20
-173245.005604588
 10
2044468.500047393
 20
-172245.005604588
 10
2044468.500047393
 20
-171245.005604588
 10
2044468.500047393
 20
-170245.005604588
 10
2044468.500047393
 20
-169245.005604588
 10
2044468.500047393
 20
-168245.005604588
 10
2044468.500047393
 20
-167245.005604588
 10
2044468.500047393
 20
-166245.005604588
 10
2044468.500047393
 20
-165245.005604588
 10
2044468.500047393
 20
-164245.005604588
 10
2044468.500047393
 20
-163245.005604588
 10
2044468.500047393
 20
-162245.005604588
 10
2044468.500047393
 20
-161245.005604588
 10
2044468.500047393
 20
-160245.005604588
 10
2044468.500047393
 20
-159245.005604588
 10
2044468.500047393
 20
-158245.005604588
 10
2044468.500047393
 20
-157245.005604588
 10
2044468.500047393
 20
-156245.005604588
 10
2044468.500047393
 20
-155245.005604588
  0
LWPOLYLINE
  5
EC
330
17
100
AcDbEntity
  8
修改2015.11.04
100
AcDbPolyline
 90
27
 70
0
 10
2042074.79237682
 20
-152528.7949057385
 10
2043125.890472643
 20
-153159.1590837478
 10
2043125.890472643
 20
-153159.1590837478
 10
2044113.924592813
 20
-153327.2570076627
 10
2044113.924592813
 20
-153327.2570076627
 10
2044807.649890599
 20
-153327.2570076627
 10
2045690.573276946
 20
-152570.8183744936
 10
2045690.573276946
 20
-152570.8183744936
 10
2046237.144163542
 20
-151709.3190449891
 10
2046237.144163542
 20
-151709.3190449891
 10
2046573.496663293
 20
-150742.7590191504
 10
2046573.496663293
 20
-150742.7590191504
 10
2046447.365631187
 20
-149734.1755245561
 10
2046447.365631187
 20
-149734.1755245561
 10
2045585.462543124
 20
-149145.8348153015
 10
2045585.462543124
 20
-149145.8348153015
 10
2044576.408124669
 20
-148998.7486257642
 10
2044576.408124669
 20
-148998.7486257642
 10
2043567.353706217
 20
-149124.8230809239
 10
2043567.353706217
 20
-149124.8230809239
 10
2042621.363263416
 20
-149524.054131886
 10
2042621.363263416
 20
-149524.054131886
 10
2042095.815755905
 20
-150469.6003989005
 10
2042095.815755905
 20
-150469.6003989005
 10
2042095.815755905
 20
-151499.1976523195
 10
2042095.815755905
 20
-151499.1976523195
 10
2042074.792376821
 20
-152528.7949057385
  0
LWPOLYLINE
  5
ED
330
17
100
AcDbEntity
  8
结构梁问题
100
AcDbPolyline
 90
89
 70
0
 10
2006837.821580937
 20
-156528.2088488472
 10
2006798.558612318
 20
-157155.9658974685
 10
2006798.558612318
 20
-157155.9658974685
 10
2006739.65901891
 20
-157666.0184994732
 10
2006739.65901891
 20
-157666.0184994732
 10
2006661.13308167
 20
-158234.9233247863
 10
2006661.13308167
 20
-158234.9233247863
 10
2006641.501597359
 20
-158744.9781832212
 10
2006641.501597359
 20
-158744.9781832212
 10
2006641.501597359
 20
-158862.6826298378
 10
2006641.501597359
 20
-159372.7352318425
 10
2006641.501597359
 20
-159372.7352318425
 10
2006582.607144429
 20
-159902.4052416167
 10
2006582.607144429
 20
-159902.4052416167
 10
2006543.339035332
 20
-160432.0752513908
 10
2006543.339035332
 20
-160432.0752513908
 10
2006445.181613781
 20
-161040.2148922427
 10
2006445.181613781
 20
-161040.2148922427
 10
2006366.655676541
 20
-161609.1197175557
 10
2006366.655676541
 20
-161609.1197175557
 10
2006347.019051753
 20
-162119.1745759906
 10
2006347.019051753
 20
-162119.1745759906
 10
2006347.019051753
 20
-162688.0794013037
 10
2006347.019051753
 20
-162688.0794013037
 10
2006347.019051753
 20
-163237.3668188473
 10
2006347.019051753
 20
-163237.3668188473
 10
2006347.019051753
 20
-163767.0368286214
 10
2006347.019051753
 20
-163767.0368286214
 10
2006366.655676541
 20
-164375.1764694733
 10
2006366.655676541
 20
-164375.1764694733
 10
2006386.287160851
 20
-164924.4661434471
 10
2006386.287160851
 20
-164924.4661434471
 10
2006386.287160851
 20
-165512.9883765295
 10
2006386.287160851
 20
-165512.9883765295
 10
2006445.181613781
 20
-166023.0409785343
 10
2006445.181613781
 20
-166023.0409785343
 10
2006562.97566012
 20
-166572.3283960779
 10
2006562.97566012
 20
-166572.3283960779
 10
2006739.65901891
 20
-167062.7635903131
 10
2006739.65901891
 20
-167062.7635903131
 10
2007053.773048826
 20
-167455.1117457013
 10
2007053.773048826
 20
-167455.1117457013
 10
2007328.618969645
 20
-167906.3143808284
 10
2007328.618969645
 20
-167906.3143808284
 10
2007780.15853021
 20
-167553.1987845485
 10
2007780.15853021
 20
-167553.1987845485
 10
2007937.210404691
 20
-166984.2939592354
 10
2007937.210404691
 20
-166984.2939592354
 10
2007996.109998098
 20
-166435.0065416918
 10
2007996.109998098
 20
-166435.0065416918
 10
2007996.109998098
 20
-165905.3365319177
 10
2007996.109998098
 20
-165905.3365319177
 10
2008035.372966718
 20
-165356.0491143746
 10
2008035.372966718
 20
-165356.0491143746
 10
2008133.530388269
 20
-164865.6139201393
 10
2008133.530388269
 20
-164865.6139201393
 10
2008212.061465986
 20
-164355.5590617039
 10
2008212.061465986
 20
-164355.5590617039
 10
2008231.692950297
 20
-163767.0368286214
 10
2008231.692950297
 20
-163767.0368286214
 10
2008231.692950297
 20
-163217.7494110778
 10
2008231.692950297
 20
-163217.7494110778
 10
2008231.692950297
 20
-162688.0794013037
 10
2008231.692950297
 20
-162688.0794013037
 10
2008192.429981677
 20
-162079.9397604518
 10
2008192.429981677
 20
-162079.9397604518
 10
2008192.429981677
 20
-161530.650086478
 10
2008192.429981677
 20
-161530.650086478
 10
2008172.798497367
 20
-161020.5974844732
 10
2008172.798497367
 20
-161020.5974844732
 10
2008153.167013056
 20
-160451.6926591603
 10
2008153.167013056
 20
-160451.6926591603
 10
2008133.530388269
 20
-159902.4052416167
 10
2008133.530388269
 20
-159902.4052416167
 10
2008094.267419649
 20
-159372.7352318425
 10
2008094.267419649
 20
-159372.7352318425
 10
2008074.635935339
 20
-158843.0652220684
 10
2008074.635935339
 20
-158843.0652220684
 10
2007996.109998098
 20
-158313.3929558635
 10
2007996.109998098
 20
-158313.3929558635
 10
2007897.947436071
 20
-157803.3403538588
 10
2007897.947436071
 20
-157803.3403538588
 10
2007721.258936801
 20
-157332.5225673929
 10
2007721.258936801
 20
-157332.5225673929
 10
2007583.838546632
 20
-156842.0873731576
 10
2007583.838546633
 20
-156842.0873731576
 10
2007407.150047363
 20
-156371.2695866918
 10
2007407.150047363
 20
-156371.2695866918
 10
2006837.821580938
 20
-156528.2088488472
  0
LWPOLYLINE
  5
EE
330
17
100
AcDbEntity
  8
结构梁问题
100
AcDbPolyline
 90
88
 70
1
 10
2027961.756186907
 20
-156639.9912454742
 10
2027909.729412175
 20
-157185.8376063295
 10
2027909.729412175
 20
-157185.8376063295
 10
2027883.718595047
 20
-157549.7344280896
 10
2027883.718595048
 20
-158147.5666938904
 10
2027883.718595048
 20
-158147.5666938904
 10
2027805.681003187
 20
-158667.421230488
 10
2027805.681003187
 20
-158667.421230488
 10
2027623.60014282
 20
-159213.2675913433
 10
2027623.60014282
 20
-159213.2675913433
 10
2027545.56255096
 20
-159733.1221279409
 10
2027545.56255096
 20
-159733.1221279409
 10
2027519.551733833
 20
-160252.9766645385
 10
2027519.551733833
 20
-160252.9766645385
 10
2027441.514141973
 20
-160850.8089303393
 10
2027441.514141973
 20
-160850.8089303393
 10
2027363.476550114
 20
-161422.6493718829
 10
2027363.476550114
 20
-161422.6493718829
 10
2027311.45491586
 20
-161942.5016520498
 10
2027311.45491586
 20
-161942.5016520498
 10
2027311.45491586
 20
-162566.3279985394
 10
2027311.45491586
 20
-162566.3279985394
 10
2027311.45491586
 20
-163138.1661836519
 10
2027311.45491586
 20
-163138.1661836519
 10
2027337.465732987
 20
-163684.0148009379
 10
2027337.465732987
 20
-163684.0148009379
 10
2027389.492507718
 20
-164307.8388909968
 10
2027389.492507718
 20
-164307.8388909968
 10
2027415.503324846
 20
-164853.685251852
 10
2027415.503324846
 20
-164853.685251852
 10
2027441.514141973
 20
-165399.5338691375
 10
2027441.514141973
 20
-165399.5338691375
 10
2027441.514141973
 20
-165997.3661349388
 10
2027441.514141973
 20
-165997.3661349388
 10
2027441.514141973
 20
-166595.1984007396
 10
2027441.514141973
 20
-166595.1984007396
 10
2027493.540916705
 20
-167141.0447615949
 10
2027493.540916705
 20
-167141.0447615949
 10
2027597.589325692
 20
-167660.8992981925
 10
2027597.589325692
 20
-167660.8992981925
 10
2027779.67018606
 20
-168128.7679298441
 10
2027779.67018606
 20
-168128.7679298441
 10
2028299.912230994
 20
-167946.8183907489
 10
2028299.912230994
 20
-167946.8183907489
 10
2028638.068275082
 20
-167556.927488301
 10
2028638.068275082
 20
-167556.927488301
 10
2028768.127501195
 20
-167037.0729517033
 10
2028768.127501195
 20
-167037.0729517033
 10
2028898.186727309
 20
-166543.2124957941
 10
2028898.186727309
 20
-166543.2124957941
 10
2029028.245953423
 20
-166023.3579591964
 10
2029028.245953423
 20
-166023.3579591964
 10
2029132.29436241
 20
-165451.5175176528
 10
2029132.29436241
 20
-165451.5175176528
 10
2029288.369546128
 20
-164957.6570617436
 10
2029288.369546128
 20
-164957.6570617436
 10
2029392.417955115
 20
-164463.7943494036
 10
2029392.417955115
 20
-164463.7943494036
 10
2029470.450406497
 20
-163839.9702593451
 10
2029470.450406497
 20
-163839.9702593451
 10
2029522.47718123
 20
-163190.1520885979
 10
2029522.47718123
 20
-163190.1520885979
 10
2029548.487998357
 20
-162644.3057277426
 10
2029548.487998357
 20
-162644.3057277426
 10
2029574.498815484
 20
-162098.4593668874
 10
2029574.498815484
 20
-162098.4593668874
 10
2029652.536407343
 20
-161474.6330203982
 10
2029652.536407343
 20
-161474.6330203982
 10
2029704.558041597
 20
-160928.7866595429
 10
2029704.558041597
 20
-160928.7866595429
 10
2029756.58481633
 20
-160330.9543937422
 10
2029756.58481633
 20
-160330.9543937422
 10
2029782.595633457
 20
-159811.0998571445
 10
2029782.595633457
 20
-159811.0998571445
 10
2029808.606450584
 20
-159265.2534962893
 10
2029808.606450584
 20
-159265.2534962893
 10
2029808.606450584
 20
-158745.3989596916
 10
2029808.606450584
 20
-158745.3989596916
 10
2029808.606450584
 20
-158225.544423094
 10
2029808.606450584
 20
-158225.544423094
 10
2029678.54722447
 20
-157731.6839671848
 10
2029678.54722447
 20
-157731.6839671848
 10
2029444.43958937
 20
-157263.8153355331
 10
2029444.43958937
 20
-157263.8153355331
 10
2029158.310320015
 20
-156821.9385281392
 10
2029158.310320015
 20
-156821.9385281392
 10
2028794.138318322
 20
-156458.041706379
 10
2028794.138318322
 20
-156458.041706379
  0
LWPOLYLINE
  5
EF
330
17
100
AcDbEntity
  8
空线
100
AcDbPolyline
 90
4
 70
1
 10
2020116.523696767
 20
-172927.9050990466
 10
2020316.523696802
 20
-172927.9050990466
 10
2020316.523696802
 20
-173927.9050990466
 10
2020116.523696767
 20
-173927.9050990466
  0
LINE
  5
F0
330
17
100
AcDbEntity
  8
空线
100
AcDbLine
 10
2020316.523696802
 20
-172927.9050990466
 30
0.0
 11
2020116.523696728
 21
-173927.9050990466
 31
0.0
  0
LINE
  5
F1
330
17
100
AcDbEntity
  8
空线
100
AcDbLine
 10
2020316.523696802
 20
-173927.9050990466
 30
0.0
 11
2020116.523696728
 21
-172927.9050990466
 31
0.0
  0
LWPOLYLINE
  5
F2
330
17
100
AcDbEntity
  8
空线
100
AcDbPolyline
 90
4
 70
1
 10
2020116.523696767
 20
-170427.9050990466
 10
2020316.523696802
 20
-170427.9050990466
 10
2020316.523696802
 20
-171427.9050990466
 10
2020116.523696767
 20
-171427.9050990466
  0
LINE
  5
F3
330
17
100
AcDbEntity
  8
空线
100
AcDbLine
 10
2020316.523696802
 20
-170427.9050990466
 30
0.0
 11
2020116.523696728
 21
-171427.9050990466
 31
0.0
  0
LINE
  5
F4
330
17
100
AcDbEntity
  8
空线
100
AcDbLine
 10
2020316.523696802
 20
-171427.9050990466
 30
0.0
 11
2020116.523696728
 21
-170427.9050990466
 31
0.0
  0
LINE
  5
F5
330
17
100
AcDbEntity
  8
空线
100
AcDbLine
 10
2020220.369850615
 20
-170947.135868291
 30
0.0
 11
2020715.075838123
 21
-172554.9921737299
 31
0.0
  0
LINE
  5
F6
330
17
100
AcDbEntity
  8
空线
100
AcDbLine
 10
2020715.075838123
 20
-172554.9921737299
 30
0.0
 11
2020316.523696802
 21
-173427.9050990466
 31
0.0
  0
LINE
  5
F7
330
17
100
AcDbEntity
  8
空线
100
AcDbLine
 10
2020715.075838123
 20
-172554.9921737299
 30
0.0
 11
2022239.314639948
 21
-172554.9921737299
 31
0.0
  0
LWPOLYLINE
  5
F8
330
17
100
AcDbEntity
  8
COLU
100
AcDbPolyline
 90
4
 70
1
 10
1996266.523873944
 20
-159277.9050467946
 10
1997066.523873875
 20
-159277.9050469413
 10
1997066.523873774
 20
-160177.9050468575
 10
1996266.523873742
 20
-160177.9050467984
  0
LWPOLYLINE
  5
F9
330
17
100
AcDbEntity
  8
COLU
100
AcDbPolyline
 90
4
 70
1
 10
1996266.523860964
 20
-182627.9050806086
 10
1997066.523900041
 20
-182627.9050807651
 10
1997066.523899919
 20
-183527.9050806794
 10
1996266.52386074
 20
-183527.9050806105
  0
LWPOLYLINE
  5
FA
330
17
100
AcDbEntity
  8
COLU
100
AcDbPolyline
 90
4
 70
1
 10
1997166.523873859
 20
-175227.9050436375
 10
1996266.523873929
 20
-175227.9050434696
 10
1996266.523873611
 20
-176027.9050371161
 10
1997166.523873642
 20
-176027.9050373715
  0
LWPOLYLINE
  5
FB
330
17
100
AcDbEntity
  8
COLU
100
AcDbPolyline
 90
4
 70
1
 10
1997166.523875418
 20
-167227.9051069753
 10
1996266.523875488
 20
-167227.9051068074
 10
1996266.523875201
 20
-168027.9051286809
 10
1997166.523875233
 20
-168027.9051289364
  0
LWPOLYLINE
  5
FC
330
17
100
AcDbEntity
  8
COLU
100
AcDbPolyline
 90
4
 70
1
 10
2002766.523898798
 20
-159277.9050467953
 10
2003566.523898728
 20
-159277.9050469416
 10
2003566.523898627
 20
-160177.9050468577
 10
2002766.523898595
 20
-160177.9050467991
  0
LWPOLYLINE
  5
FD
330
17
100
AcDbEntity
  8
COLU
100
AcDbPolyline
 90
4
 70
1
 10
2011166.523898915
 20
-159277.905048363
 10
2011966.523898845
 20
-159277.905048509
 10
2011966.523898744
 20
-160177.9050484251
 10
2011166.523898712
 20
-160177.9050483667
  0
LWPOLYLINE
  5
FE
330
17
100
AcDbEntity
  8
COLU
100
AcDbPolyline
 90
4
 70
1
 10
2019566.523898835
 20
-159277.9050492135
 10
2020366.523898766
 20
-159277.9050493595
 10
2020366.523898665
 20
-160177.9050492757
 10
2019566.523898633
 20
-160177.9050492172
  0
LWPOLYLINE
  5
FF
330
17
100
AcDbEntity
  8
COLU
100
AcDbPolyline
 90
4
 70
1
 10
2027966.523898873
 20
-159277.9050500182
 10
2028766.523898803
 20
-159277.9050501642
 10
2028766.523898702
 20
-160177.9050500803
 10
2027966.52389867
 20
-160177.9050500219
  0
LWPOLYLINE
  5
100
330
17
100
AcDbEntity
  8
COLU
100
AcDbPolyline
 90
4
 70
1
 10
2036366.523888094
 20
-159277.9050508112
 10
2037166.523888024
 20
-159277.9050509569
 10
2037166.523887923
 20
-160177.9050508731
 10
2036366.523887891
 20
-160177.9050508149
  0
LWPOLYLINE
  5
101
330
17
100
AcDbEntity
  8
COLU
100
AcDbPolyline
 90
4
 70
1
 10
2042766.523818816
 20
-159277.9050737394
 10
2043566.523818746
 20
-159277.9050738861
 10
2043566.523818645
 20
-160177.9050738023
 10
2042766.523818614
 20
-160177.9050737432
  0
LWPOLYLINE
  5
102
330
17
100
AcDbEntity
  8
COLU
100
AcDbPolyline
 90
4
 70
1
 10
2011166.523900014
 20
-182627.9050821875
 10
2011966.523899944
 20
-182627.9050823337
 10
2011966.523899821
 20
-183527.905082248
 10
2011166.52389979
 20
-183527.9050821893
  0
LWPOLYLINE
  5
103
330
17
100
AcDbEntity
  8
COLU
100
AcDbPolyline
 90
4
 70
1
 10
2002766.523959291
 20
-182627.90508219
 10
2003566.523959221
 20
-182627.9050823362
 10
2003566.523899879
 20
-183527.9050822506
 10
2002766.523899847
 20
-183527.9050821919
  0
LWPOLYLINE
  5
104
330
17
100
AcDbEntity
  8
COLU
100
AcDbPolyline
 90
4
 70
1
 10
2019566.523899969
 20
-182627.9050830494
 10
2020366.523899899
 20
-182627.9050832163
 10
2020366.523899777
 20
-183527.9050831307
 10
2019566.523899745
 20
-183527.9050830513
  0
LWPOLYLINE
  5
105
330
17
100
AcDbEntity
  8
COLU
100
AcDbPolyline
 90
4
 70
1
 10
2027966.523901019
 20
-182627.9050831784
 10
2028766.523900949
 20
-182627.9050833453
 10
2028766.523900826
 20
-183527.9050832596
 10
2027966.523900794
 20
-183527.9050831802
  0
LWPOLYLINE
  5
106
330
17
100
AcDbEntity
  8
COLU
100
AcDbPolyline
 90
4
 70
1
 10
2036366.523882215
 20
-182878.2604513407
 10
2037166.523882145
 20
-182878.2604514864
 10
2037166.523882023
 20
-183778.2604514007
 10
2036366.523881991
 20
-183778.2604513425
  0
LWPOLYLINE
  5
107
330
17
100
AcDbEntity
  8
COLU
100
AcDbPolyline
 90
4
 70
1
 10
2042766.523877789
 20
-183678.260436612
 10
2042766.523877957
 20
-182778.2604366819
 10
2043566.523877872
 20
-182778.2604368043
 10
2043566.523877791
 20
-183678.260436836
  0
LWPOLYLINE
  5
108
330
17
100
AcDbEntity
  8
COLU
100
AcDbPolyline
 90
4
 70
1
 10
2042766.52392165
 20
-176027.9051091695
 10
2042766.523921817
 20
-175227.9051092391
 10
2043566.523976681
 20
-175227.9051093616
 10
2043566.523976602
 20
-176027.905109393
  0
LWPOLYLINE
  5
109
330
17
100
AcDbEntity
  8
COLU
100
AcDbPolyline
 90
4
 70
1
 10
2043566.523877971
 20
-167227.9051094633
 10
2043566.523877804
 20
-168027.9051328679
 10
2042766.523822836
 20
-168027.9051327175
 10
2042766.523822915
 20
-167227.9051092119
  0
LINE
  5
10A
330
17
100
AcDbEntity
  8
COLU
100
AcDbLine
 10
2032116.523895225
 20
-167577.9051093055
 30
0.0
 11
2032116.523895125
 21
-167777.905142695
 31
0.0
  0
LWPOLYLINE
  5
10B
330
17
100
AcDbEntity
  8
COLU
100
AcDbPolyline
 90
12
 70
1
 10
2028266.523844984
 20
-167577.9051422524
 10
2032116.523895225
 20
-167577.9051441227
 10
2032116.523894639
 20
-167777.9051426952
 10
2032316.523893145
 20
-167777.905143281
 10
2032316.523893145
 20
-175477.9050997636
 10
2032116.523890619
 20
-175477.9050997634
 10
2032116.523890619
 20
-175677.9051012579
 10
2028916.523866908
 20
-175677.9050716407
 10
2028916.523867047
 20
-176027.9050981212
 10
2032666.523867514
 20
-176027.9051093928
 10
2032666.523869624
 20
-167227.9051094631
 10
2028266.523845026
 20
-167227.9051089476
  0
LWPOLYLINE
  5
10C
330
17
100
AcDbEntity
  8
COLU
100
AcDbPolyline
 90
12
 70
1
 10
2012066.523869365
 20
-167227.9051080009
 10
2012066.523868654
 20
-167577.9051408799
 10
2007616.523863472
 20
-167577.9051070591
 10
2007616.523863472
 20
-167777.9051315545
 10
2007416.523870279
 20
-167777.9051315538
 10
2007416.523862591
 20
-175477.9050974427
 10
2007616.523862591
 20
-175477.9050974434
 10
2007616.523862034
 20
-175677.9050927929
 10
2012016.523863903
 20
-175677.9051050451
 10
2012016.523863841
 20
-176027.9050690351
 10
2007066.523885529
 20
-176027.9050813979
 10
2007066.523863552
 20
-167227.9051069758
  0
LWPOLYLINE
  5
10D
330
17
100
AcDbEntity
  8
COLU
100
AcDbPolyline
 90
16
 70
1
 10
2026266.523867582
 20
-167227.9051346931
 10
2026266.523861753
 20
-167577.9051346931
 10
2026066.522856869
 20
-167577.9051313627
 10
2026066.522856875
 20
-175677.9051053772
 10
2026066.523867133
 20
-175677.9051056049
 10
2026066.523867048
 20
-176027.9050925747
 10
2023316.523866585
 20
-176027.9050917952
 10
2023316.523866796
 20
-175027.9050864417
 10
2023516.523866779
 20
-175027.9051061215
 10
2023516.523874826
 20
-175677.9051359075
 10
2025866.523866512
 20
-175677.9051359073
 10
2025866.524001399
 20
-167577.9051280318
 10
2023516.523867661
 20
-167577.9051273594
 10
2023516.523867475
 20
-168227.9050886331
 10
2023316.523867493
 20
-168227.9050885801
 10
2023316.52386776
 20
-167227.9051084978
  0
LWPOLYLINE
  5
10E
330
17
100
AcDbEntity
  8
COLU
100
AcDbPolyline
 90
16
 70
1
 10
2020316.524094805
 20
-168027.9051995425
 10
2020316.523870964
 20
-167227.905080638
 10
2015216.524049405
 20
-167227.905079139
 10
2015216.524048653
 20
-167577.9050790889
 10
2017716.523862652
 20
-167577.9050790896
 10
2017716.523862652
 20
-175677.9051017836
 10
2015116.52386771
 20
-175677.9051007487
 10
2015116.523867628
 20
-176027.9051086701
 10
2020316.5238675
 20
-176027.9051099867
 10
2020316.523867508
 20
-175227.9050264762
 10
2020116.52388254
 20
-175227.9050264369
 10
2020116.523882394
 20
-175677.9050980262
 10
2017916.524049009
 20
-175677.9051017829
 10
2017916.524049009
 20
-167577.905136905
 10
2020116.52388413
 20
-167577.9051375315
 10
2020116.524108025
 20
-168027.9051821703
  0
LINE
  5
10F
330
17
100
AcDbEntity
  8
空线
100
AcDbLine
 10
2020316.523697163
 20
-174627.905026443
 30
0.0
 11
2020660.615590752
 21
-175404.8370299875
 31
0.0
  0
LINE
  5
110
330
17
100
AcDbEntity
  8
空线
100
AcDbLine
 10
2020660.615590752
 20
-175404.8370299875
 30
0.0
 11
2022336.983017312
 21
-175404.8370299875
 31
0.0
  0
LWPOLYLINE
  5
111
330
17
100
AcDbEntity
  8
第二次修改
100
AcDbPolyline
 90
24
 70
1
 10
2019164.357303527
 20
-168877.905168069
 10
2020164.357303527
 20
-168877.905168069
 10
2021164.357303527
 20
-168877.905168069
 10
2022164.357303527
 20
-168877.905168069
 10
2023164.357303527
 20
-168877.905168069
 10
2023416.523987058
 20
-169625.7384845374
 10
2023416.523987058
 20
-170625.7384845374
 10
2023416.523987058
 20
-171625.7384845374
 10
2023416.523987058
 20
-172625.7384845374
 10
2023416.523987058
 20
-173625.7384845374
 10
2023416.523987058
 20
-174625.7384845374
 10
2023416.523987058
 20
-175625.7384845374
 10
2023168.690668383
 20
-176377.9051658624
 10
2022168.690668383
 20
-176377.9051658624
 10
2021168.690668383
 20
-176377.9051658624
 10
2020168.690668383
 20
-176377.9051658624
 10
2019168.690668383
 20
-176377.9051658624
 10
2019164.357303527
 20
-175382.2385307189
 10
2019164.357303527
 20
-174382.2385307189
 10
2019164.357303527
 20
-173382.2385307189
 10
2019164.357303527
 20
-172382.2385307189
 10
2019164.357303527
 20
-171382.2385307189
 10
2019164.357303527
 20
-170382.2385307189
 10
2019164.357303527
 20
-169382.2385307189
  0
LINE
  5
112
330
17
100
AcDbEntity
  8
dote
100
AcDbLine
 10
2003166.523942519
 20
-150400.738094438
 30
0.0
 11
2003166.523946233
 21
-192501.6111628151
 31
0.0
  0
LINE
  5
113
330
17
100
AcDbEntity
  8
dote
100
AcDbLine
 10
2011566.523942657
 20
-150400.7380937027
 30
0.0
 11
2011566.523946137
 21
-192501.6111618254
 31
0.0
  0
LINE
  5
114
330
17
100
AcDbEntity
  8
dote
100
AcDbLine
 10
2019966.523942573
 20
-150400.7380929674
 30
0.0
 11
2019966.5239461
 21
-192501.6111608357
 31
0.0
  0
LINE
  5
115
330
17
100
AcDbEntity
  8
dote
100
AcDbLine
 10
2028366.523942604
 20
-150400.7380922322
 30
0.0
 11
2028366.523946202
 21
-192501.611159846
 31
0.0
  0
LINE
  5
116
330
17
100
AcDbEntity
  8
dote
100
AcDbLine
 10
2043266.52393182
 20
-150400.738090928
 30
0.0
 11
2043266.52393547
 21
-192501.6111582867
 31
0.0
  0
LINE
  5
117
330
17
100
AcDbEntity
  8
dote
100
AcDbLine
 10
2045566.523950783
 20
-150400.7380905584
 30
0.0
 11
2045566.523954433
 21
-192501.6111579171
 31
0.0
  0
LINE
  5
118
330
17
100
AcDbEntity
  8
dote
100
AcDbLine
 10
2053079.895704889
 20
-159777.905091416
 30
0.0
 11
1988213.023939262
 21
-159777.9051114066
 31
0.0
  0
LINE
  5
119
330
17
100
AcDbEntity
  8
dote
100
AcDbLine
 10
2053079.895707448
 20
-183077.9051003824
 30
0.0
 11
1988213.023941755
 21
-183077.9051204002
 31
0.0
  0
LINE
  5
11A
330
17
100
AcDbEntity
  8
dote
100
AcDbLine
 10
1996666.523942635
 20
-150400.7380950069
 30
0.0
 11
1996666.523946258
 21
-192501.6111638048
 31
0.0
  0
LINE
  5
11B
330
17
100
AcDbEntity
  8
dote
100
AcDbLine
 10
2053079.895706139
 20
-175777.9050967598
 30
0.0
 11
1988213.023940478
 21
-175777.9051167595
 31
0.0
  0
LINE
  5
11C
330
17
100
AcDbEntity
  8
dote
100
AcDbLine
 10
2053079.895706087
 20
-167477.9051355083
 30
0.0
 11
1988213.023940426
 21
-167477.905155508
 31
0.0
  0
LINE
  5
11D
330
17
100
AcDbEntity
  8
AXIS
100
AcDbLine
 10
1996666.523942678
 20
-150891.4669056779
 30
0.0
 11
1996666.523943347
 21
-147800.7380927471
 31
0.0
  0
LINE
  5
11E
330
17
100
AcDbEntity
  8
AXIS
100
AcDbLine
 10
2003166.523942563
 20
-150891.4669050849
 30
0.0
 11
2003166.523943232
 21
-147800.738092154
 31
0.0
  0
LINE
  5
11F
330
17
100
AcDbEntity
  8
AXIS
100
AcDbLine
 10
2011566.523942699
 20
-150891.466904425
 30
0.0
 11
2011566.523943367
 21
-147800.7380914941
 31
0.0
  0
LINE
  5
120
330
17
100
AcDbEntity
  8
AXIS
100
AcDbLine
 10
2019966.523942615
 20
-150891.4669036842
 30
0.0
 11
2019966.523943283
 21
-147800.7380907533
 31
0.0
  0
LINE
  5
121
330
17
100
AcDbEntity
  8
AXIS
100
AcDbLine
 10
2028366.523942647
 20
-150891.4669029041
 30
0.0
 11
2028366.523943315
 21
-147800.7380899732
 31
0.0
  0
LINE
  5
122
330
17
100
AcDbEntity
  8
AXIS
100
AcDbLine
 10
2036766.523942617
 20
-150891.4669021688
 30
0.0
 11
2036766.523943286
 21
-147800.7380892379
 31
0.0
  0
LINE
  5
123
330
17
100
AcDbEntity
  8
AXIS
100
AcDbLine
 10
2043266.523931864
 20
-150891.466901538
 30
0.0
 11
2043266.523932533
 21
-147800.7380886071
 31
0.0
  0
LINE
  5
124
330
17
100
AcDbEntity
  8
dote
100
AcDbLine
 10
2036766.52393182
 20
-150400.738090928
 30
0.0
 11
2036766.52393547
 21
-192501.6111582867
 31
0.0
  0
LINE
  5
125
330
17
100
AcDbEntity
  8
AXIS
100
AcDbLine
 10
1996666.523942678
 20
-191161.843330651
 30
0.0
 11
1996666.523943347
 21
-194956.1797448666
 31
0.0
  0
LINE
  5
126
330
17
100
AcDbEntity
  8
AXIS
100
AcDbLine
 10
2003166.523942563
 20
-191161.843331244
 30
0.0
 11
2003166.523943232
 21
-194956.1797454597
 31
0.0
  0
LINE
  5
127
330
17
100
AcDbEntity
  8
AXIS
100
AcDbLine
 10
2011566.523942699
 20
-191161.8433319039
 30
0.0
 11
2011566.523943367
 21
-194956.1797461196
 31
0.0
  0
LINE
  5
128
330
17
100
AcDbEntity
  8
AXIS
100
AcDbLine
 10
2019966.523942615
 20
-191161.8433326447
 30
0.0
 11
2019966.523943283
 21
-194956.1797468604
 31
0.0
  0
LINE
  5
129
330
17
100
AcDbEntity
  8
AXIS
100
AcDbLine
 10
2028366.523942647
 20
-191161.8433334248
 30
0.0
 11
2028366.523943315
 21
-194956.1797476405
 31
0.0
  0
LINE
  5
12A
330
17
100
AcDbEntity
  8
AXIS
100
AcDbLine
 10
2036766.523942617
 20
-191161.8433341601
 30
0.0
 11
2036766.523943286
 21
-194956.1797483758
 31
0.0
  0
LINE
  5
12B
330
17
100
AcDbEntity
  8
AXIS
100
AcDbLine
 10
2043266.523931864
 20
-191161.8433347909
 30
0.0
 11
2043266.523932533
 21
-194956.1797490066
 31
0.0
  0
LINE
  5
12C
330
17
100
AcDbEntity
  8
AXIS
100
AcDbLine
 10
1989843.023942271
 20
-159777.905110999
 30
0.0
 11
1986011.934582807
 21
-159777.9051103308
 31
0.0
  0
LINE
  5
12D
330
17
100
AcDbEntity
  8
AXIS
100
AcDbLine
 10
1989843.023941962
 20
-167477.9051551951
 30
0.0
 11
1986011.934582498
 21
-167477.9051545268
 31
0.0
  0
LINE
  5
12E
330
17
100
AcDbEntity
  8
AXIS
100
AcDbLine
 10
1989843.023945399
 20
-175777.905116356
 30
0.0
 11
1986011.934585935
 21
-175777.9051156878
 31
0.0
  0
LINE
  5
12F
330
17
100
AcDbEntity
  8
AXIS
100
AcDbLine
 10
1989843.023941936
 20
-183077.9051208758
 30
0.0
 11
1986011.934582472
 21
-183077.9051202076
 31
0.0
  0
LINE
  5
130
330
17
100
AcDbEntity
  8
AXIS
100
AcDbLine
 10
2050610.275137206
 20
-159777.9050916537
 30
0.0
 11
2054559.113302865
 21
-159777.9050982493
 31
0.0
  0
LINE
  5
131
330
17
100
AcDbEntity
  8
AXIS
100
AcDbLine
 10
2050610.275136897
 20
-167477.905135916
 30
0.0
 11
2054559.113302556
 21
-167477.9051425116
 31
0.0
  0
LINE
  5
132
330
17
100
AcDbEntity
  8
AXIS
100
AcDbLine
 10
2050610.275133356
 20
-175777.9050970708
 30
0.0
 11
2054559.113299015
 21
-175777.9051036664
 31
0.0
  0
LINE
  5
133
330
17
100
AcDbEntity
  8
AXIS
100
AcDbLine
 10
2050610.275136871
 20
-183077.905113612
 30
0.0
 11
2054559.11330253
 21
-183077.9051202076
 31
0.0
  0
LINE
  5
134
330
17
100
AcDbEntity
  8
dote
100
AcDbLine
 10
1993866.523940297
 20
-150400.7380953332
 30
0.0
 11
1993866.523943919
 21
-192501.6111641312
 31
0.0
  0
LINE
  5
135
330
17
100
AcDbEntity
  8
dote
100
AcDbLine
 10
2053077.162870054
 20
-157077.9050934694
 30
0.0
 11
1988210.291104427
 21
-157077.90511346
 31
0.0
  0
LINE
  5
136
330
17
100
AcDbEntity
  8
dote
100
AcDbLine
 10
2053079.895707728
 20
-186277.9050514722
 30
0.0
 11
1988213.023942035
 21
-186277.90507149
 31
0.0
  0
LINE
  5
137
330
17
100
AcDbEntity
  8
dote
100
AcDbLine
 10
2051297.968554614
 20
-171627.9051184522
 30
0.0
 11
2033875.217360817
 21
-171627.9051284652
 31
0.0
  0
LINE
  5
138
330
17
100
AcDbEntity
  8
dote
100
AcDbLine
 10
2005712.717360817
 20
-171627.9051351693
 30
0.0
 11
1989668.717360815
 21
-171627.9051379047
 31
0.0
  0
LINE
  5
139
330
17
100
AcDbEntity
  8
dote
100
AcDbLine
 10
2015766.523951674
 20
-165377.9051495118
 30
0.0
 11
2015766.523951674
 21
-150746.9825728395
 31
0.0
  0
LINE
  5
13A
330
17
100
AcDbEntity
  8
dote
100
AcDbLine
 10
2024166.523936044
 20
-165377.9051487909
 30
0.0
 11
2024166.523933533
 21
-150746.9825721186
 31
0.0
  0
LINE
  5
13B
330
17
100
AcDbEntity
  8
dote
100
AcDbLine
 10
2015766.523951674
 20
-177877.9051018831
 30
0.0
 11
2015766.523951674
 21
-191573.4825728395
 31
0.0
  0
LINE
  5
13C
330
17
100
AcDbEntity
  8
dote
100
AcDbLine
 10
2024166.523936044
 20
-177877.905102604
 30
0.0
 11
2024166.523933935
 21
-191103.4825728419
 31
0.0
  0
LINE
  5
13D
330
17
100
AcDbEntity
  8
dote
100
AcDbLine
 10
2007366.523929228
 20
-150897.7695137211
 30
0.0
 11
2007366.52392928
 21
-191573.4825735337
 31
0.0
  0
LINE
  5
13E
330
17
100
AcDbEntity
  8
dote
100
AcDbLine
 10
2032566.523942604
 20
-150400.7380922322
 30
0.0
 11
2032566.523946117
 21
-191502.9825728431
 31
0.0
  0
LWPOLYLINE
  5
13F
330
17
100
AcDbEntity
  8
修改2016.03.17
100
AcDbPolyline
 90
6
 70
1
 10
2051579.102826018
 20
-183791.6727641262
 10
2052579.102826018
 20
-183791.6727641262
 10
2053110.131516373
 20
-184260.6440737713
 10
2053110.131516373
 20
-185260.6440737713
 10
2052239.490844005
 20
-185390.0034014029
 10
2051579.102826018
 20
-185050.3914193893
  0
LWPOLYLINE
  5
140
330
17
100
AcDbEntity
  8
修改2016.03.17
100
AcDbPolyline
 90
11
 70
1
 10
2043897.365028866
 20
-191870.7454405952
 10
2044897.365028866
 20
-191870.7454405952
 10
2045897.365028866
 20
-191870.7454405952
 10
2046897.365028866
 20
-191870.7454405952
 10
2047001.954627665
 20
-192766.1558417961
 10
2047001.954627665
 20
-193766.1558417961
 10
2046663.886709587
 20
-194428.0879237185
 10
2045663.886709587
 20
-194428.0879237185
 10
2044663.886709587
 20
-194428.0879237185
 10
2043897.365028866
 20
-194194.6096044401
 10
2043897.365028866
 20
-193194.6096044401
  0
LWPOLYLINE
  5
141
330
17
100
AcDbEntity
  8
修改2016.03.17
100
AcDbPolyline
 90
17
 70
1
 10
2042579.506559662
 20
-149398.8194929385
 10
2043579.506559662
 20
-149398.8194929385
 10
2044579.506559662
 20
-149398.8194929385
 10
2045579.506559662
 20
-149398.8194929385
 10
2046579.506559662
 20
-149398.8194929385
 10
2047402.754298955
 20
-149575.5717536458
 10
2047402.754298955
 20
-150575.5717536458
 10
2047402.754298955
 20
-151575.5717536458
 10
2047402.754298955
 20
-152575.5717536458
 10
2046693.904436808
 20
-152866.7218914984
 10
2045693.904436808
 20
-152866.7218914984
 10
2044693.904436808
 20
-152866.7218914984
 10
2043693.904436808
 20
-152866.7218914984
 10
2042693.904436808
 20
-152866.7218914984
 10
2042579.506559662
 20
-151981.1197686438
 10
2042579.506559662
 20
-150981.1197686438
 10
2042579.506559662
 20
-149981.1197686438
  0
LWPOLYLINE
  5
142
330
17
100
AcDbEntity
  8
修改2016.03.17
100
AcDbPolyline
 90
74
 70
1
 10
2005373.803790061
 20
-176954.4104845831
 10
2006373.803790061
 20
-176954.4104845831
 10
2007373.803790061
 20
-176954.4104845831
 10
2008373.803790061
 20
-176954.4104845831
 10
2009373.803790061
 20
-176954.4104845831
 10
2010373.803790061
 20
-176954.4104845831
 10
2011373.803790061
 20
-176954.4104845831
 10
2012373.803790061
 20
-176954.4104845831
 10
2013373.803790061
 20
-176954.4104845831
 10
2014373.803790061
 20
-176954.4104845831
 10
2015373.803790061
 20
-176954.4104845831
 10
2016373.803790061
 20
-176954.4104845831
 10
2017373.803790061
 20
-176954.4104845831
 10
2018373.803790061
 20
-176954.4104845831
 10
2019373.803790061
 20
-176954.4104845831
 10
2020373.803790061
 20
-176954.4104845831
 10
2021373.803790061
 20
-176954.4104845831
 10
2022373.803790061
 20
-176954.4104845831
 10
2023373.803790061
 20
-176954.4104845831
 10
2024373.803790061
 20
-176954.4104845831
 10
2025373.803790061
 20
-176954.4104845831
 10
2026373.803790061
 20
-176954.4104845831
 10
2027373.803790061
 20
-176954.4104845831
 10
2028373.803790061
 20
-176954.4104845831
 10
2029373.803790061
 20
-176954.4104845831
 10
2030373.803790061
 20
-176954.4104845831
 10
2031373.803790061
 20
-176954.4104845831
 10
2032373.803790061
 20
-176954.4104845831
 10
2033373.803790061
 20
-176954.4104845831
 10
2034373.803790061
 20
-176954.4104845831
 10
2035373.803790061
 20
-176954.4104845831
 10
2036373.803790061
 20
-176954.4104845831
 10
2037373.803790061
 20
-176954.4104845831
 10
2038373.803790061
 20
-176954.4104845831
 10
2039373.803790061
 20
-176954.4104845831
 10
2040078.638538344
 20
-177249.5757362996
 10
2040078.638538344
 20
-178249.5757362996
 10
2040078.638538344
 20
-179249.5757362996
 10
2039168.958389209
 20
-179339.8955871642
 10
2038168.958389209
 20
-179339.8955871642
 10
2037168.958389209
 20
-179339.8955871642
 10
2036168.958389209
 20
-179339.8955871642
 10
2035168.958389209
 20
-179339.8955871642
 10
2034168.958389209
 20
-179339.8955871642
 10
2033168.958389209
 20
-179339.8955871642
 10
2032168.958389209
 20
-179339.8955871642
 10
2031168.958389209
 20
-179339.8955871642
 10
2030168.958389209
 20
-179339.8955871642
 10
2029168.958389209
 20
-179339.8955871642
 10
2028168.958389209
 20
-179339.8955871642
 10
2027168.958389209
 20
-179339.8955871642
 10
2026168.958389209
 20
-179339.8955871642
 10
2025168.958389209
 20
-179339.8955871642
 10
2024168.958389209
 20
-179339.8955871642
 10
2023168.958389209
 20
-179339.8955871642
 10
2022168.958389209
 20
-179339.8955871642
 10
2021168.958389209
 20
-179339.8955871642
 10
2020168.958389209
 20
-179339.8955871642
 10
2019168.958389209
 20
-179339.8955871642
 10
2018168.958389209
 20
-179339.8955871642
 10
2017168.958389209
 20
-179339.8955871642
 10
2016168.958389209
 20
-179339.8955871642
 10
2015168.958389209
 20
-179339.8955871642
 10
2014168.958389209
 20
-179339.8955871642
 10
2013168.958389209
 20
-179339.8955871642
 10
2012168.958389209
 20
-179339.8955871642
 10
2011168.958389209
 20
-179339.8955871642
 10
2010168.958389209
 20
-179339.8955871642
 10
2009168.958389209
 20
-179339.8955871642
 10
2008168.958389209
 20
-179339.8955871642
 10
2007168.958389209
 20
-179339.8955871642
 10
2006168.958389209
 20
-179339.8955871642
 10
2005373.803790061
 20
-179135.0501863123
 10
2005373.803790061
 20
-178135.0501863123
  0
LWPOLYLINE
  5
143
330
17
100
AcDbEntity
  8
修改2016.03.17
100
AcDbPolyline
 90
24
 70
1
 10
2033819.964662584
 20
-166985.4400981739
 10
2034819.964662584
 20
-166985.4400981739
 10
2035819.964662584
 20
-166985.4400981739
 10
2036318.379086286
 20
-167487.0256744716
 10
2036318.379086286
 20
-168487.0256744716
 10
2036318.379086286
 20
-169487.0256744716
 10
2036318.379086286
 20
-170487.0256744716
 10
2036318.379086286
 20
-171487.0256744716
 10
2036318.379086286
 20
-172487.0256744716
 10
2036318.379086286
 20
-173487.0256744716
 10
2036318.379086286
 20
-174487.0256744716
 10
2036318.379086286
 20
-175487.0256744716
 10
2036279.729706937
 20
-176448.3762951228
 10
2035279.729706937
 20
-176448.3762951228
 10
2034279.729706937
 20
-176448.3762951228
 10
2033819.964662584
 20
-175908.1413394762
 10
2033819.964662584
 20
-174908.1413394762
 10
2033819.964662584
 20
-173908.1413394762
 10
2033819.964662584
 20
-172908.1413394762
 10
2033819.964662584
 20
-171908.1413394762
 10
2033819.964662584
 20
-170908.1413394762
 10
2033819.964662584
 20
-169908.1413394762
 10
2033819.964662584
 20
-168908.1413394762
 10
2033819.964662584
 20
-167908.1413394762
  0
LWPOLYLINE
  5
144
330
17
100
AcDbEntity
  8
修改2016.03.17
100
AcDbPolyline
 90
79
 70
1
 10
1999618.039295887
 20
-163861.1307858303
 10
2000618.039295887
 20
-163861.1307858303
 10
2001618.039295887
 20
-163861.1307858303
 10
2002618.039295887
 20
-163861.1307858303
 10
2003618.039295887
 20
-163861.1307858303
 10
2004618.039295887
 20
-163861.1307858303
 10
2005618.039295887
 20
-163861.1307858303
 10
2006618.039295887
 20
-163861.1307858303
 10
2007618.039295887
 20
-163861.1307858303
 10
2008618.039295887
 20
-163861.1307858303
 10
2009618.039295887
 20
-163861.1307858303
 10
2010618.039295887
 20
-163861.1307858303
 10
2011618.039295887
 20
-163861.1307858303
 10
2012618.039295887
 20
-163861.1307858303
 10
2013618.039295887
 20
-163861.1307858303
 10
2014618.039295887
 20
-163861.1307858303
 10
2015618.039295887
 20
-163861.1307858303
 10
2016618.039295887
 20
-163861.1307858303
 10
2017618.039295887
 20
-163861.1307858303
 10
2018618.039295887
 20
-163861.1307858303
 10
2019618.039295887
 20
-163861.1307858303
 10
2020618.039295887
 20
-163861.1307858303
 10
2021618.039295887
 20
-163861.1307858303
 10
2022618.039295887
 20
-163861.1307858303
 10
2023618.039295887
 20
-163861.1307858303
 10
2024618.039295887
 20
-163861.1307858303
 10
2025618.039295887
 20
-163861.1307858303
 10
2026618.039295887
 20
-163861.1307858303
 10
2027618.039295887
 20
-163861.1307858303
 10
2028618.039295887
 20
-163861.1307858303
 10
2029618.039295887
 20
-163861.1307858303
 10
2030618.039295887
 20
-163861.1307858303
 10
2031618.039295887
 20
-163861.1307858303
 10
2032618.039295887
 20
-163861.1307858303
 10
2033618.039295887
 20
-163861.1307858303
 10
2034618.039295887
 20
-163861.1307858303
 10
2035618.039295887
 20
-163861.1307858303
 10
2036618.039295887
 20
-163861.1307858303
 10
2037521.325084017
 20
-163957.8449977001
 10
2037521.325084017
 20
-164957.8449977001
 10
2037196.036185415
 20
-165632.5560990986
 10
2036196.036185415
 20
-165632.5560990986
 10
2035196.036185415
 20
-165632.5560990986
 10
2034196.036185415
 20
-165632.5560990986
 10
2033196.036185415
 20
-165632.5560990986
 10
2032196.036185415
 20
-165632.5560990986
 10
2031196.036185415
 20
-165632.5560990986
 10
2030196.036185415
 20
-165632.5560990986
 10
2029196.036185415
 20
-165632.5560990986
 10
2028196.036185415
 20
-165632.5560990986
 10
2027196.036185415
 20
-165632.5560990986
 10
2026196.036185415
 20
-165632.5560990986
 10
2025196.036185415
 20
-165632.5560990986
 10
2024196.036185415
 20
-165632.5560990986
 10
2023196.036185415
 20
-165632.5560990986
 10
2022196.036185415
 20
-165632.5560990986
 10
2021196.036185415
 20
-165632.5560990986
 10
2020196.036185415
 20
-165632.5560990986
 10
2019196.036185415
 20
-165632.5560990986
 10
2018196.036185415
 20
-165632.5560990986
 10
2017196.036185415
 20
-165632.5560990986
 10
2016196.036185415
 20
-165632.5560990986
 10
2015196.036185415
 20
-165632.5560990986
 10
2014196.036185415
 20
-165632.5560990986
 10
2013196.036185415
 20
-165632.5560990986
 10
2012196.036185415
 20
-165632.5560990986
 10
2011196.036185415
 20
-165632.5560990986
 10
2010196.036185415
 20
-165632.5560990986
 10
2009196.036185415
 20
-165632.5560990986
 10
2008196.036185415
 20
-165632.5560990986
 10
2007196.036185415
 20
-165632.5560990986
 10
2006196.036185415
 20
-165632.5560990986
 10
2005196.036185415
 20
-165632.5560990986
 10
2004196.036185415
 20
-165632.5560990986
 10
2003196.036185415
 20
-165632.5560990986
 10
2002196.036185415
 20
-165632.5560990986
 10
2001196.036185415
 20
-165632.5560990986
 10
2000196.036185415
 20
-165632.5560990986
 10
1999618.039295887
 20
-165210.5529886274
  0
LWPOLYLINE
  5
145
330
17
100
AcDbEntity
  8
修改2016.03.17
100
AcDbPolyline
 90
183
 70
1
 10
1991251.294973804
 20
-183834.7422197331
 10
1992251.294973804
 20
-183834.7422197331
 10
1993251.294973804
 20
-183834.7422197331
 10
1994251.294973804
 20
-183834.7422197331
 10
1995251.294973804
 20
-183834.7422197331
 10
1996251.294973804
 20
-183834.7422197331
 10
1997251.294973804
 20
-183834.7422197331
 10
1998251.294973804
 20
-183834.7422197331
 10
1999251.294973804
 20
-183834.7422197331
 10
2000251.294973804
 20
-183834.7422197331
 10
2001251.294973804
 20
-183834.7422197331
 10
2002251.294973804
 20
-183834.7422197331
 10
2003251.294973804
 20
-183834.7422197331
 10
2004251.294973804
 20
-183834.7422197331
 10
2005251.294973804
 20
-183834.7422197331
 10
2006251.294973804
 20
-183834.7422197331
 10
2007251.294973804
 20
-183834.7422197331
 10
2008251.294973804
 20
-183834.7422197331
 10
2009251.294973804
 20
-183834.7422197331
 10
2010251.294973804
 20
-183834.7422197331
 10
2011251.294973804
 20
-183834.7422197331
 10
2012251.294973804
 20
-183834.7422197331
 10
2013251.294973804
 20
-183834.7422197331
 10
2014251.294973804
 20
-183834.7422197331
 10
2015251.294973804
 20
-183834.7422197331
 10
2016251.294973804
 20
-183834.7422197331
 10
2017251.294973804
 20
-183834.7422197331
 10
2018251.294973804
 20
-183834.7422197331
 10
2019251.294973804
 20
-183834.7422197331
 10
2020251.294973804
 20
-183834.7422197331
 10
2021251.294973804
 20
-183834.7422197331
 10
2022251.294973804
 20
-183834.7422197331
 10
2023251.294973804
 20
-183834.7422197331
 10
2024251.294973804
 20
-183834.7422197331
 10
2025251.294973804
 20
-183834.7422197331
 10
2026251.294973804
 20
-183834.7422197331
 10
2027251.294973804
 20
-183834.7422197331
 10
2028251.294973804
 20
-183834.7422197331
 10
2029251.294973804
 20
-183834.7422197331
 10
2030251.294973804
 20
-183834.7422197331
 10
2031251.294973804
 20
-183834.7422197331
 10
2032251.294973804
 20
-183834.7422197331
 10
2033251.294973804
 20
-183834.7422197331
 10
2034251.294973804
 20
-183834.7422197331
 10
2035251.294973804
 20
-183834.7422197331
 10
2036251.294973804
 20
-183834.7422197331
 10
2037251.294973804
 20
-183834.7422197331
 10
2038251.294973804
 20
-183834.7422197331
 10
2039251.294973804
 20
-183834.7422197331
 10
2040251.294973804
 20
-183834.7422197331
 10
2041251.294973804
 20
-183834.7422197331
 10
2042251.294973804
 20
-183834.7422197331
 10
2042548.781899504
 20
-183132.2291454328
 10
2042548.781899504
 20
-182132.2291454328
 10
2042548.781899504
 20
-181132.2291454328
 10
2042548.781899504
 20
-180132.2291454328
 10
2042548.781899504
 20
-179132.2291454328
 10
2042548.781899504
 20
-178132.2291454328
 10
2042548.781899504
 20
-177132.2291454328
 10
2042548.781899504
 20
-176132.2291454328
 10
2042548.781899504
 20
-175132.2291454328
 10
2042548.781899504
 20
-174132.2291454328
 10
2042548.781899504
 20
-173132.2291454328
 10
2042548.781899504
 20
-172132.2291454328
 10
2042548.781899504
 20
-171132.2291454328
 10
2042548.781899504
 20
-170132.2291454328
 10
2042548.781899504
 20
-169132.2291454328
 10
2042548.781899504
 20
-168132.2291454328
 10
2042548.781899504
 20
-167132.2291454328
 10
2042548.781899504
 20
-166132.2291454328
 10
2042548.781899504
 20
-165132.2291454328
 10
2042548.781899504
 20
-164132.2291454328
 10
2042548.781899504
 20
-163132.2291454328
 10
2042548.781899504
 20
-162132.2291454328
 10
2042548.781899504
 20
-161132.2291454328
 10
2042548.781899504
 20
-160132.2291454328
 10
2042548.781899504
 20
-159132.2291454328
 10
2042548.781899504
 20
-158132.2291454328
 10
2042548.781899504
 20
-157132.2291454328
 10
2042548.781899504
 20
-156132.2291454328
 10
2042548.781899504
 20
-155132.2291454328
 10
2042548.781899504
 20
-154132.2291454328
 10
2043441.647392795
 20
-154025.0946387239
 10
2044441.647392795
 20
-154025.0946387239
 10
2045441.647392795
 20
-154025.0946387239
 10
2046441.647392795
 20
-154025.0946387239
 10
2047441.647392795
 20
-154025.0946387239
 10
2048409.606916848
 20
-154056.9205049292
 10
2048402.886403008
 20
-155056.8979220211
 10
2048396.165889168
 20
-156056.875339113
 10
2048389.445375328
 20
-157056.8527562049
 10
2048382.724861488
 20
-158056.8301732967
 10
2048376.004347648
 20
-159056.8075903886
 10
2048369.283833808
 20
-160056.7850074804
 10
2048362.563319968
 20
-161056.7624245723
 10
2048355.842806128
 20
-162056.7398416642
 10
2048349.122292288
 20
-163056.717258756
 10
2048342.401778447
 20
-164056.6946758479
 10
2048335.681264607
 20
-165056.6720929398
 10
2048328.960750767
 20
-166056.6495100316
 10
2048322.240236927
 20
-167056.6269271235
 10
2048315.519723087
 20
-168056.6043442154
 10
2048308.799209247
 20
-169056.5817613072
 10
2048302.078695407
 20
-170056.5591783991
 10
2048295.358181567
 20
-171056.536595491
 10
2048288.637667727
 20
-172056.5140125828
 10
2048281.917153887
 20
-173056.4914296747
 10
2048275.196640046
 20
-174056.4688467666
 10
2048268.476126206
 20
-175056.4462638585
 10
2048261.755612366
 20
-176056.4236809503
 10
2048255.035098526
 20
-177056.4010980422
 10
2048248.314584686
 20
-178056.3785151341
 10
2048241.594070846
 20
-179056.355932226
 10
2048234.873557006
 20
-180056.3333493178
 10
2048228.153043166
 20
-181056.3107664097
 10
2048221.432529326
 20
-182056.2881835015
 10
2048214.712015486
 20
-183056.2656005934
 10
2048207.991501646
 20
-184056.2430176853
 10
2048201.270987805
 20
-185056.2204347772
 10
2048194.550473965
 20
-186056.197851869
 10
2048187.829960125
 20
-187056.1752689609
 10
2048181.109446285
 20
-188056.1526860528
 10
2047592.709457707
 20
-188470.5282188523
 10
2046592.709457707
 20
-188470.5282188523
 10
2045592.709457707
 20
-188470.5282188523
 10
2044592.709457707
 20
-188470.5282188523
 10
2043592.709457707
 20
-188470.5282188523
 10
2042592.709457707
 20
-188470.5282188523
 10
2041592.709457707
 20
-188470.5282188523
 10
2040592.709457707
 20
-188470.5282188523
 10
2039592.709457707
 20
-188470.5282188523
 10
2038592.709457707
 20
-188470.5282188523
 10
2037592.709457707
 20
-188470.5282188523
 10
2036592.709457707
 20
-188470.5282188523
 10
2035592.709457707
 20
-188470.5282188523
 10
2034592.709457707
 20
-188470.5282188523
 10
2033592.709457707
 20
-188470.5282188523
 10
2032592.709457707
 20
-188470.5282188523
 10
2031592.709457707
 20
-188470.5282188523
 10
2030592.709457707
 20
-188470.5282188523
 10
2029592.709457707
 20
-188470.5282188523
 10
2028592.709457707
 20
-188470.5282188523
 10
2027592.709457707
 20
-188470.5282188523
 10
2026592.709457707
 20
-188470.5282188523
 10
2025592.709457707
 20
-188470.5282188523
 10
2024592.709457707
 20
-188470.5282188523
 10
2023592.709457707
 20
-188470.5282188523
 10
2022592.709457707
 20
-188470.5282188523
 10
2021592.709457707
 20
-188470.5282188523
 10
2020592.709457707
 20
-188470.5282188523
 10
2019592.709457707
 20
-188470.5282188523
 10
2018592.709457707
 20
-188470.5282188523
 10
2017592.709457707
 20
-188470.5282188523
 10
2016592.709457707
 20
-188470.5282188523
 10
2015592.709457707
 20
-188470.5282188523
 10
2014592.709457707
 20
-188470.5282188523
 10
2013592.709457707
 20
-188470.5282188523
 10
2012592.709457707
 20
-188470.5282188523
 10
2011592.709457707
 20
-188470.5282188523
 10
2010592.709457707
 20
-188470.5282188523
 10
2009592.709457707
 20
-188470.5282188523
 10
2008592.709457707
 20
-188470.5282188523
 10
2007592.709457707
 20
-188470.5282188523
 10
2006592.709457707
 20
-188470.5282188523
 10
2005592.709457707
 20
-188470.5282188523
 10
2004592.709457707
 20
-188470.5282188523
 10
2003592.709457707
 20
-188470.5282188523
 10
2002592.709457707
 20
-188470.5282188523
 10
2001592.709457707
 20
-188470.5282188523
 10
2000592.709457707
 20
-188470.5282188523
 10
1999592.709457707
 20
-188470.5282188523
 10
1998592.709457707
 20
-188470.5282188523
 10
1997592.709457707
 20
-188470.5282188523
 10
1996592.709457707
 20
-188470.5282188523
 10
1995592.709457707
 20
-188470.5282188523
 10
1994592.709457707
 20
-188470.5282188523
 10
1993592.709457707
 20
-188470.5282188523
 10
1992592.709457707
 20
-188470.5282188523
 10
1991592.709457707
 20
-188470.5282188523
 10
1991237.930359921
 20
-187827.4634141945
 10
1991241.277585626
 20
-186827.4690161702
 10
1991244.624811331
 20
-185827.4746181458
 10
1991247.972037036
 20
-184827.4802201215
  0
LWPOLYLINE
  5
146
330
17
100
AcDbEntity
  8
修改2016.03.17
100
AcDbPolyline
 90
25
 70
1
 10
2003166.523943908
 20
-166616.6727267962
 10
2004166.523943908
 20
-166616.6727267962
 10
2005166.523943908
 20
-166616.6727267962
 10
2005790.168487154
 20
-166993.028183551
 10
2005790.168487154
 20
-167993.028183551
 10
2005790.168487154
 20
-168993.028183551
 10
2005790.168487154
 20
-169993.028183551
 10
2005790.168487154
 20
-170993.028183551
 10
2005790.168487154
 20
-171993.028183551
 10
2005790.168487154
 20
-172993.028183551
 10
2005790.168487154
 20
-173993.028183551
 10
2005790.168487154
 20
-174993.028183551
 10
2005790.168487154
 20
-175993.028183551
 10
2005114.431746839
 20
-176317.291443236
 10
2004114.431746839
 20
-176317.291443236
 10
2003166.523943908
 20
-176265.1992461661
 10
2003166.523943908
 20
-175265.1992461661
 10
2003166.523943908
 20
-174265.1992461661
 10
2003166.523943908
 20
-173265.1992461661
 10
2003166.523943908
 20
-172265.1992461661
 10
2003166.523943908
 20
-171265.1992461661
 10
2003166.523943908
 20
-170265.1992461661
 10
2003166.523943908
 20
-169265.1992461661
 10
2003166.523943908
 20
-168265.1992461661
 10
2003166.523943908
 20
-167265.1992461661
  0
LWPOLYLINE
  5
147
330
17
100
AcDbEntity
  8
修改2016.03.17
100
AcDbPolyline
 90
6
 70
1
 10
2038991.629291665
 20
-161060.1016640463
 10
2039991.629291665
 20
-161060.1016640463
 10
2040991.629291665
 20
-161060.1016640463
 10
2041246.558367864
 20
-161675.2703591543
 10
2040246.558367864
 20
-161675.2703591543
 10
2039246.558367864
 20
-161675.2703591543
  0
LWPOLYLINE
  5
148
330
17
100
AcDbEntity
  8
修改2016.03.17
100
AcDbPolyline
 90
6
 70
1
 10
2039588.048560783
 20
-180048.1683234112
 10
2040588.048560783
 20
-180048.1683234112
 10
2041588.048560783
 20
-180048.1683234112
 10
2041963.019918012
 20
-180673.1969661825
 10
2041109.834473627
 20
-180820.0115217976
 10
2040109.834473627
 20
-180820.0115217976
  0
LWPOLYLINE
  5
149
330
17
100
AcDbEntity
  8
修改2016.03.17
100
AcDbPolyline
 90
7
 70
1
 10
1998766.797196204
 20
-179797.1533316309
 10
1999766.797196204
 20
-179797.1533316309
 10
2000766.797196204
 20
-179797.1533316309
 10
2001279.962526389
 20
-180283.9880014463
 10
2000587.214486669
 20
-180591.2399617266
 10
1999587.214486669
 20
-180591.2399617266
 10
1998766.797196204
 20
-180411.6572521916
  0
LWPOLYLINE
  5
14A
330
17
100
AcDbEntity
  8
修改2016.03.17
100
AcDbPolyline
 90
7
 70
1
 10
1997776.230086034
 20
-161386.5191719732
 10
1998776.230086034
 20
-161386.5191719732
 10
1999776.230086034
 20
-161386.5191719732
 10
2000289.395416218
 20
-161873.3538417886
 10
1999596.647376499
 20
-162180.605802069
 10
1998596.647376499
 20
-162180.605802069
 10
1997776.230086034
 20
-162001.0230925339
  0
LINE
  5
14B
330
17
100
AcDbEntity
  8
修改2016.03.17
100
AcDbLine
 10
2001749.667319283
 20
-171622.0958918073
 30
0.0
 11
2003516.627794528
 21
-173765.1993442484
 31
0.0
  0
LWPOLYLINE
  5
14C
330
17
100
AcDbEntity
  8
修改2016.03.17
100
AcDbPolyline
 90
19
 70
1
 10
1994083.287482709
 20
-170858.1591360665
 10
1995083.287482709
 20
-170858.1591360665
 10
1996083.287482709
 20
-170858.1591360665
 10
1997083.287482709
 20
-170858.1591360665
 10
1998083.287482709
 20
-170858.1591360665
 10
1999083.287482709
 20
-170858.1591360665
 10
2000083.287482709
 20
-170858.1591360665
 10
2001083.287482709
 20
-170858.1591360665
 10
2001551.360675356
 20
-171390.0859434198
 10
2001551.360675356
 20
-172390.0859434198
 10
2000968.881377347
 20
-172807.6066454107
 10
1999968.881377347
 20
-172807.6066454107
 10
1998968.881377347
 20
-172807.6066454107
 10
1997968.881377347
 20
-172807.6066454107
 10
1996968.881377347
 20
-172807.6066454107
 10
1995968.881377347
 20
-172807.6066454107
 10
1994968.881377347
 20
-172807.6066454107
 10
1994083.287482709
 20
-172693.2005400484
 10
1994083.287482709
 20
-171693.2005400484
  0
LWPOLYLINE
  5
14D
330
17
100
AcDbEntity
  8
修改2016.03.17
100
AcDbPolyline
 90
17
 70
1
 10
1986429.887087453
 20
-181915.6288038986
 10
1987429.887087453
 20
-181915.6288038986
 10
1988429.887087453
 20
-181915.6288038986
 10
1989429.887087453
 20
-181915.6288038986
 10
1989638.603720453
 20
-182706.9121708991
 10
1989638.603720453
 20
-183706.9121708991
 10
1989638.603720453
 20
-184706.9121708991
 10
1989638.603720453
 20
-185706.9121708991
 10
1989638.603720453
 20
-186706.9121708991
 10
1988985.241313198
 20
-187053.5497636451
 10
1987985.241313198
 20
-187053.5497636451
 10
1986985.241313198
 20
-187053.5497636451
 10
1986429.887087453
 20
-186608.9039893905
 10
1986429.887087453
 20
-185608.9039893905
 10
1986429.887087453
 20
-184608.9039893905
 10
1986429.887087453
 20
-183608.9039893905
 10
1986429.887087453
 20
-182608.9039893905
  0
LWPOLYLINE
  5
14E
330
17
100
AcDbEntity
  8
第二次修改
100
AcDbPolyline
 90
8
 70
0
 10
2010231.068754524
 20
-180947.1659933228
 10
2010071.674205828
 20
-181167.1560085092
 10
2010071.674205828
 20
-182167.1560085092
 10
2010071.674205828
 20
-183167.1560085092
 10
2009225.929827965
 20
-183321.411630646
 10
2008989.698443397
 20
-182557.6430152144
 10
2008989.698443397
 20
-181557.6430152144
 10
2008664.944849349
 20
-181061.617349275
  0
LWPOLYLINE
  5
14F
330
17
100
AcDbEntity
  8
第二次修改
100
AcDbPolyline
 90
9
 70
0
 10
2008664.944849349
 20
-181061.617349275
 10
2008377.928659422
 20
-180793.0590567996
 10
2008377.928659422
 20
-179958.517230693
 10
2009377.928659422
 20
-179958.517230693
 10
2010377.928659422
 20
-179958.517230693
 10
2011377.928659422
 20
-179958.517230693
 10
2011810.797347642
 20
-180525.6485424728
 10
2011228.068260696
 20
-180942.9194555261
 10
2010228.068260696
 20
-180942.9194555261
  0
LWPOLYLINE
  5
150
330
17
100
AcDbEntity
  8
第二次修改
100
AcDbPolyline
 90
6
 70
1
 10
2026266.52368203
 20
-167427.9053000055
 10
2027266.52368203
 20
-167427.9053000055
 10
2028266.52368203
 20
-167427.9053000055
 10
2028515.49907137
 20
-168178.929910665
 10
2027701.876437558
 20
-168365.3072768529
 10
2026701.876437558
 20
-168365.3072768529
  0
LWPOLYLINE
  5
151
330
17
100
AcDbEntity
  8
第二次修改
100
AcDbPolyline
 90
8
 70
1
 10
2037943.758600416
 20
-164063.6915958499
 10
2038943.758600416
 20
-164063.6915958499
 10
2039912.931858794
 20
-164094.5183374717
 10
2039912.931858794
 20
-165094.5183374717
 10
2039912.931858794
 20
-166094.5183374717
 10
2039087.545361741
 20
-166269.1318404184
 10
2038087.545361741
 20
-166269.1318404184
 10
2037943.758600416
 20
-165412.9186017432
  0
LWPOLYLINE
  5
152
330
17
100
AcDbEntity
  8
第二次修改
100
AcDbPolyline
 90
5
 70
1
 10
2038544.468810602
 20
-175397.0262001095
 10
2037544.468810602
 20
-175397.0262001095
 10
2037142.464876775
 20
-175995.0222662821
 10
2037800.236149673
 20
-176337.2509933834
 10
2038544.468810602
 20
-176081.4836543122
  0
LWPOLYLINE
  5
153
330
17
100
AcDbEntity
  8
第二次修改
100
AcDbPolyline
 90
5
 70
1
 10
2001034.663602543
 20
-165500.2714419451
 10
2002034.663602543
 20
-165500.2714419451
 10
2002122.512025455
 20
-166412.4230190327
 10
2001796.040747246
 20
-167085.9517408237
 10
2001034.663602543
 20
-166847.3288855271
  0
LWPOLYLINE
  5
154
330
17
100
AcDbEntity
  8
第二次修改
100
AcDbPolyline
 90
8
 70
1
 10
1999982.954458046
 20
-177101.6905336795
 10
2000982.954458046
 20
-177101.6905336795
 10
2001982.954458046
 20
-177101.6905336795
 10
2002274.823756947
 20
-177809.8212347785
 10
2002274.823756947
 20
-178809.8212347785
 10
2001325.444684338
 20
-178860.4421621694
 10
2000325.444684338
 20
-178860.4421621694
 10
1999982.954458046
 20
-178202.9323884612
  0
LWPOLYLINE
  5
155
330
17
100
AcDbEntity
  8
第二次修改
100
AcDbPolyline
 90
11
 70
1
 10
2061570.578387492
 20
-193170.2955776388
 10
2062070.578387492
 20
-193170.2955776388
 10
2062570.578387492
 20
-193170.2955776388
 10
2063070.578387492
 20
-193170.2955776388
 10
2063462.567604843
 20
-193278.3063602876
 10
2063462.567604843
 20
-193778.3063602876
 10
2063131.350900449
 20
-193947.0896558939
 10
2062631.350900449
 20
-193947.0896558939
 10
2062131.350900449
 20
-193947.0896558939
 10
2061631.350900449
 20
-193947.0896558939
 10
2061570.578387492
 20
-193507.8621688513
  0
LWPOLYLINE
  5
156
330
17
100
AcDbEntity
  8
第二次修改
100
AcDbPolyline
 90
7
 70
1
 10
2052633.500128976
 20
-170719.395587842
 10
2053633.500128976
 20
-170719.395587842
 10
2053873.500128976
 20
-171479.395587842
 10
2053873.500128976
 20
-172479.395587842
 10
2053187.500128976
 20
-172793.395587842
 10
2052633.500128976
 20
-172347.395587842
 10
2052633.500128976
 20
-171347.395587842
  0
LWPOLYLINE
  5
157
330
17
100
AcDbEntity
  8
第二次修改
100
AcDbPolyline
 90
7
 70
1
 10
1986649.477290516
 20
-170719.3956011637
 10
1987649.477290516
 20
-170719.3956011637
 10
1987889.477290516
 20
-171479.3956011637
 10
1987889.477290516
 20
-172479.3956011637
 10
1987203.477290516
 20
-172793.3956011637
 10
1986649.477290516
 20
-172347.3956011637
 10
1986649.477290516
 20
-171347.3956011637
  0
LWPOLYLINE
  5
158
330
17
100
AcDbEntity
  8
第二次修改
100
AcDbPolyline
 90
6
 70
1
 10
2018582.500128976
 20
-149180.395587842
 10
2019582.500128976
 20
-149180.395587842
 10
2020582.500128976
 20
-149180.395587842
 10
2020421.526374184
 20
-149935.2574953949
 10
2019421.526374184
 20
-149935.2574953949
 10
2018582.500128976
 20
-149774.2837406029
  0
LWPOLYLINE
  5
159
330
17
100
AcDbEntity
  8
第二次修改
100
AcDbPolyline
 90
6
 70
1
 10
2018582.500128955
 20
-192966.6907591928
 10
2019582.500128955
 20
-192966.6907591928
 10
2020582.500128955
 20
-192966.6907591928
 10
2020421.526374163
 20
-193721.5526667458
 10
2019421.526374163
 20
-193721.5526667458
 10
2018582.500128955
 20
-193560.5789119538
  0
LWPOLYLINE
  5
15A
330
17
100
AcDbEntity
  8
第二次修改
100
AcDbPolyline
 90
21
 70
1
 10
2011459.0
 20
-172250.5
 10
2012458.735506736
 20
-172273.4981862619
 10
2013458.471013472
 20
-172296.4963725237
 10
2014458.206520208
 20
-172319.4945587856
 10
2015457.942026944
 20
-172342.4927450474
 10
2016457.67753368
 20
-172365.4909313092
 10
2017457.413040416
 20
-172388.4891175711
 10
2018205.345992943
 20
-172657.5639416118
 10
2018205.345992943
 20
-173657.5639416118
 10
2018205.345992943
 20
-174657.5639416118
 10
2018205.345992943
 20
-175657.5639416118
 10
2017769.282051331
 20
-176221.5
 10
2016769.282051331
 20
-176221.5
 10
2015769.282051331
 20
-176221.5
 10
2014769.282051331
 20
-176221.5
 10
2013769.282051331
 20
-176221.5
 10
2012883.5
 20
-176107.2820513315
 10
2012883.5
 20
-175107.2820513315
 10
2012883.5
 20
-174107.2820513315
 10
2012290.282051331
 20
-173700.5000000031
 10
2011546.095470309
 20
-173425.0144994341
  0
ENDSEC
  0
SECTION
  2
OBJECTS
  0
DICTIONARY
  5
A
330
0
100
AcDbDictionary
281
1
  3
ACAD_COLOR
350
B
  3
ACAD_GROUP
350
C
  3
ACAD_LAYOUT
350
D
  3
ACAD_MATERIAL
350
E
  3
ACAD_MLEADERSTYLE
350
F
  3
ACAD_MLINESTYLE
350
10
  3
ACAD_PLOTSETTINGS
350
11
  3
ACAD_PLOTSTYLENAME
350
12
  3
ACAD_SCALELIST
350
14
  3
ACAD_TABLESTYLE
350
15
  3
ACAD_VISUALSTYLE
350
16
  3
EZDXF_META
350
2D
  0
DICTIONARY
  5
B
330
A
100
AcDbDictionary
281
1
  0
DICTIONARY
  5
C
330
A
100
AcDbDictionary
281
1
  0
DICTIONARY
  5
D
330
A
100
AcDbDictionary
281
1
  3
Model
350
1A
  3
Layout1
350
1E
  0
DICTIONARY
  5
E
330
A
100
AcDbDictionary
281
1
  3
ByBlock
350
1F
  3
ByLayer
350
20
  3
Global
350
21
  0
DICTIONARY
  5
F
330
A
100
AcDbDictionary
281
1
  3
Standard
350
2C
  0
DICTIONARY
  5
10
330
A
100
AcDbDictionary
281
1
  3
Standard
350
22
  0
DICTIONARY
  5
11
330
A
100
AcDbDictionary
281
1
  0
ACDBDICTIONARYWDFLT
  5
12
330
A
100
AcDbDictionary
281
1
  3
Normal
350
13
100
AcDbDictionaryWithDefault
340
13
  0
ACDBPLACEHOLDER
  5
13
330
12
  0
DICTIONARY
  5
14
330
A
100
AcDbDictionary
281
1
  0
DICTIONARY
  5
15
330
A
100
AcDbDictionary
281
1
  0
DICTIONARY
  5
16
330
A
100
AcDbDictionary
281
1
  0
LAYOUT
  5
1A
330
D
100
AcDbPlotSettings
  1

  4
A3
  6

 40
7.5
 41
20.0
 42
7.5
 43
20.0
 44
420.0
 45
297.0
 46
0.0
 47
0.0
 48
0.0
 49
0.0
140
0.0
141
0.0
142
1.0
143
1.0
 70
1024
 72
1
 73
0
 74
5
  7

 75
16
 76
0
 77
2
 78
300
147
1.0
148
0.0
149
0.0
100
AcDbLayout
  1
Model
 70
1
 71
0
 10
0.0
 20
0.0
 11
420.0
 21
297.0
 12
0.0
 22
0.0
 32
0.0
 14
1e+20
 24
1e+20
 34
1e+20
 15
-1e+20
 25
-1e+20
 35
-1e+20
146
0.0
 13
0.0
 23
0.0
 33
0.0
 16
1.0
 26
0.0
 36
0.0
 17
0.0
 27
1.0
 37
0.0
 76
1
330
17
  0
LAYOUT
  5
1E
330
D
100
AcDbPlotSettings
  1

  4
A3
  6

 40
7.5
 41
20.0
 42
7.5
 43
20.0
 44
420.0
 45
297.0
 46
0.0
 47
0.0
 48
0.0
 49
0.0
140
0.0
141
0.0
142
1.0
143
1.0
 70
0
 72
1
 73
0
 74
5
  7

 75
16
 76
0
 77
2
 78
300
147
1.0
148
0.0
149
0.0
100
AcDbLayout
  1
Layout1
 70
1
 71
1
 10
0.0
 20
0.0
 11
420.0
 21
297.0
 12
0.0
 22
0.0
 32
0.0
 14
1e+20
 24
1e+20
 34
1e+20
 15
-1e+20
 25
-1e+20
 35
-1e+20
146
0.0
 13
0.0
 23
0.0
 33
0.0
 16
1.0
 26
0.0
 36
0.0
 17
0.0
 27
1.0
 37
0.0
 76
1
330
1B
  0
MATERIAL
  5
1F
102
{ACAD_REACTORS
330
E
102
}
330
E
100
AcDbMaterial
  1
ByBlock
  2

 70
0
 40
1.0
 71
1
 41
1.0
 91
-1023410177
 42
1.0
 72
1
  3

 73
1
 74
1
 75
1
 44
0.5
 73
0
 45
1.0
 46
1.0
 77
1
  4

 78
1
 79
1
170
1
 48
1.0
171
1
  6

172
1
173
1
174
1
140
1.0
141
1.0
175
1
  7

176
1
177
1
178
1
143
1.0
179
1
  8

270
1
271
1
272
1
145
1.0
146
1.0
273
1
  9

274
1
275
1
276
1
 42
1.0
 72
1
  3

 73
1
 74
1
 75
1
 94
63
  0
MATERIAL
  5
20
102
{ACAD_REACTORS
330
E
102
}
330
E
100
AcDbMaterial
  1
ByLayer
  2

 70
0
 40
1.0
 71
1
 41
1.0
 91
-1023410177
 42
1.0
 72
1
  3

 73
1
 74
1
 75
1
 44
0.5
 73
0
 45
1.0
 46
1.0
 77
1
  4

 78
1
 79
1
170
1
 48
1.0
171
1
  6

172
1
173
1
174
1
140
1.0
141
1.0
175
1
  7

176
1
177
1
178
1
143
1.0
179
1
  8

270
1
271
1
272
1
145
1.0
146
1.0
273
1
  9

274
1
275
1
276
1
 42
1.0
 72
1
  3

 73
1
 74
1
 75
1
 94
63
  0
MATERIAL
  5
21
102
{ACAD_REACTORS
330
E
102
}
330
E
100
AcDbMaterial
  1
Global
  2

 70
0
 40
1.0
 71
1
 41
1.0
 91
-1023410177
 42
1.0
 72
1
  3

 73
1
 74
1
 75
1
 44
0.5
 73
0
 45
1.0
 46
1.0
 77
1
  4

 78
1
 79
1
170
1
 48
1.0
171
1
  6

172
1
173
1
174
1
140
1.0
141
1.0
175
1
  7

176
1
177
1
178
1
143
1.0
179
1
  8

270
1
271
1
272
1
145
1.0
146
1.0
273
1
  9

274
1
275
1
276
1
 42
1.0
 72
1
  3

 73
1
 74
1
 75
1
 94
63
  0
MLINESTYLE
  5
22
102
{ACAD_REACTORS
330
10
102
}
330
10
100
AcDbMlineStyle
  2
Standard
 70
0
  3

 62
256
 51
90.0
 52
90.0
 71
2
 49
0.5
 62
256
  6
BYLAYER
 49
-0.5
 62
256
  6
BYLAYER
  0
MLEADERSTYLE
  5
2C
102
{ACAD_REACTORS
330
F
102
}
330
F
100
AcDbMLeaderStyle
179
2
170
2
171
1
172
0
 90
2
 40
0.0
 41
0.0
173
1
 91
-1056964608
 92
-2
290
1
 42
2.0
291
1
 43
8.0
  3
Standard
 44
4.0
300

342
29
174
1
175
1
176
0
178
1
 93
-1056964608
 45
4.0
292
0
297
0
 46
4.0
 94
-1056964608
 47
1.0
 49
1.0
140
1.0
294
1
141
0.0
177
0
142
1.0
295
0
296
0
143
3.75
271
0
272
9
273
9
  0
DICTIONARY
  5
2D
330
A
100
AcDbDictionary
280
1
281
1
  3
CREATED_BY_EZDXF
350
2E
  3
WRITTEN_BY_EZDXF
350
15D
  0
DICTIONARYVAR
  5
2E
330
2D
100
DictionaryVariables
280
0
  1
1.4.2 @ 2026-05-04T05:13:11.888559+00:00
  0
DICTIONARYVAR
  5
15D
330
2D
100
DictionaryVariables
280
0
  1
1.4.2 @ 2026-05-04T05:13:11.933835+00:00
  0
ENDSEC
  0
EOF
